<svg width="150" height="151" viewBox="0 0 150 151" fill="none" xmlns="http://www.w3.org/2000/svg">
<path d="M142.946 63.7141C140.92 61.816 138.637 59.6871 138.227 58.0455C137.765 56.2757 138.637 53.3259 139.509 50.4531C140.792 46.1953 142.228 41.3731 139.971 37.4744C137.688 33.5243 132.738 32.37 128.377 31.3441C125.504 30.6772 122.529 29.959 121.272 28.7278C120.015 27.4709 119.323 24.4956 118.656 21.6228C117.63 17.2623 116.476 12.3119 112.526 10.0291C108.627 7.77189 103.805 9.23393 99.5469 10.4908C96.6741 11.3629 93.6987 12.235 91.9545 11.7733C90.3386 11.3372 88.184 9.05438 86.2859 7.05369C83.1823 3.74487 79.6683 0 75 0C70.3317 0 66.8177 3.74487 63.7141 7.05369C61.816 9.08003 59.6871 11.3629 58.0455 11.7989C56.2757 12.2606 53.3259 11.3885 50.4531 10.5164C46.1953 9.23393 41.3731 7.79754 37.4743 10.0547C33.5243 12.3376 32.37 17.288 31.344 21.6484C30.6772 24.5212 29.959 27.4966 28.7278 28.7534C27.4709 30.0103 24.4956 30.7028 21.6228 31.3697C17.2623 32.3957 12.3119 33.5499 10.0291 37.5C7.77189 41.3988 9.23393 46.2209 10.4908 50.4788C11.3372 53.3516 12.235 56.3013 11.7733 58.0711C11.3372 59.6871 9.05438 61.8417 7.05369 63.7397C3.74487 66.8434 0 70.3574 0 75.0257C0 79.6939 3.74487 83.2079 7.05369 86.3116C9.08003 88.2096 11.3629 90.3386 11.7733 91.9802C12.235 93.75 11.3629 96.6997 10.4908 99.5725C9.20828 103.83 7.77189 108.653 10.0291 112.551C12.3119 116.501 17.2623 117.656 21.6228 118.682C24.4956 119.348 27.4709 120.041 28.7278 121.298C29.9846 122.555 30.6772 125.53 31.344 128.403C32.37 132.763 33.5243 137.714 37.4743 139.997C41.3731 142.254 46.1953 140.792 50.4531 139.535C53.3259 138.663 56.2757 137.791 58.0455 138.252C59.6614 138.688 61.816 140.971 63.7141 142.998C66.8177 146.306 70.3317 150.051 75 150.051C79.6683 150.051 83.1823 146.306 86.2859 142.998C88.184 140.971 90.3129 138.688 91.9545 138.252C93.7243 137.791 96.6741 138.663 99.5469 139.535C103.805 140.817 108.627 142.254 112.526 139.997C116.476 137.714 117.63 132.763 118.656 128.403C119.323 125.53 120.041 122.555 121.272 121.298C122.529 120.041 125.504 119.348 128.377 118.682C132.738 117.656 137.688 116.501 139.971 112.551C142.228 108.653 140.792 103.83 139.509 99.5725C138.663 96.6997 137.765 93.75 138.227 91.9802C138.663 90.3642 140.946 88.2096 142.946 86.3116C146.255 83.2079 150 79.6939 150 75.0257C150 70.3574 146.255 66.8434 142.946 63.7397V63.7141Z" fill="#51B4C7"/>
<path d="M120.067 41.4501C118.703 40.0707 116.851 39.2838 114.912 39.2598C112.973 39.2358 111.102 39.9766 109.704 41.3218L63.8939 84.7469L40.2704 63.4576C38.8388 62.1658 36.9662 61.4725 35.0385 61.5208C33.1109 61.5691 31.2752 62.3552 29.9101 63.717C28.545 65.0788 27.7545 66.9126 27.7016 68.8401C27.6487 70.7676 28.3374 72.6419 29.6257 74.0766L61.4571 109.679C62.0471 110.345 62.9192 110.73 63.8169 110.756H63.8426C64.7403 110.756 65.5867 110.397 66.1767 109.73L120.221 51.8126C121.541 50.4099 122.262 48.5467 122.228 46.6205C122.195 44.6942 121.41 42.8573 120.041 41.5014L120.067 41.4501Z" fill="#F2F2F2"/>
</svg>
