<svg width="77" height="69" viewBox="0 0 77 69" fill="none" xmlns="http://www.w3.org/2000/svg">
<g id="Group 34137" filter="url(#filter0_i_460_7065)">
<g id="Group 3">
<g id="Layer_2_00000090260466164770492690000001102511022804814233_">
<g id="polygon">
<path id="Vector" d="M15.6028 5.5088L15.6036 5.50755C17.3991 2.41865 20.7018 0.5 24.2806 0.5H51.7921C55.3701 0.5 58.6729 2.4034 60.4832 5.50689L60.4845 5.509L74.2254 29.3315C76.0218 32.4371 76.0218 36.2587 74.2254 39.3643L60.4699 63.187L60.4691 63.1883C58.6736 66.2772 55.371 68.1958 51.7921 68.1958H24.2806C20.7029 68.1958 17.3992 66.2926 15.603 63.1874L15.6028 63.187L1.8473 39.3643C0.0509642 36.2588 0.0509005 32.4374 1.84711 29.3318L15.6028 5.5088ZM15.6028 5.5088L1.8473 29.3315L15.6028 5.5088Z" fill="white" stroke="#74C3D2"/>
</g>
</g>
</g>
<g id="Group">
<g id="Calque_2_1_">
<g id="_02-_Reward">
<path id="Vector_2" d="M54.1797 44.6495C54.0948 45.4546 53.7407 46.3377 53.1394 47.1326C53.5589 47.8069 53.6489 48.7231 53.1717 49.6683C52.646 50.7171 51.4291 51.8023 49.2059 52.6346C42.0395 55.3155 31.5545 54.1249 27.5947 51.1909L25.4088 51.6741C23.7527 52.0413 22.1124 50.9965 21.7452 49.3403C21.6967 49.1218 21.6724 48.8986 21.6724 48.6747V44.1273C21.6723 42.6012 22.7929 41.3066 24.3032 41.088L26.9561 40.6999C29.5495 36.8981 33.9866 38.4691 35.268 36.2705C35.8217 35.3194 36.2998 34.3802 36.8722 33.8138C37.6237 33.0682 38.5374 32.9646 39.9981 34.3233C41.6515 35.8586 41.1793 37.8831 40.6307 39.1323C42.0221 38.7384 43.3842 38.2474 44.7069 37.6632C49.1771 35.7236 51.1676 36.7036 51.424 38.4878C53.0681 38.233 53.953 38.9973 54.1525 40.1284C54.2867 40.885 54.1143 41.8047 53.6583 42.6879C54.0973 43.1643 54.2646 43.8691 54.1797 44.6495Z" fill="#FFEBD3"/>
<g id="Group_2">
<path id="Vector_3" d="M40.6304 39.1305C37.5775 39.9737 36.2095 39.6714 36.2095 39.6714C36.2095 39.6714 38.836 36.9073 37.13 34.4302C37.0001 34.2463 36.913 34.0356 36.8752 33.8136C37.6268 33.068 38.5405 32.9644 40.0011 34.3232C41.6511 35.8568 41.179 37.8813 40.6304 39.1305Z" fill="#FFD5B7"/>
<path id="Vector_4" d="M54.158 40.1257C53.4285 39.7682 52.3747 39.454 51.1985 39.724C48.9541 40.2336 46.916 41.6339 43.2823 42.7557C39.6486 43.8775 40.9623 42.1222 40.9623 42.1222C41.1491 42.1222 44.6911 41.2008 49.8169 38.9802C50.3319 38.7483 50.874 38.582 51.4304 38.4851C53.0719 38.2269 53.9567 38.9946 54.158 40.1257Z" fill="#FFD5B7"/>
<path id="Vector_5" d="M54.1796 44.6494C52.9474 43.7085 51.2405 43.2194 49.6576 43.8486C47.6492 44.646 44.4885 46.0345 42.0802 46.5194C39.6719 47.0043 40.9576 45.739 40.9576 45.739C41.1444 45.739 44.6864 44.8176 49.8122 42.5969C51.7441 41.7605 53.006 41.9643 53.659 42.6818C54.0972 43.1642 54.2645 43.869 54.1796 44.6494Z" fill="#FFD5B7"/>
<path id="Vector_6" d="M53.172 49.6733C52.6804 48.0047 51.0159 47.5945 48.7808 48.5796C46.0999 49.7608 43.7536 50.351 42.0832 50.3221C40.4128 50.2933 42.0832 48.9711 42.0832 48.9711C42.0832 48.9711 44.6308 49.2615 49.8738 46.3971C51.1934 45.6762 52.525 46.1424 53.1389 47.1368C53.5635 47.8051 53.6484 48.7239 53.172 49.6733Z" fill="#FFD5B7"/>
<path id="Vector_7" d="M27.5952 51.1925L25.4093 51.6757C23.7532 52.0429 22.1129 50.998 21.7457 49.3419C21.6972 49.1234 21.6729 48.9002 21.6729 48.6763V47.766H25.428C25.8662 49.7268 27.5952 51.1925 27.5952 51.1925Z" fill="#FFD5B7"/>
<path id="Vector_8" d="M28.5455 46.9814C28.5455 46.9814 33.5821 45.0877 36.2096 48.9753C36.2096 48.9753 36.517 51.4991 34.3906 49.7863C32.2642 48.0735 30.6354 47.6472 28.9854 48.4505C27.3354 49.2539 28.5455 46.9814 28.5455 46.9814Z" fill="#FFD5B7"/>
</g>
<path id="Vector_9" d="M36.0765 35.1665C31.1163 35.1665 27.0962 30.5919 27.0962 24.9481C27.0962 19.3044 31.1162 14.7289 36.0765 14.7289H39.8011V35.1665H36.0765Z" fill="#F6D14F"/>
<path id="Vector_10" d="M39.8011 35.1674C44.7607 35.1674 48.7814 30.5921 48.7814 24.9481C48.7814 19.3042 44.7607 14.7289 39.8011 14.7289C34.8414 14.7289 30.8208 19.3042 30.8208 24.9481C30.8208 30.5921 34.8414 35.1674 39.8011 35.1674Z" fill="#FFE262"/>
<path id="Vector_11" d="M39.801 32.6444C43.5366 32.6444 46.5648 29.1987 46.5648 24.9481C46.5648 20.6976 43.5366 17.2518 39.801 17.2518C36.0654 17.2518 33.0371 20.6976 33.0371 24.9481C33.0371 29.1987 36.0654 32.6444 39.801 32.6444Z" fill="#F6D14F"/>
<g id="Vector_12">
<path d="M40.3766 20.9516C40.3766 21.0121 40.3766 21.0613 40.3766 21.1096C40.3766 23.5436 40.3766 25.9777 40.3766 28.4117C40.3766 28.5309 40.3719 28.5357 40.2519 28.5338C40.1657 28.5319 40.0805 28.5328 39.9943 28.5319C39.9371 28.5309 39.9221 28.5158 39.9203 28.459C39.9193 28.4278 39.9203 28.3957 39.9203 28.3644C39.9203 25.9332 39.9203 23.5029 39.9203 21.0717C39.9203 20.9516 39.9203 20.9516 39.8003 20.9478C39.7282 20.9459 39.657 20.945 39.5848 20.944C38.7855 20.9421 37.9863 20.9402 37.1861 20.9383C36.9444 20.9374 36.7017 20.9364 36.4599 20.9355C36.3803 20.9355 36.3709 20.926 36.369 20.8466C36.3681 20.7964 36.369 20.7454 36.37 20.6952C36.3709 20.6526 36.3915 20.6299 36.4346 20.6309C36.4627 20.6318 36.4908 20.6309 36.519 20.6309C37.6012 20.6309 38.6834 20.6309 39.7656 20.6309C41.0147 20.6309 42.2637 20.6318 43.5136 20.6337C43.6008 20.6337 43.6888 20.6375 43.776 20.6385C43.82 20.6394 43.8425 20.6593 43.8416 20.7047C43.8406 20.752 43.8416 20.7993 43.8416 20.8466C43.8406 20.9147 43.8294 20.927 43.7629 20.9279C43.5539 20.9298 43.344 20.9308 43.1351 20.9317C42.259 20.9383 41.3838 20.944 40.5077 20.9506C40.4656 20.9516 40.4253 20.9516 40.3766 20.9516Z" fill="black"/>
<path d="M40.6641 23.6996C40.6641 23.5417 40.6651 23.3846 40.6632 23.2266C40.6632 23.1831 40.6772 23.15 40.7044 23.116C41.0408 22.7063 41.3762 22.2948 41.7126 21.8852C41.84 21.7301 41.9694 21.5768 42.0958 21.4207C42.1333 21.3744 42.1755 21.3536 42.2355 21.3545C42.6037 21.3592 42.9719 21.3592 43.3402 21.3611C43.3477 21.3611 43.3561 21.3592 43.3636 21.3621C43.3777 21.3668 43.4011 21.3706 43.403 21.3791C43.4058 21.3924 43.3992 21.4132 43.3889 21.4236C43.3308 21.4832 43.269 21.538 43.2109 21.5976C42.7574 22.0621 42.3001 22.5219 41.8541 22.9939C41.4746 23.395 41.1101 23.8094 40.7391 24.2181C40.7306 24.2275 40.7222 24.237 40.7128 24.2445C40.6904 24.2625 40.6744 24.254 40.6679 24.2285C40.6632 24.2105 40.6641 24.1906 40.6641 24.1717C40.6641 24.0147 40.6641 23.8576 40.6641 23.6996Z" fill="black"/>
<path d="M37.5 21.3582C37.6761 21.3582 37.8532 21.3611 38.0294 21.3563C38.0997 21.3545 38.1446 21.3791 38.1877 21.433C38.5794 21.9135 38.9729 22.3922 39.3656 22.8718C39.4349 22.957 39.507 23.0402 39.5736 23.1273C39.5923 23.1519 39.6073 23.1859 39.6073 23.2162C39.6082 23.5454 39.6054 23.8746 39.6026 24.2038C39.6026 24.2048 39.6026 24.2066 39.6026 24.2076C39.5989 24.2379 39.5614 24.2483 39.5389 24.2275C39.538 24.2265 39.537 24.2256 39.537 24.2256C39.3599 24.0288 39.1856 23.8282 39.0067 23.6324C38.4539 23.0241 37.886 22.4301 37.306 21.8473C37.1795 21.7206 37.053 21.5919 36.9266 21.4632C36.9181 21.4547 36.9078 21.4462 36.9013 21.4358C36.8975 21.4292 36.8938 21.4226 36.89 21.4159C36.8788 21.3951 36.8891 21.3686 36.9116 21.3611C36.92 21.3582 36.9284 21.3563 36.9378 21.3563C37.1252 21.3545 37.3126 21.3554 37.5 21.3554C37.5 21.3563 37.5 21.3573 37.5 21.3582Z" fill="black"/>
<path d="M43.0209 27.3078C43.0209 27.2842 43.0209 27.2605 43.0209 27.2369C43.0209 26.0194 43.0209 24.8028 43.0209 23.5853C43.0209 23.5664 43.0209 23.5475 43.0209 23.5285C43.0209 23.4453 43.0331 23.433 43.1165 23.4339C43.2917 23.4349 43.466 23.4368 43.6412 23.4387C43.7668 23.4406 43.7668 23.4406 43.7668 23.5683C43.7668 25.184 43.7668 26.7998 43.7668 28.4165C43.7668 28.4232 43.7668 28.4298 43.7668 28.4355C43.7658 28.4846 43.7265 28.5234 43.6777 28.5234C43.4369 28.5234 43.1961 28.5234 42.9553 28.5244C42.915 28.5244 42.8935 28.4998 42.8729 28.4705C42.6967 28.2264 42.5224 27.9795 42.3425 27.7373C41.9743 27.2435 41.6051 26.7516 41.2322 26.2615C41.1301 26.1272 41.0148 26.0014 40.9042 25.8727C40.8761 25.8406 40.8611 25.8075 40.8611 25.763C40.8639 25.4915 40.8639 25.2209 40.8658 24.9494C40.8658 24.939 40.8696 24.9277 40.8743 24.9173C40.8808 24.9031 40.8977 24.8974 40.9108 24.905C40.9211 24.9107 40.9305 24.9163 40.937 24.9248C41.2603 25.3099 41.5807 25.6958 41.904 26.0809C42.2544 26.498 42.6058 26.9133 42.9572 27.3305C42.9572 27.3305 42.9572 27.3315 42.9581 27.3315C42.989 27.3201 42.99 27.3192 43.0209 27.3078Z" fill="black"/>
<path d="M43.6899 22.8549C43.7021 23.0195 43.5559 23.1851 43.3741 23.1804C43.2055 23.1766 43.0537 23.0224 43.0528 22.8474C43.0518 22.6667 43.1942 22.521 43.3713 22.521C43.5569 22.521 43.689 22.6601 43.6899 22.8549Z" fill="black"/>
<path d="M41.4738 28.5338C41.3642 28.5338 41.2555 28.5328 41.1459 28.5347C41.1 28.5357 41.0709 28.5177 41.0475 28.477C40.9304 28.2774 40.8114 28.0806 40.6942 27.881C40.6774 27.8527 40.6652 27.8167 40.6652 27.7845C40.6633 27.4459 40.6633 27.1072 40.6643 26.7685C40.6643 26.761 40.6652 26.7544 40.6671 26.7468C40.6736 26.7212 40.7045 26.7099 40.7252 26.7269C40.7308 26.7316 40.7364 26.7373 40.7411 26.7439C41.1365 27.2898 41.5057 27.8527 41.8449 28.4363C41.8505 28.4458 41.8561 28.4553 41.8608 28.4657C41.8814 28.5092 41.872 28.5291 41.8243 28.53C41.7446 28.5319 41.665 28.5319 41.5853 28.5319C41.5478 28.5319 41.5104 28.5319 41.4729 28.5319C41.4738 28.5319 41.4738 28.5328 41.4738 28.5338Z" fill="black"/>
<path d="M39.151 28.53C39.0479 28.53 38.9448 28.531 38.8418 28.53C38.7668 28.5291 38.7537 28.5168 38.7574 28.4401C38.7705 28.1544 38.8071 27.8716 38.8642 27.5925C38.8895 27.4705 38.9205 27.3503 38.9514 27.2302C38.9701 27.1574 38.9936 27.1517 39.046 27.2018C39.2231 27.3702 39.3824 27.5537 39.5192 27.7562C39.5417 27.7893 39.5567 27.8338 39.5567 27.8735C39.5576 28.0655 39.552 28.2576 39.5483 28.4505C39.5464 28.5205 39.537 28.53 39.4686 28.531C39.3627 28.531 39.2568 28.53 39.151 28.53Z" fill="black"/>
<path d="M36.4937 25.8056C36.4937 24.9419 36.4937 24.0782 36.4937 23.2145C36.4937 23.2079 36.4937 23.2022 36.4937 23.1956C36.4947 23.1123 36.5115 23.1048 36.5855 23.1407C36.9407 23.3082 37.2808 23.504 37.6059 23.7235C37.8777 23.9079 38.1419 24.1047 38.3996 24.309C38.8165 24.6392 39.197 25.011 39.5558 25.4045C39.598 25.4499 39.6177 25.4963 39.6167 25.5597C39.613 25.8274 39.613 26.0951 39.612 26.3638C39.612 26.3704 39.613 26.377 39.6111 26.3827C39.6092 26.3874 39.6083 26.3921 39.6064 26.3969C39.597 26.4243 39.5624 26.4319 39.5418 26.4111C39.4556 26.3202 39.3703 26.2275 39.286 26.1348C39.2625 26.1093 39.2372 26.0951 39.2007 26.096C38.5701 26.097 37.9395 26.097 37.3089 26.097C37.2414 26.097 37.2405 26.0989 37.2405 26.1736C37.2405 26.903 37.2405 27.6333 37.2405 28.3627C37.2405 28.5064 37.2405 28.5064 37.099 28.5064C36.9182 28.5064 36.7364 28.5064 36.5556 28.5064C36.4965 28.5064 36.4815 28.4894 36.4815 28.4298C36.4834 27.7695 36.4862 27.1092 36.4881 26.4489C36.489 26.2342 36.4881 26.0204 36.4881 25.8056C36.49 25.8056 36.4918 25.8056 36.4937 25.8056ZM38.7472 25.7772C38.8025 25.7772 38.8587 25.7772 38.914 25.7772C38.3621 25.3336 37.8093 24.8899 37.2574 24.4462C37.2489 24.45 37.248 24.4509 37.2405 24.4547C37.2405 24.4878 37.2405 24.5209 37.2405 24.5541C37.2405 24.9258 37.2396 25.2976 37.2414 25.6694C37.2414 25.7829 37.2227 25.7734 37.3436 25.7734C37.8111 25.7763 38.2796 25.7772 38.7472 25.7772Z" fill="black"/>
</g>
<path id="Vector_13" d="M54.0141 42.6455C54.6561 41.2945 54.6671 39.9281 54.0328 39.0526C53.5428 38.3732 52.7097 38.0599 51.6661 38.1558C51.5204 37.532 51.1162 36.9996 50.5545 36.6918C49.3087 35.9955 47.2468 36.2366 44.5931 37.3882C43.4631 37.8836 42.3057 38.3142 41.1267 38.6781C41.4579 37.7083 41.6277 36.5007 41.1148 35.3594C43.101 35.0427 44.9362 34.0092 46.3747 32.3702C48.1181 30.3857 49.0786 27.7497 49.0786 24.9482C49.0786 19.1491 44.9166 14.4318 39.8011 14.4318H36.0765C30.9609 14.4318 26.799 19.1491 26.799 24.9482C26.799 30.4901 30.6008 35.0444 35.4031 35.4367L35.3181 35.5929C35.2188 35.767 35.1186 35.9445 35.0158 36.1212C34.525 36.9636 33.4805 37.1826 32.1591 37.4612C30.4446 37.8229 28.3182 38.2705 26.7896 40.4249L24.2641 40.7943C22.6121 41.0418 21.3874 42.4569 21.3794 44.1274V48.6766C21.3787 50.5366 22.886 52.0451 24.746 52.0458C24.991 52.0458 25.2351 52.0193 25.4742 51.9664L27.5293 51.512C29.5334 52.9378 33.1221 53.9832 37.1745 54.3144C38.1222 54.3925 39.064 54.4307 39.993 54.4307C43.411 54.4307 46.6456 53.9102 49.3112 52.9132C52.2512 51.8092 53.2795 50.3733 53.6243 49.3593C53.8859 48.5908 53.8383 47.8146 53.4927 47.1514C54.5984 45.588 54.8107 43.7215 54.0141 42.6455ZM27.3934 24.9482C27.3934 19.4769 31.2887 15.0262 36.0766 15.0262H36.7262C33.1171 16.4698 30.527 20.3702 30.527 24.9482C30.527 28.8121 32.3902 32.3575 35.3887 34.1994C35.5294 34.2853 35.713 34.2408 35.7989 34.1001C35.8847 33.9593 35.8402 33.7757 35.6995 33.6899C32.8759 31.9541 31.1215 28.604 31.1215 24.9431C31.118 19.4769 35.0133 15.0262 39.8011 15.0262C44.5888 15.0262 48.4841 19.4769 48.4841 24.9482C48.4841 27.6054 47.5763 30.102 45.928 31.9779C44.4844 33.622 42.6221 34.6104 40.6171 34.8261H40.6104C40.3415 34.8543 40.0714 34.8685 39.8011 34.8686H36.0765C31.2887 34.8694 27.3934 30.4188 27.3934 24.9482ZM53.1309 46.6266C52.3947 45.7944 51.0929 45.3893 49.7341 46.1324C44.6746 48.8982 42.1491 48.6749 42.1185 48.6715C41.9544 48.6532 41.8064 48.7714 41.7882 48.9356C41.7699 49.0997 41.8881 49.2476 42.0523 49.2659C42.1389 49.2741 42.226 49.2777 42.313 49.2769C43.0968 49.2769 45.6317 49.0561 50.0195 46.658C51.2321 45.9948 52.3802 46.4737 52.8889 47.2907C53.2286 47.8358 53.2906 48.5033 53.0639 49.1691C52.6342 50.4301 51.2287 51.563 49.104 52.3578C41.9563 55.032 31.6012 53.7802 27.7824 50.9609C27.6626 50.8556 26.1171 49.4757 25.7196 47.7017C25.6814 47.542 25.5211 47.4436 25.3615 47.4817C25.205 47.5192 25.1068 47.6742 25.1396 47.8316C25.4623 49.2752 26.4287 50.442 26.9901 51.0237L25.3477 51.3863C23.8517 51.7175 22.3705 50.7731 22.0394 49.2771C21.9957 49.0799 21.9737 48.8785 21.9738 48.6766V44.1274C21.9801 42.7526 22.9872 41.5874 24.3465 41.3819L26.9994 40.9939C27.0816 40.982 27.155 40.9361 27.2015 40.8673C28.5976 38.8182 30.5507 38.4063 32.278 38.0395C33.6265 37.7559 34.9012 37.4867 35.5245 36.4167C35.629 36.2383 35.7309 36.06 35.8302 35.8842C35.9151 35.7399 35.9924 35.5997 36.0731 35.4596H39.8011C40.032 35.4596 40.2619 35.4503 40.4906 35.4316C41.1054 36.606 40.8108 37.9223 40.4142 38.8768C37.5982 39.6351 36.2939 39.3812 36.2726 39.3761C36.1122 39.3412 35.9539 39.4429 35.919 39.6033C35.8841 39.7637 35.9857 39.9221 36.1461 39.957C36.4111 40.0041 36.6803 40.0243 36.9495 40.0173C37.6755 40.0173 38.9077 39.9103 40.7072 39.4135C42.113 39.015 43.4896 38.5194 44.8266 37.9299C47.2689 36.8701 49.1991 36.6137 50.2615 37.2073C50.6639 37.4267 50.9575 37.803 51.0725 38.2467C50.5995 38.3548 50.1379 38.5081 49.6942 38.7044C44.6279 40.8987 41.1836 41.7887 40.9424 41.8227C40.7782 41.8269 40.6486 41.9634 40.6528 42.1275C40.6571 42.2917 40.7935 42.4214 40.9577 42.4171C41.1946 42.4171 44.7264 41.5042 49.9303 39.2504C50.4217 39.0294 50.9385 38.8702 51.4691 38.7766C52.4261 38.6263 53.1445 38.8411 53.5462 39.3982C54.0167 40.0504 54.0124 41.1212 53.5555 42.2006C52.9407 41.759 51.7722 41.4244 49.6925 42.3254C44.6262 44.5197 41.1819 45.4097 40.9407 45.4437C40.7765 45.4479 40.6469 45.5844 40.6511 45.7485C40.6554 45.9127 40.7918 46.0423 40.956 46.0381C41.1929 46.0381 44.7247 45.1261 49.9286 42.8714C51.5472 42.1708 52.793 42.1759 53.4375 42.8867C54.1729 43.6892 54.0277 45.2475 53.1309 46.6266Z" fill="black"/>
<path id="Vector_14" d="M31.3947 46.2223C30.3903 46.2163 29.3921 46.3782 28.4411 46.7013C28.2873 46.7589 28.2094 46.9305 28.2671 47.0843C28.3247 47.2381 28.4963 47.316 28.65 47.2584C29.5388 46.9602 30.4707 46.8107 31.4082 46.8159C33.4022 46.8363 34.935 47.6176 35.9633 49.1402C36.0552 49.2762 36.24 49.3119 36.3761 49.22C36.5121 49.1281 36.5478 48.9433 36.4559 48.8073C35.3247 47.1335 33.5745 46.2393 31.3947 46.2223Z" fill="black"/>
<path id="Vector_15" d="M46.8619 24.9482C46.8619 20.54 43.6944 16.9539 39.8008 16.9539C35.9073 16.9539 32.7397 20.54 32.7397 24.9482C32.7397 29.3564 35.9073 32.9443 39.8008 32.9443C43.6944 32.9443 46.8619 29.3556 46.8619 24.9482ZM33.3342 24.9482C33.3342 20.8721 36.235 17.5483 39.8008 17.5483C43.3666 17.5483 46.2675 20.8678 46.2675 24.9482C46.2675 29.0286 43.3666 32.3498 39.8008 32.3498C36.235 32.3498 33.3342 29.0278 33.3342 24.9482Z" fill="black"/>
</g>
</g>
</g>
</g>
<defs>
<filter id="filter0_i_460_7065" x="0" y="0" width="76.0728" height="72.6958" filterUnits="userSpaceOnUse" color-interpolation-filters="sRGB">
<feFlood flood-opacity="0" result="BackgroundImageFix"/>
<feBlend mode="normal" in="SourceGraphic" in2="BackgroundImageFix" result="shape"/>
<feColorMatrix in="SourceAlpha" type="matrix" values="0 0 0 0 0 0 0 0 0 0 0 0 0 0 0 0 0 0 127 0" result="hardAlpha"/>
<feOffset dy="4"/>
<feGaussianBlur stdDeviation="2"/>
<feComposite in2="hardAlpha" operator="arithmetic" k2="-1" k3="1"/>
<feColorMatrix type="matrix" values="0 0 0 0 0 0 0 0 0 0 0 0 0 0 0 0 0 0 0.25 0"/>
<feBlend mode="normal" in2="shape" result="effect1_innerShadow_460_7065"/>
</filter>
</defs>
</svg>
