<svg width="74" height="66" viewBox="0 0 74 66" fill="none" xmlns="http://www.w3.org/2000/svg">
<path d="M16.6759 23.4836L16.6761 23.4833L24.6607 9.65499C24.6609 9.65479 24.661 9.65458 24.6611 9.65438C25.5633 8.10279 27.2213 7.14117 29.0146 7.14117H44.9854C46.7794 7.14117 48.4372 8.09505 49.3475 9.6547C49.3477 9.65502 49.3479 9.65534 49.348 9.65566L57.3238 23.4831L57.3241 23.4836C58.2253 25.0417 58.2253 26.9583 57.3241 28.5164L57.3239 28.5167L49.3393 42.345C49.3391 42.3453 49.3389 42.3456 49.3387 42.346C48.4364 43.8973 46.7785 44.8588 44.9854 44.8588H29.0146C27.2199 44.8588 25.5628 43.9044 24.6613 42.3459L16.6761 28.5167L16.6759 28.5164C15.7747 26.9583 15.7747 25.0417 16.6759 23.4836Z" fill="#764CB2" stroke="#EEF8F9"/>
<path d="M44.4775 17.5605C44.4775 17.4567 44.5616 17.3726 44.6654 17.3726C44.7691 17.3726 44.8533 17.4567 44.8533 17.5605C44.8533 17.6643 44.7691 17.7484 44.6654 17.7484C44.5616 17.7484 44.4775 17.6643 44.4775 17.5605Z" fill="#C9E8EE" stroke="#EEF8F9"/>
<path d="M43.2292 17.5605C43.2292 17.4567 43.3133 17.3726 43.4171 17.3726C43.5209 17.3726 43.605 17.4567 43.605 17.5605C43.605 17.6643 43.5209 17.7484 43.4171 17.7484C43.3133 17.7484 43.2292 17.6643 43.2292 17.5605Z" fill="#C9E8EE" stroke="#EEF8F9"/>
<path d="M41.9806 17.5605C41.9806 17.4567 42.0648 17.3726 42.1685 17.3726C42.2723 17.3726 42.3564 17.4567 42.3564 17.5605C42.3564 17.6643 42.2723 17.7484 42.1685 17.7484C42.0648 17.7484 41.9806 17.6643 41.9806 17.5605Z" fill="#C9E8EE" stroke="#EEF8F9"/>
<path d="M38.8598 17.5605C38.8598 17.4567 38.9439 17.3726 39.0477 17.3726C39.1515 17.3726 39.2356 17.4567 39.2356 17.5605C39.2356 17.6643 39.1515 17.7484 39.0477 17.7484C38.9439 17.7484 38.8598 17.6643 38.8598 17.5605Z" fill="#C9E8EE" stroke="#EEF8F9"/>
<path d="M31.778 27.6391C31.7168 27.5779 31.6301 27.5448 31.547 27.548L33.1415 28.2955L32.7879 28.649L32.4083 28.3236L32.4333 28.2944L31.778 27.6391Z" fill="#C9E8EE" stroke="#EEF8F9"/>
<path d="M47.2866 32.0378C47.2866 32.0379 47.2866 32.0379 47.2866 32.0379L46.917 31.9698M47.2866 32.0378L46.917 31.9698M47.2866 32.0378C47.2866 32.0377 47.2866 32.0376 47.2867 32.0375C47.2867 32.0375 47.2867 32.0375 47.2867 32.0375C47.4357 31.2278 47.3951 30.2262 47.1921 29.2159L47.192 29.2159C47.192 29.2158 47.192 29.2157 47.192 29.2157L47.2866 32.0378ZM46.917 31.9698C46.7602 32.8217 46.4404 33.0922 46.2217 33.1362L46.2214 33.1362L46.2212 33.1363C46.2211 33.1363 46.2211 33.1363 46.221 33.1363C46.1916 33.1422 46.1627 33.1451 46.1335 33.1451C46.1391 33.1451 46.1392 33.1455 46.1287 33.1444L46.1083 33.1419L46.0763 33.1377L45.9035 33.1161L45.7259 26.5731L45.8139 26.7011C46.2562 27.3447 46.6252 28.3032 46.8237 29.2897C46.8237 29.2898 46.8237 29.2898 46.8237 29.2899C47.0244 30.2889 47.0512 31.2414 46.917 31.9693L46.917 31.9695C46.917 31.9696 46.917 31.9697 46.917 31.9698ZM44.0851 27.706C44.064 27.7103 44.0462 27.715 44.033 27.7187C44.0287 27.7199 44.0246 27.7211 44.0208 27.7223C44.0214 27.7132 44.022 27.7041 44.0226 27.695L44.0603 27.1387L44.09 27.1169L44.1327 26.9383C44.2925 26.2697 44.552 26.0212 44.7814 25.9747L44.8065 26.0964L44.0851 27.706ZM43.7519 26.9064L43.7226 26.926L43.2453 27.2459C42.5737 27.6961 41.8666 28.087 41.1292 28.4128C41.1244 28.3714 41.1164 28.3285 41.1047 28.2852C42.0011 27.8898 42.854 27.4022 43.6464 26.822C43.8171 26.1079 44.1508 25.5914 44.6835 25.4844L43.7519 26.9064ZM45.72 30.5704L45.4071 30.3623L45.7199 30.5705C45.7199 30.5705 45.7199 30.5704 45.72 30.5704ZM43.4583 27.5636C43.5279 27.5172 43.597 27.4701 43.6657 27.4223L43.5238 27.6612L43.3302 27.6481C43.3731 27.6202 43.4158 27.592 43.4583 27.5636ZM40.819 28.9474C41.58 28.6438 42.3146 28.2777 43.0133 27.8487L40.5077 29.0716L40.5924 29.0378L40.819 28.9474ZM40.6809 28.6013C40.6232 28.6243 40.5653 28.647 40.5072 28.6693L40.2676 28.2002C40.3622 28.1806 40.4599 28.2068 40.5329 28.2698C40.5423 28.2779 40.5509 28.2865 40.5589 28.2955L40.6337 28.483L41.0442 28.45C40.9239 28.5021 40.8028 28.5526 40.6809 28.6013ZM44.0178 27.7731L44.1277 28.2124L44.187 28.2118H44.187L44.6276 28.207L44.0178 27.7731ZM41.3778 35.2543C41.4751 35.2455 41.5632 35.1916 41.615 35.1082L40.296 35.3501C40.3054 35.3501 40.3148 35.3498 40.3238 35.3489L41.3778 35.2543Z" fill="#C9E8EE" stroke="#EEF8F9"/>
<mask id="path-8-inside-1_80_853" fill="white">
<path d="M30.6209 25.9872C30.7932 25.9872 30.933 25.8473 30.933 25.6751V25.363H31.5572V25.6751C31.5572 25.8473 31.6971 25.9872 31.8693 25.9872C32.0416 25.9872 32.1814 25.8473 32.1814 25.6751V24.1146C32.1814 23.5984 31.7613 23.1783 31.2451 23.1783C30.7289 23.1783 30.3088 23.5984 30.3088 24.1146V25.6751C30.3088 25.8473 30.4487 25.9872 30.6209 25.9872ZM31.2451 23.8025C31.4171 23.8025 31.5572 23.9426 31.5572 24.1146V24.7388H30.933V24.1146C30.933 23.9426 31.0732 23.8025 31.2451 23.8025Z"/>
</mask>
<path d="M30.6209 25.9872C30.7932 25.9872 30.933 25.8473 30.933 25.6751V25.363H31.5572V25.6751C31.5572 25.8473 31.6971 25.9872 31.8693 25.9872C32.0416 25.9872 32.1814 25.8473 32.1814 25.6751V24.1146C32.1814 23.5984 31.7613 23.1783 31.2451 23.1783C30.7289 23.1783 30.3088 23.5984 30.3088 24.1146V25.6751C30.3088 25.8473 30.4487 25.9872 30.6209 25.9872ZM31.2451 23.8025C31.4171 23.8025 31.5572 23.9426 31.5572 24.1146V24.7388H30.933V24.1146C30.933 23.9426 31.0732 23.8025 31.2451 23.8025Z" fill="#C9E8EE"/>
<path d="M30.933 25.363V24.363H29.933V25.363H30.933ZM31.5572 25.363H32.5572V24.363H31.5572V25.363ZM31.5572 24.7388V25.7388H32.5572V24.7388H31.5572ZM30.933 24.7388H29.933V25.7388H30.933V24.7388ZM30.6209 26.9872C31.3455 26.9872 31.933 26.3996 31.933 25.6751H29.933C29.933 25.2951 30.2409 24.9872 30.6209 24.9872V26.9872ZM31.933 25.6751V25.363H29.933V25.6751H31.933ZM30.933 26.363H31.5572V24.363H30.933V26.363ZM30.5572 25.363V25.6751H32.5572V25.363H30.5572ZM30.5572 25.6751C30.5572 26.3996 31.1448 26.9872 31.8693 26.9872V24.9872C32.2493 24.9872 32.5572 25.2951 32.5572 25.6751H30.5572ZM31.8693 26.9872C32.5939 26.9872 33.1814 26.3996 33.1814 25.6751H31.1814C31.1814 25.2951 31.4893 24.9872 31.8693 24.9872V26.9872ZM33.1814 25.6751V24.1146H31.1814V25.6751H33.1814ZM33.1814 24.1146C33.1814 23.0461 32.3136 22.1783 31.2451 22.1783V24.1783C31.2264 24.1783 31.2094 24.1696 31.1998 24.16C31.1901 24.1503 31.1814 24.1333 31.1814 24.1146H33.1814ZM31.2451 22.1783C30.1766 22.1783 29.3088 23.0461 29.3088 24.1146H31.3088C31.3088 24.1333 31.3001 24.1503 31.2905 24.16C31.2809 24.1696 31.2638 24.1783 31.2451 24.1783V22.1783ZM29.3088 24.1146V25.6751H31.3088V24.1146H29.3088ZM29.3088 25.6751C29.3088 26.3996 29.8964 26.9872 30.6209 26.9872V24.9872C31.0009 24.9872 31.3088 25.2951 31.3088 25.6751H29.3088ZM31.2451 24.8025C30.8648 24.8025 30.5572 24.4949 30.5572 24.1146H32.5572C32.5572 23.3903 31.9694 22.8025 31.2451 22.8025V24.8025ZM30.5572 24.1146V24.7388H32.5572V24.1146H30.5572ZM31.5572 23.7388H30.933V25.7388H31.5572V23.7388ZM31.933 24.7388V24.1146H29.933V24.7388H31.933ZM31.933 24.1146C31.933 24.4949 31.6255 24.8025 31.2451 24.8025V22.8025C30.5209 22.8025 29.933 23.3903 29.933 24.1146H31.933Z" fill="#EEF8F9" mask="url(#path-8-inside-1_80_853)"/>
<mask id="path-10-inside-2_80_853" fill="white">
<path d="M33.1178 25.9872H33.5859C34.3602 25.9872 34.9904 25.357 34.9904 24.5827C34.9904 23.8084 34.3602 23.1783 33.5859 23.1783H33.1178C32.9455 23.1783 32.8057 23.3181 32.8057 23.4904V25.6751C32.8057 25.8473 32.9455 25.9872 33.1178 25.9872ZM33.4299 23.8025H33.5859C34.016 23.8025 34.3662 24.1527 34.3662 24.5827C34.3662 25.0128 34.016 25.363 33.5859 25.363H33.4299V23.8025Z"/>
</mask>
<path d="M33.1178 25.9872H33.5859C34.3602 25.9872 34.9904 25.357 34.9904 24.5827C34.9904 23.8084 34.3602 23.1783 33.5859 23.1783H33.1178C32.9455 23.1783 32.8057 23.3181 32.8057 23.4904V25.6751C32.8057 25.8473 32.9455 25.9872 33.1178 25.9872ZM33.4299 23.8025H33.5859C34.016 23.8025 34.3662 24.1527 34.3662 24.5827C34.3662 25.0128 34.016 25.363 33.5859 25.363H33.4299V23.8025Z" fill="#C9E8EE"/>
<path d="M33.4299 23.8025V22.8025H32.4299V23.8025H33.4299ZM33.4299 25.363H32.4299V26.363H33.4299V25.363ZM33.1178 26.9872H33.5859V24.9872H33.1178V26.9872ZM33.5859 26.9872C34.9125 26.9872 35.9904 25.9093 35.9904 24.5827H33.9904C33.9904 24.8048 33.8079 24.9872 33.5859 24.9872V26.9872ZM35.9904 24.5827C35.9904 23.2561 34.9125 22.1783 33.5859 22.1783V24.1783C33.8079 24.1783 33.9904 24.3607 33.9904 24.5827H35.9904ZM33.5859 22.1783H33.1178V24.1783H33.5859V22.1783ZM33.1178 22.1783C32.3932 22.1783 31.8057 22.7658 31.8057 23.4904H33.8057C33.8057 23.8704 33.4978 24.1783 33.1178 24.1783V22.1783ZM31.8057 23.4904V25.6751H33.8057V23.4904H31.8057ZM31.8057 25.6751C31.8057 26.3996 32.3932 26.9872 33.1178 26.9872V24.9872C33.4978 24.9872 33.8057 25.2951 33.8057 25.6751H31.8057ZM33.4299 24.8025H33.5859V22.8025H33.4299V24.8025ZM33.5859 24.8025C33.4637 24.8025 33.3662 24.7049 33.3662 24.5827H35.3662C35.3662 23.6004 34.5683 22.8025 33.5859 22.8025V24.8025ZM33.3662 24.5827C33.3662 24.4605 33.4637 24.363 33.5859 24.363V26.363C34.5683 26.363 35.3662 25.5651 35.3662 24.5827H33.3662ZM33.5859 24.363H33.4299V26.363H33.5859V24.363ZM34.4299 25.363V23.8025H32.4299V25.363H34.4299Z" fill="#EEF8F9" mask="url(#path-10-inside-2_80_853)"/>
<mask id="path-12-inside-3_80_853" fill="white">
<path d="M37.4871 22.5541H44.3533C44.5256 22.5541 44.6654 22.4142 44.6654 22.242C44.6654 22.0697 44.5256 21.9299 44.3533 21.9299H37.4871C37.3149 21.9299 37.175 22.0697 37.175 22.242C37.175 22.4142 37.3149 22.5541 37.4871 22.5541Z"/>
</mask>
<path d="M37.4871 22.5541H44.3533C44.5256 22.5541 44.6654 22.4142 44.6654 22.242C44.6654 22.0697 44.5256 21.9299 44.3533 21.9299H37.4871C37.3149 21.9299 37.175 22.0697 37.175 22.242C37.175 22.4142 37.3149 22.5541 37.4871 22.5541Z" fill="#C9E8EE"/>
<path d="M37.4871 23.5541H44.3533V21.5541H37.4871V23.5541ZM44.3533 23.5541C45.0779 23.5541 45.6654 22.9665 45.6654 22.242H43.6654C43.6654 21.862 43.9733 21.5541 44.3533 21.5541V23.5541ZM45.6654 22.242C45.6654 21.5174 45.0779 20.9299 44.3533 20.9299V22.9299C43.9733 22.9299 43.6654 22.622 43.6654 22.242H45.6654ZM44.3533 20.9299H37.4871V22.9299H44.3533V20.9299ZM37.4871 20.9299C36.7626 20.9299 36.175 21.5174 36.175 22.242H38.175C38.175 22.622 37.8672 22.9299 37.4871 22.9299V20.9299ZM36.175 22.242C36.175 22.9665 36.7626 23.5541 37.4871 23.5541V21.5541C37.8672 21.5541 38.175 21.862 38.175 22.242H36.175Z" fill="#EEF8F9" mask="url(#path-12-inside-3_80_853)"/>
<mask id="path-14-inside-4_80_853" fill="white">
<path d="M37.4871 24.1146H44.3533C44.5256 24.1146 44.6654 23.9747 44.6654 23.8025C44.6654 23.6302 44.5256 23.4904 44.3533 23.4904H37.4871C37.3149 23.4904 37.175 23.6302 37.175 23.8025C37.175 23.9747 37.3149 24.1146 37.4871 24.1146Z"/>
</mask>
<path d="M37.4871 24.1146H44.3533C44.5256 24.1146 44.6654 23.9747 44.6654 23.8025C44.6654 23.6302 44.5256 23.4904 44.3533 23.4904H37.4871C37.3149 23.4904 37.175 23.6302 37.175 23.8025C37.175 23.9747 37.3149 24.1146 37.4871 24.1146Z" fill="#C9E8EE"/>
<path d="M37.4871 25.1146H44.3533V23.1146H37.4871V25.1146ZM44.3533 25.1146C45.0779 25.1146 45.6654 24.527 45.6654 23.8025H43.6654C43.6654 23.4224 43.9733 23.1146 44.3533 23.1146V25.1146ZM45.6654 23.8025C45.6654 23.0779 45.0779 22.4904 44.3533 22.4904V24.4904C43.9733 24.4904 43.6654 24.1825 43.6654 23.8025H45.6654ZM44.3533 22.4904H37.4871V24.4904H44.3533V22.4904ZM37.4871 22.4904C36.7626 22.4904 36.175 23.0779 36.175 23.8025H38.175C38.175 24.1825 37.8672 24.4904 37.4871 24.4904V22.4904ZM36.175 23.8025C36.175 24.527 36.7626 25.1146 37.4871 25.1146V23.1146C37.8672 23.1146 38.175 23.4224 38.175 23.8025H36.175Z" fill="#EEF8F9" mask="url(#path-14-inside-4_80_853)"/>
<mask id="path-16-inside-5_80_853" fill="white">
<path d="M37.4871 25.675H41.5444C41.7167 25.675 41.8565 25.5352 41.8565 25.3629C41.8565 25.1907 41.7167 25.0508 41.5444 25.0508H37.4871C37.3149 25.0508 37.175 25.1907 37.175 25.3629C37.175 25.5352 37.3149 25.675 37.4871 25.675Z"/>
</mask>
<path d="M37.4871 25.675H41.5444C41.7167 25.675 41.8565 25.5352 41.8565 25.3629C41.8565 25.1907 41.7167 25.0508 41.5444 25.0508H37.4871C37.3149 25.0508 37.175 25.1907 37.175 25.3629C37.175 25.5352 37.3149 25.675 37.4871 25.675Z" fill="#C9E8EE"/>
<path d="M37.4871 26.675H41.5444V24.675H37.4871V26.675ZM41.5444 26.675C42.269 26.675 42.8565 26.0875 42.8565 25.3629H40.8565C40.8565 24.9829 41.1644 24.675 41.5444 24.675V26.675ZM42.8565 25.3629C42.8565 24.6384 42.269 24.0508 41.5444 24.0508V26.0508C41.1644 26.0508 40.8565 25.7429 40.8565 25.3629H42.8565ZM41.5444 24.0508H37.4871V26.0508H41.5444V24.0508ZM37.4871 24.0508C36.7626 24.0508 36.175 24.6384 36.175 25.3629H38.175C38.175 25.7429 37.8672 26.0508 37.4871 26.0508V24.0508ZM36.175 25.3629C36.175 26.0875 36.7626 26.675 37.4871 26.675V24.675C37.8672 24.675 38.175 24.9829 38.175 25.3629H36.175Z" fill="#EEF8F9" mask="url(#path-16-inside-5_80_853)"/>
<path d="M14.9004 49.8793L12.5469 56.3588H11.585L14.2949 49.2494H14.915L14.9004 49.8793ZM16.873 56.3588L14.5146 49.8793L14.5 49.2494H15.1201L17.8398 56.3588H16.873ZM16.751 53.7269V54.4984H12.7568V53.7269H16.751ZM20.7158 56.3588H19.2314L19.2412 55.5922H20.7158C21.2236 55.5922 21.6468 55.4864 21.9854 55.2748C22.3239 55.0599 22.5778 54.7605 22.7471 54.3763C22.9196 53.989 23.0059 53.5365 23.0059 53.0189V52.5844C23.0059 52.1774 22.957 51.8161 22.8594 51.5004C22.7617 51.1814 22.6185 50.9128 22.4297 50.6947C22.2409 50.4733 22.0098 50.3057 21.7363 50.1918C21.4661 50.0778 21.1553 50.0209 20.8037 50.0209H19.2021V49.2494H20.8037C21.2692 49.2494 21.694 49.3275 22.0781 49.4838C22.4622 49.6368 22.7926 49.8597 23.0693 50.1527C23.3493 50.4424 23.5641 50.794 23.7139 51.2074C23.8636 51.6176 23.9385 52.0798 23.9385 52.5941V53.0189C23.9385 53.5332 23.8636 53.9971 23.7139 54.4105C23.5641 54.8207 23.3477 55.1706 23.0645 55.4603C22.7845 55.75 22.446 55.973 22.0488 56.1293C21.6549 56.2823 21.2106 56.3588 20.7158 56.3588ZM19.7344 49.2494V56.3588H18.792V49.2494H19.7344ZM27.542 55.2797L29.6367 49.2494H30.6572L28.0254 56.3588H27.2979L27.542 55.2797ZM25.584 49.2494L27.6592 55.2797L27.918 56.3588H27.1904L24.5635 49.2494H25.584ZM36.1309 55.5922V56.3588H32.3662V55.5922H36.1309ZM32.5566 49.2494V56.3588H31.6143V49.2494H32.5566ZM35.6328 52.306V53.0726H32.3662V52.306H35.6328ZM36.082 49.2494V50.0209H32.3662V49.2494H36.082ZM37.2979 49.2494H39.6514C40.1852 49.2494 40.6361 49.3308 41.0039 49.4935C41.375 49.6563 41.6566 49.8972 41.8486 50.2162C42.0439 50.5319 42.1416 50.9209 42.1416 51.3832C42.1416 51.7087 42.0749 52.0066 41.9414 52.2767C41.8112 52.5437 41.6224 52.7715 41.375 52.9603C41.1309 53.1459 40.8379 53.2842 40.4961 53.3754L40.2324 53.4779H38.0205L38.0107 52.7113H39.6807C40.0192 52.7113 40.3008 52.6527 40.5254 52.5355C40.75 52.4151 40.9193 52.2539 41.0332 52.0521C41.1471 51.8503 41.2041 51.6273 41.2041 51.3832C41.2041 51.1097 41.1504 50.8705 41.043 50.6654C40.9355 50.4603 40.7663 50.3024 40.5352 50.1918C40.3073 50.0778 40.0127 50.0209 39.6514 50.0209H38.2402V56.3588H37.2979V49.2494ZM41.4531 56.3588L39.7246 53.1361L40.7061 53.1312L42.459 56.3002V56.3588H41.4531ZM45.6963 49.2494V56.3588H44.7686V49.2494H45.6963ZM47.9814 49.2494V50.0209H42.4883V49.2494H47.9814ZM50.0469 49.2494V56.3588H49.1045V49.2494H50.0469ZM55.5498 54.5619C55.5498 54.3959 55.5238 54.2494 55.4717 54.1224C55.4229 53.9922 55.335 53.875 55.208 53.7709C55.0843 53.6667 54.9118 53.5674 54.6904 53.473C54.4723 53.3786 54.1956 53.2826 53.8604 53.1849C53.5088 53.0808 53.1914 52.9652 52.9082 52.8383C52.625 52.708 52.3825 52.5599 52.1807 52.3939C51.9788 52.2279 51.8242 52.0375 51.7168 51.8226C51.6094 51.6078 51.5557 51.362 51.5557 51.0853C51.5557 50.8086 51.6126 50.5531 51.7266 50.3187C51.8405 50.0844 52.0033 49.8809 52.2148 49.7084C52.4297 49.5326 52.6852 49.3959 52.9814 49.2982C53.2777 49.2006 53.6081 49.1517 53.9727 49.1517C54.5065 49.1517 54.959 49.2543 55.3301 49.4594C55.7044 49.6612 55.9893 49.9265 56.1846 50.2552C56.3799 50.5808 56.4775 50.9291 56.4775 51.3002H55.54C55.54 51.0332 55.4831 50.7972 55.3691 50.5922C55.2552 50.3838 55.0827 50.2211 54.8516 50.1039C54.6204 49.9834 54.3275 49.9232 53.9727 49.9232C53.6374 49.9232 53.3607 49.9737 53.1426 50.0746C52.9245 50.1755 52.7617 50.3122 52.6543 50.4847C52.5501 50.6573 52.498 50.8542 52.498 51.0756C52.498 51.2253 52.529 51.362 52.5908 51.4857C52.6559 51.6062 52.7552 51.7185 52.8887 51.8226C53.0254 51.9268 53.1979 52.0228 53.4062 52.1107C53.6178 52.1986 53.8701 52.2832 54.1631 52.3646C54.5667 52.4786 54.915 52.6055 55.208 52.7455C55.501 52.8855 55.7419 53.0433 55.9307 53.2191C56.1227 53.3916 56.2643 53.5886 56.3555 53.8099C56.4499 54.028 56.4971 54.2754 56.4971 54.5521C56.4971 54.8418 56.4385 55.1039 56.3213 55.3383C56.2041 55.5726 56.0365 55.7728 55.8184 55.9388C55.6003 56.1049 55.3382 56.2334 55.0322 56.3246C54.7295 56.4125 54.391 56.4564 54.0166 56.4564C53.6878 56.4564 53.3639 56.4108 53.0449 56.3197C52.7292 56.2286 52.4411 56.0918 52.1807 55.9095C51.9235 55.7273 51.7168 55.5026 51.5605 55.2357C51.4076 54.9655 51.3311 54.653 51.3311 54.2982H52.2686C52.2686 54.5424 52.3158 54.7523 52.4102 54.9281C52.5046 55.1006 52.6331 55.2439 52.7959 55.3578C52.9619 55.4717 53.1491 55.5564 53.3574 55.6117C53.569 55.6638 53.7887 55.6898 54.0166 55.6898C54.3454 55.6898 54.6237 55.6442 54.8516 55.5531C55.0794 55.462 55.252 55.3317 55.3691 55.1625C55.4896 54.9932 55.5498 54.793 55.5498 54.5619ZM62.2148 55.5922V56.3588H58.4502V55.5922H62.2148ZM58.6406 49.2494V56.3588H57.6982V49.2494H58.6406ZM61.7168 52.306V53.0726H58.4502V52.306H61.7168ZM62.166 49.2494V50.0209H58.4502V49.2494H62.166Z" fill="#223354"/>
</svg>
