<svg width="74" height="66" viewBox="0 0 74 66" fill="none" xmlns="http://www.w3.org/2000/svg">
<path d="M16.6759 23.4836L16.6761 23.4833L24.6607 9.65499C24.6609 9.65479 24.661 9.65458 24.6611 9.65438C25.5633 8.10279 27.2213 7.14117 29.0146 7.14117H44.9854C46.7794 7.14117 48.4372 8.09505 49.3475 9.6547C49.3477 9.65502 49.3479 9.65534 49.348 9.65566L57.3238 23.4831L57.3241 23.4836C58.2253 25.0417 58.2253 26.9583 57.3241 28.5164L57.3239 28.5167L49.3393 42.345C49.3391 42.3453 49.3389 42.3456 49.3387 42.346C48.4364 43.8973 46.7785 44.8588 44.9854 44.8588H29.0146C27.2199 44.8588 25.5628 43.9044 24.6613 42.3459L16.6761 28.5167L16.6759 28.5164C15.7747 26.9583 15.7747 25.0417 16.6759 23.4836Z" fill="#764CB2" stroke="#EEF8F9"/>
<mask id="mask0_80_849" style="mask-type:luminance" maskUnits="userSpaceOnUse" x="26" y="16" width="21" height="20">
<path d="M46 35.5V16.5H27V35.5H46Z" fill="white" stroke="white"/>
</mask>
<g mask="url(#mask0_80_849)">
<path d="M35.3187 22.2549L35.3959 22.1774L35.3959 22.1774L35.3959 22.1774M35.3187 22.2549L35.3959 22.1774M35.3187 22.2549C35.3186 22.2548 35.3185 22.2547 35.3185 22.2547C35.276 22.2113 35.2769 22.1423 35.3189 22.1004C35.3621 22.0572 35.431 22.0578 35.4732 22.0999L35.3959 22.1774M35.3187 22.2549L35.3959 22.1774M35.3966 22.1781L35.3966 22.1781L35.3966 22.1781L35.3192 22.2554C35.3192 22.2554 35.3193 22.2555 35.3194 22.2556C35.3627 22.298 35.4317 22.2971 35.4737 22.2551C35.5168 22.212 35.5162 22.143 35.4741 22.1008L35.3966 22.1781Z" fill="#C9E8EE" stroke="#C9E8EE"/>
<path d="M35.6724 25.7684C36.1302 26.2262 36.1302 26.968 35.6724 27.4258C35.215 27.8832 34.4728 27.8832 34.0154 27.4258L31.2533 24.6637C30.7955 24.2059 30.7955 23.4641 31.2533 23.0063C31.4818 22.7774 31.7818 22.6629 32.0818 22.6629C32.3818 22.6629 32.6818 22.7774 32.9103 23.0063" stroke="#C9E8EE" stroke-miterlimit="10" stroke-linecap="round" stroke-linejoin="round"/>
<path d="M36.7713 19.1328C36.3198 18.6746 36.3221 17.9371 36.7776 17.482C37.0061 17.2531 37.3061 17.1386 37.6061 17.1386C37.9061 17.1386 38.2061 17.2531 38.4346 17.482L41.1967 20.2441C41.6545 20.7019 41.6545 21.4437 41.1967 21.9015C40.7397 22.3586 39.9979 22.359 39.5405 21.9019" stroke="#C9E8EE" stroke-miterlimit="10" stroke-linecap="round" stroke-linejoin="round"/>
<path d="M37.33 24.6637L35.9487 26.0446L35.6726 25.7684L32.9104 23.0063L32.6343 22.7301L36.5015 18.8629L36.7714 19.1328L37.6062 19.968L39.5405 21.902L39.8159 22.1778L38.4394 23.5543" stroke="#C9E8EE" stroke-miterlimit="10" stroke-linecap="round" stroke-linejoin="round"/>
<path d="M39.5601 24.6387L39.5621 24.6403L45.6515 29.661C46.2621 30.2711 46.2621 31.2602 45.6515 31.8703C45.0414 32.4809 44.0523 32.4809 43.4421 31.8703L38.405 25.7969" stroke="#C9E8EE" stroke-miterlimit="10" stroke-linecap="round" stroke-linejoin="round"/>
<path d="M39.562 24.6402C39.555 24.6484 39.5476 24.6558 39.5397 24.6636L38.4347 25.7683C38.4249 25.7781 38.4147 25.7875 38.4046 25.7964C38.0979 26.073 37.6253 26.0636 37.33 25.7683C37.1772 25.6156 37.1011 25.416 37.1011 25.216C37.1011 25.016 37.1772 24.8164 37.33 24.6636L38.4347 23.5586C38.4362 23.557 38.4378 23.5554 38.4394 23.5543C38.7448 23.2535 39.2362 23.255 39.5397 23.5586C39.6921 23.7109 39.7687 23.9109 39.7687 24.1109C39.7687 24.3007 39.6995 24.491 39.562 24.6402Z" stroke="#C9E8EE" stroke-miterlimit="10" stroke-linecap="round" stroke-linejoin="round"/>
<path d="M35.4858 32.9141C35.9171 32.9141 36.2671 33.2637 36.2671 33.6953V34.8672H26.8921V33.6953C26.8921 33.2637 27.2417 32.9141 27.6733 32.9141" stroke="#C9E8EE" stroke-miterlimit="10" stroke-linecap="round" stroke-linejoin="round"/>
<path d="M35.4858 32.9141H27.6733V32.5234C27.6733 31.6605 28.3726 30.9609 29.2358 30.9609H33.9233C34.7862 30.9609 35.4858 31.6605 35.4858 32.5234V32.9141Z" stroke="#C9E8EE" stroke-miterlimit="10" stroke-linecap="round" stroke-linejoin="round"/>
<path d="M26.8921 26.2734H28.689" stroke="#C9E8EE" stroke-miterlimit="10" stroke-linecap="round" stroke-linejoin="round"/>
<path d="M28.1362 23.3774L29.2413 24.4821" stroke="#C9E8EE" stroke-miterlimit="10" stroke-linecap="round" stroke-linejoin="round"/>
<path d="M28.1362 29.1696L29.2413 28.0649" stroke="#C9E8EE" stroke-miterlimit="10" stroke-linecap="round" stroke-linejoin="round"/>
<path d="M36.5015 21.0726L37.6062 19.9679" stroke="#C9E8EE" stroke-miterlimit="10" stroke-linecap="round" stroke-linejoin="round"/>
</g>
<path d="M19.4561 49.8793L17.1025 56.3588H16.1406L18.8506 49.2495H19.4707L19.4561 49.8793ZM21.4287 56.3588L19.0703 49.8793L19.0557 49.2495H19.6758L22.3955 56.3588H21.4287ZM21.3066 53.727V54.4985H17.3125V53.727H21.3066ZM27.3271 49.2495H28.2646V54.059C28.2646 54.5929 28.1458 55.0372 27.9082 55.392C27.6706 55.7468 27.3548 56.0138 26.9609 56.1928C26.5703 56.3686 26.1455 56.4565 25.6865 56.4565C25.2048 56.4565 24.7686 56.3686 24.3779 56.1928C23.9906 56.0138 23.6829 55.7468 23.4551 55.392C23.2305 55.0372 23.1182 54.5929 23.1182 54.059V49.2495H24.0508V54.059C24.0508 54.4301 24.1191 54.7361 24.2559 54.977C24.3926 55.2179 24.583 55.3969 24.8271 55.5141C25.0745 55.6313 25.361 55.6899 25.6865 55.6899C26.0153 55.6899 26.3018 55.6313 26.5459 55.5141C26.7933 55.3969 26.9854 55.2179 27.1221 54.977C27.2588 54.7361 27.3271 54.4301 27.3271 54.059V49.2495ZM34.0361 54.0981H34.9736C34.9248 54.5473 34.7962 54.9493 34.5879 55.3041C34.3796 55.659 34.085 55.9405 33.7041 56.1489C33.3232 56.3539 32.848 56.4565 32.2783 56.4565C31.8617 56.4565 31.4824 56.3784 31.1406 56.2221C30.8021 56.0659 30.5107 55.8445 30.2666 55.558C30.0225 55.2683 29.8337 54.9217 29.7002 54.518C29.57 54.1111 29.5049 53.6586 29.5049 53.1606V52.4526C29.5049 51.9545 29.57 51.5037 29.7002 51.1C29.8337 50.6931 30.0241 50.3448 30.2715 50.0551C30.5221 49.7654 30.8232 49.5424 31.1748 49.3862C31.5264 49.2299 31.9219 49.1518 32.3613 49.1518C32.8984 49.1518 33.3525 49.2527 33.7236 49.4545C34.0947 49.6564 34.3828 49.9363 34.5879 50.2944C34.7962 50.6492 34.9248 51.061 34.9736 51.5297H34.0361C33.9906 51.1977 33.9059 50.9129 33.7822 50.6752C33.6585 50.4343 33.4827 50.2488 33.2549 50.1186C33.027 49.9884 32.7292 49.9233 32.3613 49.9233C32.0456 49.9233 31.7673 49.9835 31.5264 50.1039C31.2887 50.2244 31.0885 50.3953 30.9258 50.6166C30.7663 50.838 30.6458 51.1033 30.5645 51.4125C30.4831 51.7218 30.4424 52.0652 30.4424 52.4428V53.1606C30.4424 53.5089 30.4782 53.836 30.5498 54.142C30.6247 54.448 30.737 54.7166 30.8867 54.9477C31.0365 55.1788 31.2269 55.3611 31.458 55.4946C31.6891 55.6248 31.9626 55.6899 32.2783 55.6899C32.6787 55.6899 32.9977 55.6264 33.2354 55.4995C33.473 55.3725 33.652 55.1902 33.7725 54.9526C33.8962 54.7149 33.984 54.4301 34.0361 54.0981ZM38.7383 49.2495V56.3588H37.8105V49.2495H38.7383ZM41.0234 49.2495V50.0209H35.5303V49.2495H41.0234ZM43.0889 49.2495V56.3588H42.1465V49.2495H43.0889ZM50.2764 52.5795V53.0287C50.2764 53.5626 50.2096 54.0411 50.0762 54.4643C49.9427 54.8875 49.7507 55.2472 49.5 55.5434C49.2493 55.8396 48.9482 56.0659 48.5967 56.2221C48.2484 56.3784 47.8577 56.4565 47.4248 56.4565C47.0049 56.4565 46.6191 56.3784 46.2676 56.2221C45.9193 56.0659 45.6165 55.8396 45.3594 55.5434C45.1055 55.2472 44.9085 54.8875 44.7686 54.4643C44.6286 54.0411 44.5586 53.5626 44.5586 53.0287V52.5795C44.5586 52.0457 44.627 51.5688 44.7637 51.1489C44.9036 50.7257 45.1006 50.366 45.3545 50.0698C45.6084 49.7703 45.9095 49.5424 46.2578 49.3862C46.6094 49.2299 46.9951 49.1518 47.415 49.1518C47.848 49.1518 48.2386 49.2299 48.5869 49.3862C48.9385 49.5424 49.2396 49.7703 49.4902 50.0698C49.7441 50.366 49.9378 50.7257 50.0713 51.1489C50.208 51.5688 50.2764 52.0457 50.2764 52.5795ZM49.3438 53.0287V52.5698C49.3438 52.1466 49.2998 51.7722 49.2119 51.4467C49.1273 51.1212 49.002 50.8478 48.8359 50.6264C48.6699 50.405 48.4665 50.2374 48.2256 50.1235C47.988 50.0095 47.7178 49.9526 47.415 49.9526C47.1221 49.9526 46.8568 50.0095 46.6191 50.1235C46.3848 50.2374 46.1829 50.405 46.0137 50.6264C45.8477 50.8478 45.7191 51.1212 45.6279 51.4467C45.5368 51.7722 45.4912 52.1466 45.4912 52.5698V53.0287C45.4912 53.4552 45.5368 53.8328 45.6279 54.1616C45.7191 54.4871 45.8493 54.7621 46.0186 54.9868C46.1911 55.2081 46.3945 55.3758 46.6289 55.4897C46.8665 55.6036 47.1318 55.6606 47.4248 55.6606C47.7308 55.6606 48.0026 55.6036 48.2402 55.4897C48.4779 55.3758 48.6781 55.2081 48.8408 54.9868C49.0068 54.7621 49.1322 54.4871 49.2168 54.1616C49.3014 53.8328 49.3438 53.4552 49.3438 53.0287ZM57.1562 49.2495V56.3588H56.209L52.6299 50.8754V56.3588H51.6875V49.2495H52.6299L56.2236 54.7475V49.2495H57.1562Z" fill="#223354"/>
</svg>
