<svg width="74" height="66" viewBox="0 0 74 66" fill="none" xmlns="http://www.w3.org/2000/svg">
<path d="M16.6759 23.4836L16.6761 23.4833L24.6607 9.65499C24.6609 9.65479 24.661 9.65458 24.6611 9.65438C25.5633 8.10279 27.2213 7.14117 29.0146 7.14117H44.9854C46.7794 7.14117 48.4372 8.09505 49.3475 9.6547C49.3477 9.65502 49.3479 9.65534 49.348 9.65566L57.3238 23.4831L57.3241 23.4836C58.2253 25.0417 58.2253 26.9583 57.3241 28.5164L57.3239 28.5167L49.3393 42.345C49.3391 42.3453 49.3389 42.3456 49.3387 42.346C48.4364 43.8973 46.7785 44.8588 44.9854 44.8588H29.0146C27.2199 44.8588 25.5628 43.9044 24.6613 42.3459L16.6761 28.5167L16.6759 28.5164C15.7747 26.9583 15.7747 25.0417 16.6759 23.4836Z" fill="#764CB2" stroke="#EEF8F9"/>
<mask id="path-2-inside-1_80_848" fill="white">
<path d="M43.4554 21.0339C44.1357 21.0339 44.6871 20.4825 44.6873 19.8022C44.6873 19.122 44.1358 18.5705 43.4556 18.5705C42.7753 18.5705 42.2239 19.122 42.2239 19.8022C42.2247 20.4822 42.7756 21.0331 43.4554 21.0339ZM43.4554 19.1355C43.8237 19.1355 44.1221 19.4339 44.1223 19.8022C44.1223 20.1703 43.8237 20.4689 43.4556 20.4689C43.0873 20.4689 42.7889 20.1705 42.7889 19.8022C42.7892 19.4343 43.0875 19.136 43.4554 19.1355Z"/>
</mask>
<path d="M43.4554 21.0339C44.1357 21.0339 44.6871 20.4825 44.6873 19.8022C44.6873 19.122 44.1358 18.5705 43.4556 18.5705C42.7753 18.5705 42.2239 19.122 42.2239 19.8022C42.2247 20.4822 42.7756 21.0331 43.4554 21.0339ZM43.4554 19.1355C43.8237 19.1355 44.1221 19.4339 44.1223 19.8022C44.1223 20.1703 43.8237 20.4689 43.4556 20.4689C43.0873 20.4689 42.7889 20.1705 42.7889 19.8022C42.7892 19.4343 43.0875 19.136 43.4554 19.1355Z" fill="#EEF2F9"/>
<path d="M43.4554 21.0339L43.4543 22.0339H43.4554V21.0339ZM44.6873 19.8022L45.6873 19.8024V19.8022H44.6873ZM42.2239 19.8022H41.2239L41.2239 19.8034L42.2239 19.8022ZM43.4554 19.1355V18.1355L43.4541 18.1355L43.4554 19.1355ZM44.1223 19.8022H45.1223L45.1223 19.8018L44.1223 19.8022ZM42.7889 19.8022L41.7889 19.8014V19.8022H42.7889ZM43.4554 22.0339C44.688 22.0339 45.687 21.0348 45.6873 19.8024L43.6873 19.802C43.6873 19.9302 43.5834 20.0339 43.4554 20.0339V22.0339ZM45.6873 19.8022C45.6873 18.5697 44.6881 17.5705 43.4556 17.5705V19.5705C43.5836 19.5705 43.6873 19.6742 43.6873 19.8022H45.6873ZM43.4556 17.5705C42.223 17.5705 41.2239 18.5697 41.2239 19.8022H43.2239C43.2239 19.6742 43.3276 19.5705 43.4556 19.5705V17.5705ZM41.2239 19.8034C41.2253 21.0346 42.223 22.0325 43.4543 22.0339L43.4566 20.0339C43.3283 20.0338 43.224 19.9297 43.2239 19.8011L41.2239 19.8034ZM43.4554 20.1355C43.2713 20.1355 43.1224 19.9862 43.1223 19.8026L45.1223 19.8018C45.1219 18.8816 44.3761 18.1355 43.4554 18.1355V20.1355ZM43.1223 19.8022C43.1223 19.618 43.2714 19.4689 43.4556 19.4689V21.4689C44.376 21.4689 45.1223 20.7226 45.1223 19.8022H43.1223ZM43.4556 19.4689C43.6396 19.4689 43.7889 19.6182 43.7889 19.8022H41.7889C41.7889 20.7228 42.535 21.4689 43.4556 21.4689V19.4689ZM43.7889 19.8031C43.7887 19.9868 43.64 20.1353 43.4567 20.1355L43.4541 18.1355C42.535 18.1367 41.7897 18.8817 41.7889 19.8014L43.7889 19.8031Z" fill="#EEF8F9" mask="url(#path-2-inside-1_80_848)"/>
<path d="M44.3736 20.8348C44.2825 20.8383 44.1983 20.8842 44.1459 20.9588C44.0947 21.03 44.0329 21.0932 43.9629 21.1462C43.7804 21.2819 43.5511 21.339 43.3262 21.3048C43.1006 21.2682 42.8988 21.1434 42.7653 20.9576C42.7128 20.8832 42.6286 20.8378 42.5376 20.8348M44.3736 20.8348V20.8922L44.3067 20.8771L44.2013 20.9976L44.2008 20.9982L44.1107 21.1012C44.0786 21.1378 44.0433 21.1716 44.0053 21.2022C44.0051 21.2023 44.005 21.2024 44.0048 21.2025C44.003 21.204 44.0012 21.2054 43.9994 21.2068C43.7956 21.3543 43.5494 21.4069 43.3163 21.3699C43.3161 21.3699 43.3158 21.3698 43.3156 21.3698C43.1197 21.3386 42.933 21.244 42.7885 21.0893L42.7057 21.0005L42.7052 21L42.5932 20.8801L42.5376 20.8925V20.8348M44.3736 20.8348C45.0001 20.8348 45.4909 21.3625 45.4909 21.9891V23.1958L45.4258 21.9926C45.4259 21.9915 45.4259 21.9903 45.4259 21.9891C45.4303 21.4892 45.0856 21.0532 44.5972 20.9427L44.3758 20.8927L44.3736 20.8348ZM42.5376 20.8348L42.5357 20.8929L41.4797 23.3739C41.4361 23.3252 41.4126 23.2615 41.4147 23.1958V21.9891C41.4147 21.3625 41.9111 20.8348 42.5376 20.8348ZM44.4781 21.3444C44.4653 21.3593 44.4522 21.3739 44.4387 21.3882C44.3852 21.4453 44.327 21.4977 44.2646 21.5449L44.2613 21.5475L44.2612 21.5474C44.2605 21.548 44.2598 21.5485 44.259 21.5491L44.3008 21.6059M44.4781 21.3444L41.9147 21.9891C41.9147 21.6706 42.1315 21.414 42.4051 21.3501C42.4146 21.3479 42.4242 21.3459 42.4339 21.3442C42.446 21.3582 42.4584 21.372 42.4711 21.3855C42.6756 21.6038 42.9477 21.75 43.2462 21.7983L43.2461 21.7984L43.251 21.7991C43.6063 21.8531 43.9684 21.7636 44.2575 21.5502L44.3008 21.6059M44.4781 21.3444C44.4872 21.3461 44.4962 21.3479 44.5051 21.35C44.776 21.4133 44.9909 21.6678 44.9909 21.9891L44.4781 21.3444ZM44.3008 21.6059C43.7208 22.0319 42.9139 21.9564 42.423 21.4304L41.9797 22.3931V22.8931H42.4797H44.4258H44.9258V22.3931V21.9891C44.9303 21.7224 44.7471 21.4892 44.4869 21.4304C44.4307 21.4948 44.3682 21.5536 44.3008 21.6059Z" fill="#EEF2F9" stroke="#EEF8F9"/>
<mask id="path-5-inside-2_80_848" fill="white">
<path d="M43.4751 17C41.9662 16.9992 40.584 17.843 39.8947 19.1852C39.2056 20.5274 39.3256 22.1424 40.2056 23.3681L37.4999 24.2213L34.7941 23.3681C35.8376 21.9109 35.7913 19.9392 34.6806 18.5327C33.57 17.126 31.6628 16.6238 30.0033 17.3008C28.3439 17.9779 27.3326 19.6711 27.5229 21.4531C27.7133 23.2352 29.0596 24.6766 30.8247 24.9878L29.9647 25.8474C28.9466 26.8655 28.9985 28.5756 30.08 29.6591C31.2587 30.84 32.5293 32.1129 33.5884 33.1718C33.491 33.5514 33.5996 33.9544 33.8749 34.2336L33.8888 34.2475C34.0969 34.4543 34.3789 34.5695 34.6723 34.5676C34.7667 34.5675 34.8608 34.5561 34.9526 34.5334L35.059 34.6395C35.2277 34.8082 35.4416 34.9242 35.6749 34.9736C35.8767 35.1495 36.1359 35.2457 36.4037 35.2436C36.4173 35.2436 36.431 35.2433 36.4447 35.2429C36.7548 35.231 37.0487 35.1016 37.2667 34.8809L37.4999 34.6477L37.7332 34.8809C37.9512 35.1016 38.2451 35.231 38.555 35.2427C38.5687 35.2432 38.5823 35.2435 38.596 35.2435C38.8637 35.2457 39.1229 35.1497 39.3245 34.9739C39.5578 34.9238 39.7716 34.8076 39.9408 34.6394L40.0478 34.5326C40.4276 34.6301 40.8307 34.5219 41.1108 34.2475L41.125 34.2333C41.3993 33.9536 41.5076 33.5513 41.4108 33.1718C42.4778 32.1052 43.7275 30.8536 44.9198 29.6589C46.0013 28.5752 46.0531 26.8652 45.035 25.8473L44.1751 24.9878C46.23 24.6249 47.6667 22.7518 47.4844 20.6731C47.3023 18.5945 45.5617 16.9998 43.4751 17ZM28.0654 21.0243C28.0652 19.1138 29.6141 17.5649 31.5247 17.5649C33.4352 17.5649 34.9841 19.1138 34.9841 21.0243C34.9841 22.9349 33.4352 24.4836 31.5247 24.4836C29.615 24.4816 28.0674 22.9339 28.0654 21.0243ZM36.8671 34.4814C36.8649 34.4836 36.8623 34.4857 36.86 34.4879C36.9267 34.3849 36.9754 34.2713 37.0041 34.1518L37.1004 34.2481L36.8671 34.4814ZM40.7257 33.8338L40.7113 33.848C40.4898 34.0695 40.1101 34.0502 39.8651 33.8051L35.7806 29.7206L35.3811 30.12L38.9378 33.6769C39.1826 33.9219 39.2017 34.3014 38.9832 34.52L38.9789 34.5241C38.8716 34.6299 38.7248 34.6857 38.5744 34.6782C38.4075 34.6711 38.2495 34.6008 38.1327 34.4813L34.5761 30.9248L34.1766 31.3243L36.273 33.4209C36.3924 33.5377 36.4627 33.6957 36.4698 33.8626C36.4774 34.0132 36.4216 34.16 36.3156 34.2673L36.3024 34.2806C36.0815 34.5014 35.7025 34.4828 35.4575 34.2389C34.3128 33.0998 32.288 31.0715 30.4799 29.2599C29.6182 28.3966 29.5662 27.0449 30.3642 26.2469L31.5628 25.0483C32.6325 25.0387 33.6539 24.6023 34.4003 23.8363L36.5604 24.5175L35.3637 24.8949C35.2368 24.935 35.1552 25.0581 35.1675 25.1905L35.1979 25.5167C35.2135 25.9307 35.3995 26.3199 35.712 26.592C36.0323 26.8687 36.4532 26.9997 36.874 26.954L37.0435 26.9374L40.9519 30.8512C41.1967 31.0964 41.2157 31.4758 40.9943 31.6972C40.9935 31.698 40.9929 31.6987 40.9921 31.6995C40.8849 31.8039 40.7391 31.8589 40.5896 31.8513C40.4315 31.8447 40.2811 31.781 40.1664 31.6721L38.8907 30.3969C37.9184 29.425 37.0786 28.5858 36.9979 28.5043L36.597 28.9024C36.6785 28.9845 37.5185 29.8243 38.4912 30.7965L39.7487 32.0535L39.7484 32.0538C39.7565 32.0618 39.7645 32.0699 39.7729 32.0777C40.1121 32.4168 40.4265 32.731 40.6828 32.9877C40.928 33.233 40.947 33.6123 40.7257 33.8338ZM44.5198 29.2599C43.374 30.4079 42.1754 31.6086 41.137 32.6468C41.1195 32.627 41.1015 32.6073 41.0825 32.5884C41.0183 32.524 40.9505 32.4564 40.8794 32.3853C41.0743 32.3385 41.2522 32.2387 41.3937 32.0968C41.3948 32.0957 41.3959 32.0948 41.397 32.0937C41.8352 31.6518 41.8154 30.9163 41.3516 30.4521L37.8992 26.9946L38.127 26.7665C38.2112 26.6822 38.2334 26.5539 38.1825 26.446C38.1314 26.3382 38.0182 26.274 37.8995 26.2857L36.8188 26.3916C36.5527 26.4219 36.286 26.3399 36.0826 26.1657C35.8859 25.9933 35.7698 25.7469 35.7619 25.4853C35.7619 25.4806 35.7615 25.4759 35.761 25.4711L35.7512 25.3652L40.5994 23.8363C41.3457 24.6023 42.3671 25.0385 43.4366 25.0483L44.6352 26.2469C45.4334 27.0449 45.3815 28.3966 44.5198 29.2599ZM43.4751 24.4836C41.5645 24.4836 40.0158 22.9349 40.0158 21.0243C40.0158 19.1138 41.5645 17.565 43.4751 17.565C45.3856 17.565 46.9344 19.1138 46.9344 21.0243C46.9323 22.9339 45.3847 24.4816 43.4751 24.4836Z"/>
</mask>
<path d="M43.4751 17C41.9662 16.9992 40.584 17.843 39.8947 19.1852C39.2056 20.5274 39.3256 22.1424 40.2056 23.3681L37.4999 24.2213L34.7941 23.3681C35.8376 21.9109 35.7913 19.9392 34.6806 18.5327C33.57 17.126 31.6628 16.6238 30.0033 17.3008C28.3439 17.9779 27.3326 19.6711 27.5229 21.4531C27.7133 23.2352 29.0596 24.6766 30.8247 24.9878L29.9647 25.8474C28.9466 26.8655 28.9985 28.5756 30.08 29.6591C31.2587 30.84 32.5293 32.1129 33.5884 33.1718C33.491 33.5514 33.5996 33.9544 33.8749 34.2336L33.8888 34.2475C34.0969 34.4543 34.3789 34.5695 34.6723 34.5676C34.7667 34.5675 34.8608 34.5561 34.9526 34.5334L35.059 34.6395C35.2277 34.8082 35.4416 34.9242 35.6749 34.9736C35.8767 35.1495 36.1359 35.2457 36.4037 35.2436C36.4173 35.2436 36.431 35.2433 36.4447 35.2429C36.7548 35.231 37.0487 35.1016 37.2667 34.8809L37.4999 34.6477L37.7332 34.8809C37.9512 35.1016 38.2451 35.231 38.555 35.2427C38.5687 35.2432 38.5823 35.2435 38.596 35.2435C38.8637 35.2457 39.1229 35.1497 39.3245 34.9739C39.5578 34.9238 39.7716 34.8076 39.9408 34.6394L40.0478 34.5326C40.4276 34.6301 40.8307 34.5219 41.1108 34.2475L41.125 34.2333C41.3993 33.9536 41.5076 33.5513 41.4108 33.1718C42.4778 32.1052 43.7275 30.8536 44.9198 29.6589C46.0013 28.5752 46.0531 26.8652 45.035 25.8473L44.1751 24.9878C46.23 24.6249 47.6667 22.7518 47.4844 20.6731C47.3023 18.5945 45.5617 16.9998 43.4751 17ZM28.0654 21.0243C28.0652 19.1138 29.6141 17.5649 31.5247 17.5649C33.4352 17.5649 34.9841 19.1138 34.9841 21.0243C34.9841 22.9349 33.4352 24.4836 31.5247 24.4836C29.615 24.4816 28.0674 22.9339 28.0654 21.0243ZM36.8671 34.4814C36.8649 34.4836 36.8623 34.4857 36.86 34.4879C36.9267 34.3849 36.9754 34.2713 37.0041 34.1518L37.1004 34.2481L36.8671 34.4814ZM40.7257 33.8338L40.7113 33.848C40.4898 34.0695 40.1101 34.0502 39.8651 33.8051L35.7806 29.7206L35.3811 30.12L38.9378 33.6769C39.1826 33.9219 39.2017 34.3014 38.9832 34.52L38.9789 34.5241C38.8716 34.6299 38.7248 34.6857 38.5744 34.6782C38.4075 34.6711 38.2495 34.6008 38.1327 34.4813L34.5761 30.9248L34.1766 31.3243L36.273 33.4209C36.3924 33.5377 36.4627 33.6957 36.4698 33.8626C36.4774 34.0132 36.4216 34.16 36.3156 34.2673L36.3024 34.2806C36.0815 34.5014 35.7025 34.4828 35.4575 34.2389C34.3128 33.0998 32.288 31.0715 30.4799 29.2599C29.6182 28.3966 29.5662 27.0449 30.3642 26.2469L31.5628 25.0483C32.6325 25.0387 33.6539 24.6023 34.4003 23.8363L36.5604 24.5175L35.3637 24.8949C35.2368 24.935 35.1552 25.0581 35.1675 25.1905L35.1979 25.5167C35.2135 25.9307 35.3995 26.3199 35.712 26.592C36.0323 26.8687 36.4532 26.9997 36.874 26.954L37.0435 26.9374L40.9519 30.8512C41.1967 31.0964 41.2157 31.4758 40.9943 31.6972C40.9935 31.698 40.9929 31.6987 40.9921 31.6995C40.8849 31.8039 40.7391 31.8589 40.5896 31.8513C40.4315 31.8447 40.2811 31.781 40.1664 31.6721L38.8907 30.3969C37.9184 29.425 37.0786 28.5858 36.9979 28.5043L36.597 28.9024C36.6785 28.9845 37.5185 29.8243 38.4912 30.7965L39.7487 32.0535L39.7484 32.0538C39.7565 32.0618 39.7645 32.0699 39.7729 32.0777C40.1121 32.4168 40.4265 32.731 40.6828 32.9877C40.928 33.233 40.947 33.6123 40.7257 33.8338ZM44.5198 29.2599C43.374 30.4079 42.1754 31.6086 41.137 32.6468C41.1195 32.627 41.1015 32.6073 41.0825 32.5884C41.0183 32.524 40.9505 32.4564 40.8794 32.3853C41.0743 32.3385 41.2522 32.2387 41.3937 32.0968C41.3948 32.0957 41.3959 32.0948 41.397 32.0937C41.8352 31.6518 41.8154 30.9163 41.3516 30.4521L37.8992 26.9946L38.127 26.7665C38.2112 26.6822 38.2334 26.5539 38.1825 26.446C38.1314 26.3382 38.0182 26.274 37.8995 26.2857L36.8188 26.3916C36.5527 26.4219 36.286 26.3399 36.0826 26.1657C35.8859 25.9933 35.7698 25.7469 35.7619 25.4853C35.7619 25.4806 35.7615 25.4759 35.761 25.4711L35.7512 25.3652L40.5994 23.8363C41.3457 24.6023 42.3671 25.0385 43.4366 25.0483L44.6352 26.2469C45.4334 27.0449 45.3815 28.3966 44.5198 29.2599ZM43.4751 24.4836C41.5645 24.4836 40.0158 22.9349 40.0158 21.0243C40.0158 19.1138 41.5645 17.565 43.4751 17.565C45.3856 17.565 46.9344 19.1138 46.9344 21.0243C46.9323 22.9339 45.3847 24.4816 43.4751 24.4836Z" fill="#EEF2F9" stroke="#EEF8F9" stroke-width="2" mask="url(#path-5-inside-2_80_848)"/>
<mask id="path-6-inside-3_80_848" fill="white">
<path d="M31.5052 21.0339C32.1854 21.0339 32.7369 20.4825 32.7369 19.8022C32.7369 19.122 32.1854 18.5705 31.5052 18.5705C30.8249 18.5705 30.2734 19.122 30.2734 19.8022C30.2742 20.4822 30.8252 21.0331 31.5052 21.0339ZM31.5052 19.1355C31.8733 19.1355 32.1718 19.4341 32.1718 19.8022C32.1718 20.1705 31.8733 20.4689 31.5052 20.4689C31.1369 20.4689 30.8385 20.1705 30.8385 19.8022C30.8388 19.4343 31.137 19.136 31.5052 19.1355Z"/>
</mask>
<path d="M31.5052 21.0339C32.1854 21.0339 32.7369 20.4825 32.7369 19.8022C32.7369 19.122 32.1854 18.5705 31.5052 18.5705C30.8249 18.5705 30.2734 19.122 30.2734 19.8022C30.2742 20.4822 30.8252 21.0331 31.5052 21.0339ZM31.5052 19.1355C31.8733 19.1355 32.1718 19.4341 32.1718 19.8022C32.1718 20.1705 31.8733 20.4689 31.5052 20.4689C31.1369 20.4689 30.8385 20.1705 30.8385 19.8022C30.8388 19.4343 31.137 19.136 31.5052 19.1355Z" fill="#EEF2F9"/>
<path d="M31.5052 21.0339L31.504 22.0339H31.5052V21.0339ZM30.2734 19.8022H29.2734L29.2734 19.8034L30.2734 19.8022ZM31.5052 19.1355V18.1355L31.5039 18.1355L31.5052 19.1355ZM30.8385 19.8022L29.8385 19.8014V19.8022H30.8385ZM31.5052 22.0339C32.7377 22.0339 33.7369 21.0348 33.7369 19.8022H31.7369C31.7369 19.9302 31.6331 20.0339 31.5052 20.0339V22.0339ZM33.7369 19.8022C33.7369 18.5697 32.7377 17.5705 31.5052 17.5705V19.5705C31.6331 19.5705 31.7369 19.6742 31.7369 19.8022H33.7369ZM31.5052 17.5705C30.2726 17.5705 29.2734 18.5697 29.2734 19.8022H31.2734C31.2734 19.6742 31.3772 19.5705 31.5052 19.5705V17.5705ZM29.2734 19.8034C29.2749 21.0347 30.2727 22.0325 31.504 22.0339L31.5063 20.0339C31.3777 20.0338 31.2736 19.9296 31.2734 19.8011L29.2734 19.8034ZM31.5052 20.1355C31.321 20.1355 31.1718 19.9864 31.1718 19.8022H33.1718C33.1718 18.8818 32.4255 18.1355 31.5052 18.1355V20.1355ZM31.1718 19.8022C31.1718 19.618 31.3211 19.4689 31.5052 19.4689V21.4689C32.4254 21.4689 33.1718 20.7229 33.1718 19.8022H31.1718ZM31.5052 19.4689C31.6892 19.4689 31.8385 19.6182 31.8385 19.8022H29.8385C29.8385 20.7228 30.5846 21.4689 31.5052 21.4689V19.4689ZM31.8385 19.8031C31.8383 19.987 31.6894 20.1353 31.5064 20.1355L31.5039 18.1355C30.5847 18.1367 29.8392 18.8815 29.8385 19.8014L31.8385 19.8031Z" fill="#EEF8F9" mask="url(#path-6-inside-3_80_848)"/>
<mask id="path-8-inside-4_80_848" fill="white">
<path d="M33.5447 23.1958V21.9891C33.5447 21.3625 33.0495 20.8348 32.423 20.8348C32.3319 20.8383 32.2477 20.8842 32.1954 20.9588C32.1441 21.03 32.0823 21.0932 32.0123 21.1462C31.6291 21.4237 31.0936 21.3388 30.8148 20.9564C30.7622 20.8824 30.6778 20.8374 30.587 20.8348C29.9604 20.8348 29.4685 21.3625 29.4685 21.9891V23.1958C29.4654 23.2667 29.4922 23.3358 29.5426 23.3858C29.5931 23.4357 29.6623 23.4621 29.7332 23.4581H33.2767C33.3479 23.4622 33.4176 23.4361 33.4685 23.3861C33.5195 23.3363 33.5472 23.2672 33.5447 23.1958ZM32.9797 22.8931H30.0335V21.9891C30.0301 21.7221 30.214 21.4891 30.4746 21.4304C30.9651 21.9564 31.7718 22.0319 32.3513 21.6059C32.4194 21.5536 32.4823 21.4948 32.539 21.4304C32.7996 21.4891 32.9835 21.7221 32.9797 21.9891V22.8931Z"/>
</mask>
<path d="M33.5447 23.1958V21.9891C33.5447 21.3625 33.0495 20.8348 32.423 20.8348C32.3319 20.8383 32.2477 20.8842 32.1954 20.9588C32.1441 21.03 32.0823 21.0932 32.0123 21.1462C31.6291 21.4237 31.0936 21.3388 30.8148 20.9564C30.7622 20.8824 30.6778 20.8374 30.587 20.8348C29.9604 20.8348 29.4685 21.3625 29.4685 21.9891V23.1958C29.4654 23.2667 29.4922 23.3358 29.5426 23.3858C29.5931 23.4357 29.6623 23.4621 29.7332 23.4581H33.2767C33.3479 23.4622 33.4176 23.4361 33.4685 23.3861C33.5195 23.3363 33.5472 23.2672 33.5447 23.1958ZM32.9797 22.8931H30.0335V21.9891C30.0301 21.7221 30.214 21.4891 30.4746 21.4304C30.9651 21.9564 31.7718 22.0319 32.3513 21.6059C32.4194 21.5536 32.4823 21.4948 32.539 21.4304C32.7996 21.4891 32.9835 21.7221 32.9797 21.9891V22.8931Z" fill="#EEF2F9"/>
<path d="M33.5447 23.1958H32.5447V23.2134L32.5453 23.2311L33.5447 23.1958ZM32.423 20.8348V19.8348H32.404L32.385 19.8356L32.423 20.8348ZM32.1954 20.9588L33.0073 21.5426L33.0139 21.5333L32.1954 20.9588ZM32.0123 21.1462L32.5988 21.9562L32.6073 21.95L32.6158 21.9436L32.0123 21.1462ZM30.8148 20.9564L30.0002 21.5365L30.0067 21.5454L30.8148 20.9564ZM30.587 20.8348L30.6148 19.8352L30.6009 19.8348H30.587V20.8348ZM29.4685 23.1958L30.4675 23.2402L30.4685 23.218V23.1958H29.4685ZM29.5426 23.3858L30.2464 22.6753L30.2464 22.6753L29.5426 23.3858ZM29.7332 23.4581V22.4581H29.7054L29.6777 22.4597L29.7332 23.4581ZM33.2767 23.4581L33.3341 22.4598L33.3054 22.4581H33.2767V23.4581ZM33.4685 23.3861L32.7692 22.6713L32.7681 22.6724L33.4685 23.3861ZM32.9797 22.8931V23.8931H33.9797V22.8931H32.9797ZM30.0335 22.8931H29.0335V23.8931H30.0335V22.8931ZM30.0335 21.9891H31.0336L31.0334 21.9762L30.0335 21.9891ZM30.4746 21.4304L31.206 20.7484L30.8147 20.3289L30.2551 20.4548L30.4746 21.4304ZM32.3513 21.6059L32.9435 22.4117L32.9522 22.4053L32.9606 22.3988L32.3513 21.6059ZM32.539 21.4304L32.7586 20.4548L32.181 20.3248L31.7892 20.7688L32.539 21.4304ZM32.9797 21.9891L31.9798 21.975L31.9797 21.9821V21.9891H32.9797ZM34.5447 23.1958V21.9891H32.5447V23.1958H34.5447ZM34.5447 21.9891C34.5447 20.8478 33.6386 19.8348 32.423 19.8348V21.8348C32.4465 21.8348 32.4717 21.8428 32.4979 21.87C32.5259 21.8992 32.5447 21.9414 32.5447 21.9891H34.5447ZM32.385 19.8356C31.9814 19.8509 31.6086 20.0542 31.3769 20.3842L33.0139 21.5333C32.8869 21.7142 32.6824 21.8257 32.4611 21.8341L32.385 19.8356ZM31.3835 20.375C31.391 20.3645 31.3996 20.3558 31.4089 20.3488L32.6158 21.9436C32.7651 21.8306 32.8973 21.6955 33.0073 21.5425L31.3835 20.375ZM31.4259 20.3362C31.489 20.2905 31.5771 20.3045 31.623 20.3674L30.0067 21.5454C30.61 22.3732 31.7692 22.5568 32.5988 21.9562L31.4259 20.3362ZM31.6294 20.3763C31.3952 20.0475 31.0199 19.8465 30.6148 19.8352L30.5593 21.8345C30.3358 21.8282 30.1292 21.7174 30.0003 21.5365L31.6294 20.3763ZM30.587 19.8348C29.3676 19.8348 28.4685 20.8516 28.4685 21.9891H30.4685C30.4685 21.9394 30.4879 21.897 30.5151 21.8686C30.5401 21.8424 30.5638 21.8348 30.587 21.8348V19.8348ZM28.4685 21.9891V23.1958H30.4685V21.9891H28.4685ZM28.4695 23.1514C28.4539 23.5023 28.5864 23.8461 28.8388 24.0962L30.2464 22.6753C30.3979 22.8255 30.4768 23.0312 30.4675 23.2402L28.4695 23.1514ZM28.8388 24.0962C29.0898 24.3448 29.4347 24.4762 29.7887 24.4566L29.6777 22.4597C29.8898 22.4479 30.0963 22.5267 30.2464 22.6753L28.8388 24.0962ZM29.7332 24.4581H33.2767V22.4581H29.7332V24.4581ZM33.2193 24.4565C33.5719 24.4768 33.9168 24.3473 34.169 24.0998L32.7681 22.6724C32.9184 22.5248 33.124 22.4477 33.3341 22.4598L33.2193 24.4565ZM34.1679 24.1009C34.4193 23.8549 34.5565 23.5138 34.5441 23.1605L32.5453 23.2311C32.5379 23.0207 32.6196 22.8176 32.7692 22.6713L34.1679 24.1009ZM32.9797 21.8931H30.0335V23.8931H32.9797V21.8931ZM31.0335 22.8931V21.9891H29.0335V22.8931H31.0335ZM31.0334 21.9762C31.0361 22.1818 30.8945 22.361 30.6942 22.406L30.2551 20.4548C29.5336 20.6172 29.024 21.2624 29.0336 22.0021L31.0334 21.9762ZM29.7433 22.1125C30.5796 23.0093 31.9552 23.1381 32.9435 22.4117L31.759 20.8002C31.5883 20.9256 31.3505 20.9034 31.206 20.7484L29.7433 22.1125ZM32.9606 22.3988C33.0798 22.3073 33.1897 22.2045 33.2889 22.0921L31.7892 20.7688C31.7749 20.785 31.759 20.7999 31.7419 20.813L32.9606 22.3988ZM32.3195 22.406C32.119 22.3609 31.9769 22.1812 31.9798 21.975L33.9796 22.0033C33.9901 21.263 33.4803 20.6173 32.7586 20.4548L32.3195 22.406ZM31.9797 21.9891V22.8931H33.9797V21.9891H31.9797Z" fill="#EEF8F9" mask="url(#path-8-inside-4_80_848)"/>
<path d="M19.2705 54.0981H20.208C20.1592 54.5473 20.0306 54.9493 19.8223 55.3041C19.6139 55.659 19.3193 55.9405 18.9385 56.1489C18.5576 56.3539 18.0824 56.4565 17.5127 56.4565C17.096 56.4565 16.7168 56.3784 16.375 56.2221C16.0365 56.0659 15.7451 55.8445 15.501 55.558C15.2568 55.2683 15.068 54.9217 14.9346 54.518C14.8044 54.1111 14.7393 53.6586 14.7393 53.1606V52.4526C14.7393 51.9545 14.8044 51.5037 14.9346 51.1C15.068 50.6931 15.2585 50.3448 15.5059 50.0551C15.7565 49.7654 16.0576 49.5424 16.4092 49.3862C16.7607 49.2299 17.1562 49.1518 17.5957 49.1518C18.1328 49.1518 18.5869 49.2527 18.958 49.4545C19.3291 49.6564 19.6172 49.9363 19.8223 50.2944C20.0306 50.6492 20.1592 51.061 20.208 51.5297H19.2705C19.2249 51.1977 19.1403 50.9129 19.0166 50.6752C18.8929 50.4343 18.7171 50.2488 18.4893 50.1186C18.2614 49.9884 17.9635 49.9233 17.5957 49.9233C17.2799 49.9233 17.0016 49.9835 16.7607 50.1039C16.5231 50.2244 16.3229 50.3953 16.1602 50.6166C16.0007 50.838 15.8802 51.1033 15.7988 51.4125C15.7174 51.7218 15.6768 52.0652 15.6768 52.4428V53.1606C15.6768 53.5089 15.7126 53.836 15.7842 54.142C15.859 54.448 15.9714 54.7166 16.1211 54.9477C16.2708 55.1788 16.4613 55.3611 16.6924 55.4946C16.9235 55.6248 17.1969 55.6899 17.5127 55.6899C17.9131 55.6899 18.2321 55.6264 18.4697 55.4995C18.7074 55.3725 18.8864 55.1902 19.0068 54.9526C19.1305 54.7149 19.2184 54.4301 19.2705 54.0981ZM26.9658 52.5795V53.0287C26.9658 53.5626 26.8991 54.0411 26.7656 54.4643C26.6322 54.8875 26.4401 55.2472 26.1895 55.5434C25.9388 55.8396 25.6377 56.0659 25.2861 56.2221C24.9378 56.3784 24.5472 56.4565 24.1143 56.4565C23.6943 56.4565 23.3086 56.3784 22.957 56.2221C22.6087 56.0659 22.306 55.8396 22.0488 55.5434C21.7949 55.2472 21.598 54.8875 21.458 54.4643C21.318 54.0411 21.248 53.5626 21.248 53.0287V52.5795C21.248 52.0457 21.3164 51.5688 21.4531 51.1489C21.5931 50.7257 21.79 50.366 22.0439 50.0698C22.2979 49.7703 22.599 49.5424 22.9473 49.3862C23.2988 49.2299 23.6846 49.1518 24.1045 49.1518C24.5374 49.1518 24.9281 49.2299 25.2764 49.3862C25.6279 49.5424 25.929 49.7703 26.1797 50.0698C26.4336 50.366 26.6273 50.7257 26.7607 51.1489C26.8975 51.5688 26.9658 52.0457 26.9658 52.5795ZM26.0332 53.0287V52.5698C26.0332 52.1466 25.9893 51.7722 25.9014 51.4467C25.8167 51.1212 25.6914 50.8478 25.5254 50.6264C25.3594 50.405 25.1559 50.2374 24.915 50.1235C24.6774 50.0095 24.4072 49.9526 24.1045 49.9526C23.8115 49.9526 23.5462 50.0095 23.3086 50.1235C23.0742 50.2374 22.8724 50.405 22.7031 50.6264C22.5371 50.8478 22.4085 51.1212 22.3174 51.4467C22.2262 51.7722 22.1807 52.1466 22.1807 52.5698V53.0287C22.1807 53.4552 22.2262 53.8328 22.3174 54.1616C22.4085 54.4871 22.5387 54.7621 22.708 54.9868C22.8805 55.2081 23.084 55.3758 23.3184 55.4897C23.556 55.6036 23.8213 55.6606 24.1143 55.6606C24.4202 55.6606 24.6921 55.6036 24.9297 55.4897C25.1673 55.3758 25.3675 55.2081 25.5303 54.9868C25.6963 54.7621 25.8216 54.4871 25.9062 54.1616C25.9909 53.8328 26.0332 53.4552 26.0332 53.0287ZM33.8457 49.2495V56.3588H32.8984L29.3193 50.8754V56.3588H28.377V49.2495H29.3193L32.9131 54.7475V49.2495H33.8457ZM40.9844 49.2495V56.3588H40.0371L36.458 50.8754V56.3588H35.5156V49.2495H36.458L40.0518 54.7475V49.2495H40.9844ZM47.1709 55.5922V56.3588H43.4062V55.5922H47.1709ZM43.5967 49.2495V56.3588H42.6543V49.2495H43.5967ZM46.6729 52.3061V53.0727H43.4062V52.3061H46.6729ZM47.1221 49.2495V50.0209H43.4062V49.2495H47.1221ZM52.6299 54.0981H53.5674C53.5186 54.5473 53.39 54.9493 53.1816 55.3041C52.9733 55.659 52.6787 55.9405 52.2979 56.1489C51.917 56.3539 51.4417 56.4565 50.8721 56.4565C50.4554 56.4565 50.0762 56.3784 49.7344 56.2221C49.3958 56.0659 49.1045 55.8445 48.8604 55.558C48.6162 55.2683 48.4274 54.9217 48.2939 54.518C48.1637 54.1111 48.0986 53.6586 48.0986 53.1606V52.4526C48.0986 51.9545 48.1637 51.5037 48.2939 51.1C48.4274 50.6931 48.6178 50.3448 48.8652 50.0551C49.1159 49.7654 49.417 49.5424 49.7686 49.3862C50.1201 49.2299 50.5156 49.1518 50.9551 49.1518C51.4922 49.1518 51.9463 49.2527 52.3174 49.4545C52.6885 49.6564 52.9766 49.9363 53.1816 50.2944C53.39 50.6492 53.5186 51.061 53.5674 51.5297H52.6299C52.5843 51.1977 52.4997 50.9129 52.376 50.6752C52.2523 50.4343 52.0765 50.2488 51.8486 50.1186C51.6208 49.9884 51.3229 49.9233 50.9551 49.9233C50.6393 49.9233 50.361 49.9835 50.1201 50.1039C49.8825 50.2244 49.6823 50.3953 49.5195 50.6166C49.36 50.838 49.2396 51.1033 49.1582 51.4125C49.0768 51.7218 49.0361 52.0652 49.0361 52.4428V53.1606C49.0361 53.5089 49.0719 53.836 49.1436 54.142C49.2184 54.448 49.3307 54.7166 49.4805 54.9477C49.6302 55.1788 49.8206 55.3611 50.0518 55.4946C50.2829 55.6248 50.5563 55.6899 50.8721 55.6899C51.2725 55.6899 51.5915 55.6264 51.8291 55.4995C52.0667 55.3725 52.2458 55.1902 52.3662 54.9526C52.4899 54.7149 52.5778 54.4301 52.6299 54.0981ZM57.332 49.2495V56.3588H56.4043V49.2495H57.332ZM59.6172 49.2495V50.0209H54.124V49.2495H59.6172Z" fill="#223354"/>
</svg>
