<svg width="74" height="66" viewBox="0 0 74 66" fill="none" xmlns="http://www.w3.org/2000/svg">
<path d="M16.6759 23.4836L16.6761 23.4833L24.6607 9.65499C24.6609 9.65479 24.661 9.65458 24.6611 9.65438C25.5633 8.10279 27.2213 7.14117 29.0146 7.14117H44.9854C46.7794 7.14117 48.4372 8.09505 49.3475 9.6547C49.3477 9.65502 49.3479 9.65534 49.348 9.65566L57.3238 23.4831L57.3241 23.4836C58.2253 25.0417 58.2253 26.9583 57.3241 28.5164L57.3239 28.5167L49.3393 42.345C49.3391 42.3453 49.3389 42.3456 49.3387 42.346C48.4364 43.8973 46.7785 44.8588 44.9854 44.8588H29.0146C27.2199 44.8588 25.5628 43.9044 24.6613 42.3459L16.6761 28.5167L16.6759 28.5164C15.7747 26.9583 15.7747 25.0417 16.6759 23.4836Z" fill="#764CB2" stroke="#EEF8F9"/>
<mask id="path-2-inside-1_80_852" fill="white">
<path fill-rule="evenodd" clip-rule="evenodd" d="M40.9356 20.5888H40.4169V21.6213H41.2944C41.9682 21.6213 41.9682 20.5888 41.2944 20.5888H40.9356ZM32.1759 31.3361C28.4432 31.3361 25.7382 27.7827 26.6932 24.2051C27.687 20.5063 31.9626 18.863 35.1718 20.8699C35.0942 18.7806 36.1607 16.8221 38.0028 15.7605C40.7078 14.1947 44.1787 15.1254 45.7445 17.8304C47.3006 20.5257 46.3747 24.0015 43.6843 25.5673C47.2134 27.8069 47.2085 33.1006 43.4807 35.253C39.8061 37.3714 35.1621 34.8167 34.9827 30.5895C34.1247 31.0791 33.1551 31.3361 32.1759 31.3361ZM35.768 21.2965C37.0042 22.3097 37.7653 23.8512 37.8283 25.4267C39.4377 24.5057 41.4447 24.4427 43.1026 25.2425C45.7348 23.9385 46.7286 20.6566 45.2598 18.1116C43.8491 15.6732 40.7224 14.8346 38.284 16.2452C36.4903 17.2778 35.5111 19.2508 35.768 21.2965ZM35.7389 30.0708L35.5402 30.2259C35.4432 34.1913 39.7625 36.7509 43.1995 34.7682C45.6379 33.3575 46.4765 30.2308 45.0707 27.7924C43.597 25.2425 40.2473 24.4814 37.8186 26.0909C37.7023 27.6664 36.9509 29.0916 35.7389 30.0708ZM32.1614 20.5597C28.2638 20.5597 25.7818 24.8208 27.7451 28.2238C29.3497 31.0064 33.0776 31.593 35.4675 29.5666C37.3193 28.0057 37.8428 25.2862 36.5921 23.1144C35.6808 21.5389 33.9841 20.5597 32.1614 20.5597ZM32.1759 30.1047C30.5907 30.1047 29.117 29.2564 28.3269 27.8894C26.6108 24.908 28.8116 21.2383 32.1614 21.2383C33.7466 21.2383 35.2202 22.0867 36.0104 23.4537C37.7265 26.4302 35.5208 30.1047 32.1759 30.1047ZM32.1614 21.7958C29.2382 21.7958 27.3088 25.005 28.8116 27.6082C29.883 29.46 32.2729 30.0854 34.1053 29.0237C35.9571 27.9572 36.5921 25.5819 35.5256 23.7349C34.8324 22.5375 33.5478 21.7958 32.1614 21.7958ZM43.0541 24.4572C42.802 24.4572 41.0859 23.5313 38.6766 24.3215C38.5215 24.3699 38.3567 24.2778 38.3179 24.1227C38.0222 22.9496 37.3775 21.8589 36.4952 21.0347C36.437 20.9814 36.4079 20.9136 36.4031 20.8408C36.3061 18.3297 38.3421 16.2307 40.829 16.2307C42.4142 16.2307 43.8879 17.0839 44.6781 18.4509C45.8706 20.5209 45.2258 23.1435 43.2044 24.4184C43.1559 24.4427 43.1074 24.4572 43.0541 24.4572ZM40.6448 23.4489C41.4592 23.4489 42.2542 23.5895 43.0201 23.8658C44.6974 22.7266 45.2161 20.4967 44.1933 18.7273C43.1268 16.8851 40.732 16.2501 38.8996 17.3117C37.6829 18.0146 36.946 19.3041 36.9606 20.7051C37.8089 21.5244 38.4439 22.5715 38.7833 23.701C39.3844 23.5313 40.0097 23.4489 40.6448 23.4489ZM40.6545 34.7779C38.3421 34.7779 36.4031 32.9746 36.2237 30.6962C36.2189 30.6041 36.2528 30.5216 36.3207 30.4635C37.455 29.4794 38.2064 28.1172 38.4343 26.6241C38.4488 26.5369 38.5021 26.4641 38.5797 26.4205C40.6642 25.3249 43.3013 26.0763 44.4841 28.1269C46.2051 31.1034 43.9994 34.7779 40.6545 34.7779ZM36.7957 30.7883C37.1108 33.5514 40.194 35.0785 42.5839 33.7017C44.4357 32.6304 45.0707 30.2599 44.0042 28.4081C42.9911 26.658 40.7708 25.9842 38.9626 26.852C38.7009 28.3693 37.9349 29.7557 36.7957 30.7883ZM32.1662 28.9413C32.0741 28.9413 31.9868 28.8928 31.9335 28.8153L29.7666 25.5237L29.723 25.3686L29.7909 25.1892L31.9529 22.5036C32.0547 22.3727 32.2777 22.3727 32.3844 22.5036L34.5561 25.1989C34.6288 25.2958 34.6337 25.4316 34.561 25.5334L32.4037 28.8153C32.3504 28.8928 32.2632 28.9413 32.1662 28.9413ZM30.8283 26.12L32.1662 28.156L33.509 26.12C33.2812 26.2363 32.428 26.7114 32.2583 26.7647C32.1856 26.7889 32.108 26.7841 32.0402 26.7502L30.8283 26.12ZM30.4356 25.2813L32.1662 26.183L33.9017 25.2813L32.1662 23.1241L30.4356 25.2813ZM40.6496 32.6595C40.3006 32.6595 40.3733 32.228 40.3733 31.9953C40.1358 31.9953 39.685 32.068 39.685 31.7142C39.685 31.559 39.811 31.433 39.9661 31.433H41.0568V30.6234H39.9661C39.811 30.6234 39.685 30.4974 39.685 30.3471C39.685 28.5923 39.5347 28.6941 40.3733 28.6941C40.3733 28.4614 40.3006 28.0299 40.6496 28.0299C40.9987 28.0299 40.9308 28.4614 40.9308 28.6941C41.1635 28.6941 41.6143 28.6214 41.6143 28.9752C41.6143 29.1304 41.4931 29.2564 41.338 29.2564H40.2473V30.066H41.338C41.4931 30.066 41.6143 30.192 41.6143 30.3471C41.6143 32.0971 41.7694 31.9953 40.9308 31.9953C40.9308 32.228 40.9987 32.6595 40.6496 32.6595ZM40.1358 22.1788C39.8352 22.1788 39.302 22.2758 39.302 21.9025C39.302 21.5874 39.6413 21.6213 39.8595 21.6213V18.9987C39.6413 18.9987 39.302 19.0278 39.302 18.7176C39.302 18.3443 39.8352 18.4364 40.1358 18.4364H40.257C40.257 18.2231 40.223 17.8838 40.5333 17.8838C40.8484 17.8838 40.8145 18.2231 40.8145 18.4364H40.9356C41.8276 18.4364 42.3075 19.4641 41.7985 20.1525C42.7535 20.6663 42.4239 22.1788 41.2944 22.1788H40.8145C40.8145 22.4066 40.8726 22.809 40.5333 22.809C40.1988 22.809 40.257 22.4066 40.257 22.1788H40.1358ZM40.4169 20.0313H40.9453C41.6095 20.0216 41.6046 18.9987 40.9356 18.9987H40.4169V20.0313Z"/>
</mask>
<path fill-rule="evenodd" clip-rule="evenodd" d="M40.9356 20.5888H40.4169V21.6213H41.2944C41.9682 21.6213 41.9682 20.5888 41.2944 20.5888H40.9356ZM32.1759 31.3361C28.4432 31.3361 25.7382 27.7827 26.6932 24.2051C27.687 20.5063 31.9626 18.863 35.1718 20.8699C35.0942 18.7806 36.1607 16.8221 38.0028 15.7605C40.7078 14.1947 44.1787 15.1254 45.7445 17.8304C47.3006 20.5257 46.3747 24.0015 43.6843 25.5673C47.2134 27.8069 47.2085 33.1006 43.4807 35.253C39.8061 37.3714 35.1621 34.8167 34.9827 30.5895C34.1247 31.0791 33.1551 31.3361 32.1759 31.3361ZM35.768 21.2965C37.0042 22.3097 37.7653 23.8512 37.8283 25.4267C39.4377 24.5057 41.4447 24.4427 43.1026 25.2425C45.7348 23.9385 46.7286 20.6566 45.2598 18.1116C43.8491 15.6732 40.7224 14.8346 38.284 16.2452C36.4903 17.2778 35.5111 19.2508 35.768 21.2965ZM35.7389 30.0708L35.5402 30.2259C35.4432 34.1913 39.7625 36.7509 43.1995 34.7682C45.6379 33.3575 46.4765 30.2308 45.0707 27.7924C43.597 25.2425 40.2473 24.4814 37.8186 26.0909C37.7023 27.6664 36.9509 29.0916 35.7389 30.0708ZM32.1614 20.5597C28.2638 20.5597 25.7818 24.8208 27.7451 28.2238C29.3497 31.0064 33.0776 31.593 35.4675 29.5666C37.3193 28.0057 37.8428 25.2862 36.5921 23.1144C35.6808 21.5389 33.9841 20.5597 32.1614 20.5597ZM32.1759 30.1047C30.5907 30.1047 29.117 29.2564 28.3269 27.8894C26.6108 24.908 28.8116 21.2383 32.1614 21.2383C33.7466 21.2383 35.2202 22.0867 36.0104 23.4537C37.7265 26.4302 35.5208 30.1047 32.1759 30.1047ZM32.1614 21.7958C29.2382 21.7958 27.3088 25.005 28.8116 27.6082C29.883 29.46 32.2729 30.0854 34.1053 29.0237C35.9571 27.9572 36.5921 25.5819 35.5256 23.7349C34.8324 22.5375 33.5478 21.7958 32.1614 21.7958ZM43.0541 24.4572C42.802 24.4572 41.0859 23.5313 38.6766 24.3215C38.5215 24.3699 38.3567 24.2778 38.3179 24.1227C38.0222 22.9496 37.3775 21.8589 36.4952 21.0347C36.437 20.9814 36.4079 20.9136 36.4031 20.8408C36.3061 18.3297 38.3421 16.2307 40.829 16.2307C42.4142 16.2307 43.8879 17.0839 44.6781 18.4509C45.8706 20.5209 45.2258 23.1435 43.2044 24.4184C43.1559 24.4427 43.1074 24.4572 43.0541 24.4572ZM40.6448 23.4489C41.4592 23.4489 42.2542 23.5895 43.0201 23.8658C44.6974 22.7266 45.2161 20.4967 44.1933 18.7273C43.1268 16.8851 40.732 16.2501 38.8996 17.3117C37.6829 18.0146 36.946 19.3041 36.9606 20.7051C37.8089 21.5244 38.4439 22.5715 38.7833 23.701C39.3844 23.5313 40.0097 23.4489 40.6448 23.4489ZM40.6545 34.7779C38.3421 34.7779 36.4031 32.9746 36.2237 30.6962C36.2189 30.6041 36.2528 30.5216 36.3207 30.4635C37.455 29.4794 38.2064 28.1172 38.4343 26.6241C38.4488 26.5369 38.5021 26.4641 38.5797 26.4205C40.6642 25.3249 43.3013 26.0763 44.4841 28.1269C46.2051 31.1034 43.9994 34.7779 40.6545 34.7779ZM36.7957 30.7883C37.1108 33.5514 40.194 35.0785 42.5839 33.7017C44.4357 32.6304 45.0707 30.2599 44.0042 28.4081C42.9911 26.658 40.7708 25.9842 38.9626 26.852C38.7009 28.3693 37.9349 29.7557 36.7957 30.7883ZM32.1662 28.9413C32.0741 28.9413 31.9868 28.8928 31.9335 28.8153L29.7666 25.5237L29.723 25.3686L29.7909 25.1892L31.9529 22.5036C32.0547 22.3727 32.2777 22.3727 32.3844 22.5036L34.5561 25.1989C34.6288 25.2958 34.6337 25.4316 34.561 25.5334L32.4037 28.8153C32.3504 28.8928 32.2632 28.9413 32.1662 28.9413ZM30.8283 26.12L32.1662 28.156L33.509 26.12C33.2812 26.2363 32.428 26.7114 32.2583 26.7647C32.1856 26.7889 32.108 26.7841 32.0402 26.7502L30.8283 26.12ZM30.4356 25.2813L32.1662 26.183L33.9017 25.2813L32.1662 23.1241L30.4356 25.2813ZM40.6496 32.6595C40.3006 32.6595 40.3733 32.228 40.3733 31.9953C40.1358 31.9953 39.685 32.068 39.685 31.7142C39.685 31.559 39.811 31.433 39.9661 31.433H41.0568V30.6234H39.9661C39.811 30.6234 39.685 30.4974 39.685 30.3471C39.685 28.5923 39.5347 28.6941 40.3733 28.6941C40.3733 28.4614 40.3006 28.0299 40.6496 28.0299C40.9987 28.0299 40.9308 28.4614 40.9308 28.6941C41.1635 28.6941 41.6143 28.6214 41.6143 28.9752C41.6143 29.1304 41.4931 29.2564 41.338 29.2564H40.2473V30.066H41.338C41.4931 30.066 41.6143 30.192 41.6143 30.3471C41.6143 32.0971 41.7694 31.9953 40.9308 31.9953C40.9308 32.228 40.9987 32.6595 40.6496 32.6595ZM40.1358 22.1788C39.8352 22.1788 39.302 22.2758 39.302 21.9025C39.302 21.5874 39.6413 21.6213 39.8595 21.6213V18.9987C39.6413 18.9987 39.302 19.0278 39.302 18.7176C39.302 18.3443 39.8352 18.4364 40.1358 18.4364H40.257C40.257 18.2231 40.223 17.8838 40.5333 17.8838C40.8484 17.8838 40.8145 18.2231 40.8145 18.4364H40.9356C41.8276 18.4364 42.3075 19.4641 41.7985 20.1525C42.7535 20.6663 42.4239 22.1788 41.2944 22.1788H40.8145C40.8145 22.4066 40.8726 22.809 40.5333 22.809C40.1988 22.809 40.257 22.4066 40.257 22.1788H40.1358ZM40.4169 20.0313H40.9453C41.6095 20.0216 41.6046 18.9987 40.9356 18.9987H40.4169V20.0313Z" fill="#C9E8EE" stroke="#EEF8F9" stroke-width="2" mask="url(#path-2-inside-1_80_852)"/>
<path d="M23.3818 54.098H24.3193C24.2705 54.5472 24.1419 54.9493 23.9336 55.3041C23.7253 55.6589 23.4307 55.9405 23.0498 56.1488C22.6689 56.3539 22.1937 56.4564 21.624 56.4564C21.2074 56.4564 20.8281 56.3783 20.4863 56.222C20.1478 56.0658 19.8564 55.8444 19.6123 55.558C19.3682 55.2683 19.1794 54.9216 19.0459 54.5179C18.9157 54.111 18.8506 53.6586 18.8506 53.1605V52.4525C18.8506 51.9545 18.9157 51.5036 19.0459 51.1C19.1794 50.6931 19.3698 50.3448 19.6172 50.0551C19.8678 49.7653 20.1689 49.5424 20.5205 49.3861C20.8721 49.2299 21.2676 49.1517 21.707 49.1517C22.2441 49.1517 22.6982 49.2526 23.0693 49.4545C23.4404 49.6563 23.7285 49.9362 23.9336 50.2943C24.1419 50.6491 24.2705 51.0609 24.3193 51.5297H23.3818C23.3363 51.1976 23.2516 50.9128 23.1279 50.6752C23.0042 50.4343 22.8285 50.2487 22.6006 50.1185C22.3727 49.9883 22.0749 49.9232 21.707 49.9232C21.3913 49.9232 21.113 49.9834 20.8721 50.1039C20.6344 50.2243 20.4342 50.3952 20.2715 50.6166C20.112 50.8379 19.9915 51.1032 19.9102 51.4125C19.8288 51.7217 19.7881 52.0651 19.7881 52.4427V53.1605C19.7881 53.5088 19.8239 53.836 19.8955 54.142C19.9704 54.448 20.0827 54.7165 20.2324 54.9476C20.3822 55.1788 20.5726 55.361 20.8037 55.4945C21.0348 55.6247 21.3083 55.6898 21.624 55.6898C22.0244 55.6898 22.3434 55.6263 22.5811 55.4994C22.8187 55.3724 22.9977 55.1901 23.1182 54.9525C23.2419 54.7149 23.3298 54.4301 23.3818 54.098ZM25.6035 49.2494H27.957C28.4909 49.2494 28.9417 49.3308 29.3096 49.4935C29.6807 49.6563 29.9622 49.8972 30.1543 50.2162C30.3496 50.5319 30.4473 50.9209 30.4473 51.3832C30.4473 51.7087 30.3805 52.0066 30.2471 52.2767C30.1169 52.5437 29.9281 52.7715 29.6807 52.9603C29.4365 53.1459 29.1436 53.2842 28.8018 53.3754L28.5381 53.4779H26.3262L26.3164 52.7113H27.9863C28.3249 52.7113 28.6064 52.6527 28.8311 52.5355C29.0557 52.4151 29.2249 52.2539 29.3389 52.0521C29.4528 51.8503 29.5098 51.6273 29.5098 51.3832C29.5098 51.1097 29.4561 50.8705 29.3486 50.6654C29.2412 50.4603 29.0719 50.3024 28.8408 50.1918C28.613 50.0778 28.3184 50.0209 27.957 50.0209H26.5459V56.3588H25.6035V49.2494ZM29.7588 56.3588L28.0303 53.1361L29.0117 53.1312L30.7646 56.3002V56.3588H29.7588ZM31.8584 49.2494L33.7041 52.8187L35.5547 49.2494H36.624L34.1729 53.7025V56.3588H33.2305V53.7025L30.7793 49.2494H31.8584ZM40.1592 53.5707H38.2598V52.8041H40.1592C40.527 52.8041 40.8249 52.7455 41.0527 52.6283C41.2806 52.5111 41.4466 52.3483 41.5508 52.14C41.6582 51.9317 41.7119 51.6941 41.7119 51.4271C41.7119 51.183 41.6582 50.9535 41.5508 50.7386C41.4466 50.5238 41.2806 50.3513 41.0527 50.2211C40.8249 50.0876 40.527 50.0209 40.1592 50.0209H38.4795V56.3588H37.5371V49.2494H40.1592C40.6963 49.2494 41.1504 49.3422 41.5215 49.5277C41.8926 49.7133 42.1742 49.9704 42.3662 50.2992C42.5583 50.6247 42.6543 50.9974 42.6543 51.4174C42.6543 51.8731 42.5583 52.2621 42.3662 52.5844C42.1742 52.9066 41.8926 53.1524 41.5215 53.3217C41.1504 53.4877 40.6963 53.5707 40.1592 53.5707ZM46.4727 49.2494V56.3588H45.5449V49.2494H46.4727ZM48.7578 49.2494V50.0209H43.2646V49.2494H48.7578ZM55.1494 52.5795V53.0287C55.1494 53.5625 55.0827 54.0411 54.9492 54.4642C54.8158 54.8874 54.6237 55.2471 54.373 55.5433C54.1224 55.8396 53.8213 56.0658 53.4697 56.222C53.1214 56.3783 52.7308 56.4564 52.2979 56.4564C51.8779 56.4564 51.4922 56.3783 51.1406 56.222C50.7923 56.0658 50.4896 55.8396 50.2324 55.5433C49.9785 55.2471 49.7816 54.8874 49.6416 54.4642C49.5016 54.0411 49.4316 53.5625 49.4316 53.0287V52.5795C49.4316 52.0456 49.5 51.5687 49.6367 51.1488C49.7767 50.7256 49.9736 50.3659 50.2275 50.0697C50.4814 49.7702 50.7826 49.5424 51.1309 49.3861C51.4824 49.2299 51.8682 49.1517 52.2881 49.1517C52.721 49.1517 53.1117 49.2299 53.46 49.3861C53.8115 49.5424 54.1126 49.7702 54.3633 50.0697C54.6172 50.3659 54.8109 50.7256 54.9443 51.1488C55.0811 51.5687 55.1494 52.0456 55.1494 52.5795ZM54.2168 53.0287V52.5697C54.2168 52.1465 54.1729 51.7722 54.085 51.4467C54.0003 51.1211 53.875 50.8477 53.709 50.6263C53.543 50.405 53.3395 50.2373 53.0986 50.1234C52.861 50.0095 52.5908 49.9525 52.2881 49.9525C51.9951 49.9525 51.7298 50.0095 51.4922 50.1234C51.2578 50.2373 51.056 50.405 50.8867 50.6263C50.7207 50.8477 50.5921 51.1211 50.501 51.4467C50.4098 51.7722 50.3643 52.1465 50.3643 52.5697V53.0287C50.3643 53.4551 50.4098 53.8327 50.501 54.1615C50.5921 54.487 50.7223 54.7621 50.8916 54.9867C51.0641 55.208 51.2676 55.3757 51.502 55.4896C51.7396 55.6036 52.0049 55.6605 52.2979 55.6605C52.6038 55.6605 52.8757 55.6036 53.1133 55.4896C53.3509 55.3757 53.5511 55.208 53.7139 54.9867C53.8799 54.7621 54.0052 54.487 54.0898 54.1615C54.1745 53.8327 54.2168 53.4551 54.2168 53.0287Z" fill="#223354"/>
</svg>
