<svg width="74" height="66" viewBox="0 0 74 66" fill="none" xmlns="http://www.w3.org/2000/svg">
<path d="M16.6759 23.4836L16.6761 23.4833L24.6607 9.65499C24.6609 9.65479 24.661 9.65458 24.6611 9.65438C25.5633 8.10279 27.2213 7.14117 29.0146 7.14117H44.9854C46.7794 7.14117 48.4372 8.09505 49.3475 9.6547C49.3477 9.65502 49.3479 9.65534 49.348 9.65566L57.3238 23.4831L57.3241 23.4836C58.2253 25.0417 58.2253 26.9583 57.3241 28.5164L57.3239 28.5167L49.3393 42.345C49.3391 42.3453 49.3389 42.3456 49.3387 42.346C48.4364 43.8973 46.7785 44.8588 44.9854 44.8588H29.0146C27.2199 44.8588 25.5628 43.9044 24.6613 42.3459L16.6761 28.5167L16.6759 28.5164C15.7747 26.9583 15.7747 25.0417 16.6759 23.4836Z" fill="#764CB2" stroke="#EEF8F9"/>
<mask id="path-2-inside-1_80_854" fill="white">
<path fill-rule="evenodd" clip-rule="evenodd" d="M43.175 30.7091C43.1163 31.0074 42.8431 31.3124 42.3555 31.4046V31.4664C42.3555 31.6337 42.2201 31.7695 42.0542 31.7695C41.8857 31.7695 41.7504 31.6337 41.7504 31.4664V31.4103C41.5231 31.3789 41.2985 31.3127 41.0917 31.216C40.9385 31.1452 40.8721 30.965 40.9436 30.8131C41.015 30.6617 41.1938 30.5958 41.3469 30.6665C41.5767 30.773 41.8269 30.8297 42.0746 30.8261C42.4479 30.8195 42.8248 30.5728 42.3733 30.39C42.0987 30.2789 41.8755 30.3948 41.4746 30.2136C40.644 29.8382 40.779 28.86 41.7504 28.6603V28.5936C41.7504 28.4264 41.8857 28.2906 42.0542 28.2906C42.2201 28.2906 42.3555 28.4264 42.3555 28.5936V28.648C42.6056 28.6828 42.838 28.7591 43.0167 28.8464C43.1673 28.9197 43.2286 29.1009 43.1571 29.2513C43.0831 29.4019 42.9018 29.4645 42.7512 29.3909C42.4703 29.2541 42.0261 29.1673 41.7197 29.3008C41.4705 29.4097 41.4766 29.5499 41.7248 29.6613C42.0014 29.7855 42.2199 29.6596 42.6414 29.8451C43.1214 30.0563 43.2312 30.4301 43.175 30.7091ZM42.0542 32.4437C43.3844 32.4437 44.4669 31.3609 44.4669 30.0297C44.4669 28.6991 43.3844 27.6163 42.0542 27.6163C40.7214 27.6163 39.6389 28.6991 39.6389 30.0297C39.6389 31.3609 40.7214 32.4437 42.0542 32.4437ZM42.0542 27.0102C40.3895 27.0102 39.0338 28.3649 39.0338 30.0297C39.0338 31.6949 40.3895 33.0496 42.0542 33.0496C43.7188 33.0496 45.072 31.6949 45.072 30.0297C45.072 28.3649 43.7188 27.0102 42.0542 27.0102ZM46.8923 30.5023V29.5574L46.0192 29.273C45.9196 29.2411 45.843 29.1609 45.8175 29.0601C45.7281 28.7072 45.5877 28.3684 45.4013 28.0539C45.3477 27.9645 45.3451 27.8542 45.3911 27.7621L45.8098 26.9412L45.1409 26.2733L44.3213 26.6915C44.2294 26.7385 44.1196 26.7352 44.0302 26.6823C43.7136 26.4954 43.3766 26.3555 43.0218 26.2649C42.9222 26.2391 42.8431 26.1635 42.8098 26.065L42.5265 25.1895H41.5818L41.2958 26.065C41.2652 26.1636 41.1835 26.2391 41.0839 26.2649C40.7316 26.3555 40.392 26.4959 40.0779 26.6823C40.0218 26.715 39.958 26.7288 39.8941 26.7229C39.8099 26.9828 39.6082 27.2057 39.3631 27.3124L38.6431 27.6234C38.7127 27.7584 38.8027 27.8904 38.7069 28.0539C38.518 28.3684 38.3776 28.7075 38.2882 29.0601C38.2627 29.1609 38.1861 29.2411 38.0891 29.273L37.2134 29.5574V30.5023L38.0891 30.7868C38.1861 30.8187 38.2627 30.8991 38.2882 30.9997C38.3776 31.3528 38.5206 31.6913 38.7044 32.0061C38.758 32.0955 38.7606 32.2052 38.7146 32.2977L38.2959 33.1183L38.9648 33.7864L39.7844 33.3685C39.8789 33.3215 39.9886 33.3248 40.078 33.3777C40.392 33.5638 40.7316 33.7045 41.0839 33.7951C41.1835 33.8209 41.2652 33.8965 41.2959 33.995L41.5818 34.87H42.5265L42.8099 33.9945C42.8431 33.8959 42.9222 33.8209 43.0218 33.7951C43.3767 33.7039 43.7137 33.5638 44.0303 33.3777C44.1196 33.3248 44.2294 33.3215 44.3214 33.3685L45.1409 33.7864L45.8098 33.1183L45.3911 32.2977C45.3452 32.2052 45.3477 32.0955 45.4013 32.0061C45.5877 31.691 45.7281 31.3525 45.8175 30.9997C45.8456 30.8991 45.9196 30.8187 46.0192 30.7868L46.8923 30.5023ZM36.0441 28.0881C35.4007 28.3669 34.9259 28.8941 34.6756 29.6123L34.2876 30.7313C34.2442 30.8552 34.285 30.9925 34.3897 31.0719L34.954 31.5031C35.4595 31.8876 35.5642 32.6158 35.1837 33.1259L33.9608 34.7783C33.8076 34.9845 33.5268 35.0349 33.32 34.8921C33.1183 34.7512 33.0723 34.4668 33.2153 34.2574L33.9608 33.1772C34.245 32.7661 34.0958 32.1995 33.6442 31.9859L33.1234 31.7385C32.7659 31.5698 32.3498 31.6522 32.0842 31.9435L28.898 35.44C28.7304 35.6231 28.4392 35.6386 28.2546 35.4699C28.0707 35.3011 28.058 35.0129 28.2265 34.828C28.4971 34.5311 28.972 33.9888 29.5209 33.3615C30.0877 32.7135 30.7285 31.9793 31.377 31.2506C31.3974 31.2284 31.4127 31.2034 31.4255 31.1766C31.686 30.6157 31.8748 30.1691 32.0255 29.8099C32.3345 29.0715 32.4774 28.734 32.771 28.4917C33.0825 28.2344 33.6135 28.0409 34.6705 27.655L38.7811 26.1434C38.8168 26.1303 38.8525 26.1211 38.896 26.1211C38.9955 26.1211 39.1232 26.174 39.3146 26.3591C39.3789 26.4401 39.2984 26.6808 39.1231 26.7561L36.0441 28.0881ZM32.9701 25.9029C32.8856 26.4829 33.2848 27.0216 33.8663 27.1059C34.4459 27.1902 34.9871 26.7868 35.0714 26.2075C35.1531 25.6287 34.7523 25.089 34.1727 25.0045C33.5929 24.9216 33.0555 25.3162 32.9701 25.9029ZM38.4875 18.5478C38.6253 18.4085 38.8526 18.4085 38.993 18.5478L43.3844 22.9407V25.7382C43.369 25.7328 43.3537 25.7277 43.3358 25.7229L43.0346 24.793C42.9937 24.6681 42.8763 24.5834 42.7461 24.5834H41.3597C41.2295 24.5834 41.112 24.6681 41.0712 24.793L40.7699 25.7229C40.4737 25.8107 40.1878 25.9297 39.9146 26.0775C39.7544 25.9952 39.8566 26.046 39.7614 25.9493C39.6159 25.8028 39.1665 25.3555 38.5716 25.5745L35.5641 26.681C35.6151 26.5593 35.6509 26.43 35.6687 26.2947C35.8015 25.3846 35.1683 24.5369 34.2594 24.4049C34.2033 24.3968 34.1496 24.3916 34.0935 24.3891V22.9407L38.4875 18.5478ZM32.8731 23.3048L38.0585 18.1192C38.4344 17.7449 39.0439 17.7427 39.4193 18.1192L44.6073 23.3048C44.7171 23.4149 44.8626 23.4749 45.0209 23.4749C45.5453 23.4749 45.7977 22.8407 45.4345 22.4776L40.1215 17.1786C39.3555 16.414 38.107 16.4147 37.3437 17.1804L32.0459 22.4776C31.8187 22.7054 31.8187 23.0766 32.0459 23.3048C32.2726 23.5323 32.6471 23.5313 32.8731 23.3048ZM47.2906 29.0491L46.3613 28.747C46.2719 28.4504 46.1545 28.1642 46.0064 27.8923L46.4506 27.0204C46.5094 26.9032 46.4864 26.7615 46.3945 26.6685L45.4141 25.6892C45.3221 25.5962 45.1792 25.5738 45.0617 25.6335L44.1912 26.0775C44.1248 26.042 44.0584 26.0075 43.992 25.9753V23.5463L44.1784 23.7332C44.6383 24.1961 45.3979 24.1984 45.8609 23.7332C46.3288 23.2631 46.3265 22.5135 45.8609 22.0484L40.5504 16.7497C39.547 15.7494 37.9155 15.7502 36.9147 16.7517L31.617 22.0489C31.1537 22.5117 31.1534 23.2702 31.617 23.7332C32.0815 24.1972 32.8376 24.1974 33.3021 23.7332L33.4885 23.5469V24.4739C32.4177 24.8346 32.0028 26.1362 32.6843 27.0525C32.8375 27.2609 33.0366 27.426 33.2613 27.5404C32.1762 27.9911 32.0026 28.2969 31.4664 29.5758C31.3209 29.921 31.1422 30.3489 30.8945 30.8815C30.2562 31.601 29.6231 32.3237 29.0639 32.9623C28.5176 33.5873 28.0427 34.1275 27.7772 34.4199C27.1576 35.1013 27.6459 36.1935 28.5584 36.1935C28.8592 36.1935 29.1421 36.0698 29.3448 35.8481L32.5311 32.3519C32.6179 32.2559 32.7455 32.2309 32.863 32.2865L33.3838 32.5334C33.499 32.588 33.5367 32.7226 33.4604 32.8336L32.7174 33.9139C32.383 34.3967 32.5004 35.0587 32.9753 35.3895C33.4502 35.7204 34.0986 35.6106 34.4459 35.1391L35.6714 33.4867C36.2458 32.7119 36.0901 31.6058 35.3216 31.0212L34.9309 30.7235L35.2501 29.8115C35.4441 29.2498 35.7939 28.8569 36.284 28.6445L38.0866 27.8647L38.1019 27.8923C37.9538 28.1644 37.8338 28.4509 37.747 28.747L36.8151 29.0491C36.6926 29.0897 36.6058 29.2059 36.6058 29.3374V30.7227C36.6058 30.8539 36.6926 30.9704 36.8151 31.0107L37.747 31.3127C37.8338 31.6094 37.9538 31.8954 38.1019 32.1678L37.6577 33.0397C37.5964 33.1564 37.6194 33.2986 37.7113 33.3915L38.6917 34.3707C38.7836 34.4636 38.9266 34.4863 39.044 34.4266L39.9146 33.9826C40.1878 34.1299 40.4738 34.2488 40.77 34.3372L41.0712 35.2668C41.1121 35.3917 41.2295 35.4761 41.3597 35.4761H42.7461C42.8763 35.4761 42.9938 35.3916 43.0346 35.2668L43.3359 34.337C43.6321 34.2489 43.918 34.1299 44.1912 33.9826L45.0618 34.4266C45.1793 34.4861 45.3222 34.4637 45.4141 34.3707L46.3945 33.3916C46.4864 33.2986 46.5094 33.1564 46.4507 33.0397L46.0065 32.1678C46.1546 31.8954 46.272 31.6092 46.3613 31.3128L47.2907 31.0107C47.4157 30.9704 47.5 30.854 47.5 30.7227V29.3374C47.5 29.2059 47.4157 29.0897 47.2906 29.0491Z"/>
</mask>
<path fill-rule="evenodd" clip-rule="evenodd" d="M43.175 30.7091C43.1163 31.0074 42.8431 31.3124 42.3555 31.4046V31.4664C42.3555 31.6337 42.2201 31.7695 42.0542 31.7695C41.8857 31.7695 41.7504 31.6337 41.7504 31.4664V31.4103C41.5231 31.3789 41.2985 31.3127 41.0917 31.216C40.9385 31.1452 40.8721 30.965 40.9436 30.8131C41.015 30.6617 41.1938 30.5958 41.3469 30.6665C41.5767 30.773 41.8269 30.8297 42.0746 30.8261C42.4479 30.8195 42.8248 30.5728 42.3733 30.39C42.0987 30.2789 41.8755 30.3948 41.4746 30.2136C40.644 29.8382 40.779 28.86 41.7504 28.6603V28.5936C41.7504 28.4264 41.8857 28.2906 42.0542 28.2906C42.2201 28.2906 42.3555 28.4264 42.3555 28.5936V28.648C42.6056 28.6828 42.838 28.7591 43.0167 28.8464C43.1673 28.9197 43.2286 29.1009 43.1571 29.2513C43.0831 29.4019 42.9018 29.4645 42.7512 29.3909C42.4703 29.2541 42.0261 29.1673 41.7197 29.3008C41.4705 29.4097 41.4766 29.5499 41.7248 29.6613C42.0014 29.7855 42.2199 29.6596 42.6414 29.8451C43.1214 30.0563 43.2312 30.4301 43.175 30.7091ZM42.0542 32.4437C43.3844 32.4437 44.4669 31.3609 44.4669 30.0297C44.4669 28.6991 43.3844 27.6163 42.0542 27.6163C40.7214 27.6163 39.6389 28.6991 39.6389 30.0297C39.6389 31.3609 40.7214 32.4437 42.0542 32.4437ZM42.0542 27.0102C40.3895 27.0102 39.0338 28.3649 39.0338 30.0297C39.0338 31.6949 40.3895 33.0496 42.0542 33.0496C43.7188 33.0496 45.072 31.6949 45.072 30.0297C45.072 28.3649 43.7188 27.0102 42.0542 27.0102ZM46.8923 30.5023V29.5574L46.0192 29.273C45.9196 29.2411 45.843 29.1609 45.8175 29.0601C45.7281 28.7072 45.5877 28.3684 45.4013 28.0539C45.3477 27.9645 45.3451 27.8542 45.3911 27.7621L45.8098 26.9412L45.1409 26.2733L44.3213 26.6915C44.2294 26.7385 44.1196 26.7352 44.0302 26.6823C43.7136 26.4954 43.3766 26.3555 43.0218 26.2649C42.9222 26.2391 42.8431 26.1635 42.8098 26.065L42.5265 25.1895H41.5818L41.2958 26.065C41.2652 26.1636 41.1835 26.2391 41.0839 26.2649C40.7316 26.3555 40.392 26.4959 40.0779 26.6823C40.0218 26.715 39.958 26.7288 39.8941 26.7229C39.8099 26.9828 39.6082 27.2057 39.3631 27.3124L38.6431 27.6234C38.7127 27.7584 38.8027 27.8904 38.7069 28.0539C38.518 28.3684 38.3776 28.7075 38.2882 29.0601C38.2627 29.1609 38.1861 29.2411 38.0891 29.273L37.2134 29.5574V30.5023L38.0891 30.7868C38.1861 30.8187 38.2627 30.8991 38.2882 30.9997C38.3776 31.3528 38.5206 31.6913 38.7044 32.0061C38.758 32.0955 38.7606 32.2052 38.7146 32.2977L38.2959 33.1183L38.9648 33.7864L39.7844 33.3685C39.8789 33.3215 39.9886 33.3248 40.078 33.3777C40.392 33.5638 40.7316 33.7045 41.0839 33.7951C41.1835 33.8209 41.2652 33.8965 41.2959 33.995L41.5818 34.87H42.5265L42.8099 33.9945C42.8431 33.8959 42.9222 33.8209 43.0218 33.7951C43.3767 33.7039 43.7137 33.5638 44.0303 33.3777C44.1196 33.3248 44.2294 33.3215 44.3214 33.3685L45.1409 33.7864L45.8098 33.1183L45.3911 32.2977C45.3452 32.2052 45.3477 32.0955 45.4013 32.0061C45.5877 31.691 45.7281 31.3525 45.8175 30.9997C45.8456 30.8991 45.9196 30.8187 46.0192 30.7868L46.8923 30.5023ZM36.0441 28.0881C35.4007 28.3669 34.9259 28.8941 34.6756 29.6123L34.2876 30.7313C34.2442 30.8552 34.285 30.9925 34.3897 31.0719L34.954 31.5031C35.4595 31.8876 35.5642 32.6158 35.1837 33.1259L33.9608 34.7783C33.8076 34.9845 33.5268 35.0349 33.32 34.8921C33.1183 34.7512 33.0723 34.4668 33.2153 34.2574L33.9608 33.1772C34.245 32.7661 34.0958 32.1995 33.6442 31.9859L33.1234 31.7385C32.7659 31.5698 32.3498 31.6522 32.0842 31.9435L28.898 35.44C28.7304 35.6231 28.4392 35.6386 28.2546 35.4699C28.0707 35.3011 28.058 35.0129 28.2265 34.828C28.4971 34.5311 28.972 33.9888 29.5209 33.3615C30.0877 32.7135 30.7285 31.9793 31.377 31.2506C31.3974 31.2284 31.4127 31.2034 31.4255 31.1766C31.686 30.6157 31.8748 30.1691 32.0255 29.8099C32.3345 29.0715 32.4774 28.734 32.771 28.4917C33.0825 28.2344 33.6135 28.0409 34.6705 27.655L38.7811 26.1434C38.8168 26.1303 38.8525 26.1211 38.896 26.1211C38.9955 26.1211 39.1232 26.174 39.3146 26.3591C39.3789 26.4401 39.2984 26.6808 39.1231 26.7561L36.0441 28.0881ZM32.9701 25.9029C32.8856 26.4829 33.2848 27.0216 33.8663 27.1059C34.4459 27.1902 34.9871 26.7868 35.0714 26.2075C35.1531 25.6287 34.7523 25.089 34.1727 25.0045C33.5929 24.9216 33.0555 25.3162 32.9701 25.9029ZM38.4875 18.5478C38.6253 18.4085 38.8526 18.4085 38.993 18.5478L43.3844 22.9407V25.7382C43.369 25.7328 43.3537 25.7277 43.3358 25.7229L43.0346 24.793C42.9937 24.6681 42.8763 24.5834 42.7461 24.5834H41.3597C41.2295 24.5834 41.112 24.6681 41.0712 24.793L40.7699 25.7229C40.4737 25.8107 40.1878 25.9297 39.9146 26.0775C39.7544 25.9952 39.8566 26.046 39.7614 25.9493C39.6159 25.8028 39.1665 25.3555 38.5716 25.5745L35.5641 26.681C35.6151 26.5593 35.6509 26.43 35.6687 26.2947C35.8015 25.3846 35.1683 24.5369 34.2594 24.4049C34.2033 24.3968 34.1496 24.3916 34.0935 24.3891V22.9407L38.4875 18.5478ZM32.8731 23.3048L38.0585 18.1192C38.4344 17.7449 39.0439 17.7427 39.4193 18.1192L44.6073 23.3048C44.7171 23.4149 44.8626 23.4749 45.0209 23.4749C45.5453 23.4749 45.7977 22.8407 45.4345 22.4776L40.1215 17.1786C39.3555 16.414 38.107 16.4147 37.3437 17.1804L32.0459 22.4776C31.8187 22.7054 31.8187 23.0766 32.0459 23.3048C32.2726 23.5323 32.6471 23.5313 32.8731 23.3048ZM47.2906 29.0491L46.3613 28.747C46.2719 28.4504 46.1545 28.1642 46.0064 27.8923L46.4506 27.0204C46.5094 26.9032 46.4864 26.7615 46.3945 26.6685L45.4141 25.6892C45.3221 25.5962 45.1792 25.5738 45.0617 25.6335L44.1912 26.0775C44.1248 26.042 44.0584 26.0075 43.992 25.9753V23.5463L44.1784 23.7332C44.6383 24.1961 45.3979 24.1984 45.8609 23.7332C46.3288 23.2631 46.3265 22.5135 45.8609 22.0484L40.5504 16.7497C39.547 15.7494 37.9155 15.7502 36.9147 16.7517L31.617 22.0489C31.1537 22.5117 31.1534 23.2702 31.617 23.7332C32.0815 24.1972 32.8376 24.1974 33.3021 23.7332L33.4885 23.5469V24.4739C32.4177 24.8346 32.0028 26.1362 32.6843 27.0525C32.8375 27.2609 33.0366 27.426 33.2613 27.5404C32.1762 27.9911 32.0026 28.2969 31.4664 29.5758C31.3209 29.921 31.1422 30.3489 30.8945 30.8815C30.2562 31.601 29.6231 32.3237 29.0639 32.9623C28.5176 33.5873 28.0427 34.1275 27.7772 34.4199C27.1576 35.1013 27.6459 36.1935 28.5584 36.1935C28.8592 36.1935 29.1421 36.0698 29.3448 35.8481L32.5311 32.3519C32.6179 32.2559 32.7455 32.2309 32.863 32.2865L33.3838 32.5334C33.499 32.588 33.5367 32.7226 33.4604 32.8336L32.7174 33.9139C32.383 34.3967 32.5004 35.0587 32.9753 35.3895C33.4502 35.7204 34.0986 35.6106 34.4459 35.1391L35.6714 33.4867C36.2458 32.7119 36.0901 31.6058 35.3216 31.0212L34.9309 30.7235L35.2501 29.8115C35.4441 29.2498 35.7939 28.8569 36.284 28.6445L38.0866 27.8647L38.1019 27.8923C37.9538 28.1644 37.8338 28.4509 37.747 28.747L36.8151 29.0491C36.6926 29.0897 36.6058 29.2059 36.6058 29.3374V30.7227C36.6058 30.8539 36.6926 30.9704 36.8151 31.0107L37.747 31.3127C37.8338 31.6094 37.9538 31.8954 38.1019 32.1678L37.6577 33.0397C37.5964 33.1564 37.6194 33.2986 37.7113 33.3915L38.6917 34.3707C38.7836 34.4636 38.9266 34.4863 39.044 34.4266L39.9146 33.9826C40.1878 34.1299 40.4738 34.2488 40.77 34.3372L41.0712 35.2668C41.1121 35.3917 41.2295 35.4761 41.3597 35.4761H42.7461C42.8763 35.4761 42.9938 35.3916 43.0346 35.2668L43.3359 34.337C43.6321 34.2489 43.918 34.1299 44.1912 33.9826L45.0618 34.4266C45.1793 34.4861 45.3222 34.4637 45.4141 34.3707L46.3945 33.3916C46.4864 33.2986 46.5094 33.1564 46.4507 33.0397L46.0065 32.1678C46.1546 31.8954 46.272 31.6092 46.3613 31.3128L47.2907 31.0107C47.4157 30.9704 47.5 30.854 47.5 30.7227V29.3374C47.5 29.2059 47.4157 29.0897 47.2906 29.0491Z" fill="#C9E8EE" stroke="#EEF8F9" stroke-width="2" mask="url(#path-2-inside-1_80_854)"/>
<path d="M17.0195 49.2494V56.3588H16.0771V49.2494H17.0195ZM19.998 52.4476V53.2191H16.8145V52.4476H19.998ZM20.4814 49.2494V50.0209H16.8145V49.2494H20.4814ZM25.6719 49.2494H26.6094V54.059C26.6094 54.5928 26.4906 55.0372 26.2529 55.392C26.0153 55.7468 25.6995 56.0137 25.3057 56.1927C24.915 56.3685 24.4902 56.4564 24.0312 56.4564C23.5495 56.4564 23.1133 56.3685 22.7227 56.1927C22.3353 56.0137 22.0277 55.7468 21.7998 55.392C21.5752 55.0372 21.4629 54.5928 21.4629 54.059V49.2494H22.3955V54.059C22.3955 54.4301 22.4639 54.736 22.6006 54.9769C22.7373 55.2178 22.9277 55.3969 23.1719 55.514C23.4193 55.6312 23.7057 55.6898 24.0312 55.6898C24.36 55.6898 24.6465 55.6312 24.8906 55.514C25.138 55.3969 25.3301 55.2178 25.4668 54.9769C25.6035 54.736 25.6719 54.4301 25.6719 54.059V49.2494ZM33.5576 49.2494V56.3588H32.6104L29.0312 50.8754V56.3588H28.0889V49.2494H29.0312L32.625 54.7474V49.2494H33.5576ZM37.1514 56.3588H35.667L35.6768 55.5922H37.1514C37.6592 55.5922 38.0824 55.4864 38.4209 55.2748C38.7594 55.0599 39.0133 54.7605 39.1826 54.3763C39.3551 53.989 39.4414 53.5365 39.4414 53.0189V52.5844C39.4414 52.1774 39.3926 51.8161 39.2949 51.5004C39.1973 51.1814 39.054 50.9128 38.8652 50.6947C38.6764 50.4733 38.4453 50.3057 38.1719 50.1918C37.9017 50.0778 37.5908 50.0209 37.2393 50.0209H35.6377V49.2494H37.2393C37.7048 49.2494 38.1296 49.3275 38.5137 49.4838C38.8978 49.6368 39.2282 49.8597 39.5049 50.1527C39.7848 50.4424 39.9997 50.794 40.1494 51.2074C40.2992 51.6176 40.374 52.0798 40.374 52.5941V53.0189C40.374 53.5332 40.2992 53.9971 40.1494 54.4105C39.9997 54.8207 39.7832 55.1706 39.5 55.4603C39.2201 55.75 38.8815 55.973 38.4844 56.1293C38.0905 56.2823 37.6462 56.3588 37.1514 56.3588ZM36.1699 49.2494V56.3588H35.2275V49.2494H36.1699ZM46.3066 55.5922V56.3588H42.542V55.5922H46.3066ZM42.7324 49.2494V56.3588H41.79V49.2494H42.7324ZM45.8086 52.306V53.0726H42.542V52.306H45.8086ZM46.2578 49.2494V50.0209H42.542V49.2494H46.2578ZM47.4736 49.2494H49.8271C50.361 49.2494 50.8118 49.3308 51.1797 49.4935C51.5508 49.6563 51.8324 49.8972 52.0244 50.2162C52.2197 50.5319 52.3174 50.9209 52.3174 51.3832C52.3174 51.7087 52.2507 52.0066 52.1172 52.2767C51.987 52.5437 51.7982 52.7715 51.5508 52.9603C51.3066 53.1459 51.0137 53.2842 50.6719 53.3754L50.4082 53.4779H48.1963L48.1865 52.7113H49.8564C50.195 52.7113 50.4766 52.6527 50.7012 52.5355C50.9258 52.4151 51.0951 52.2539 51.209 52.0521C51.3229 51.8503 51.3799 51.6273 51.3799 51.3832C51.3799 51.1097 51.3262 50.8705 51.2188 50.6654C51.1113 50.4603 50.9421 50.3024 50.7109 50.1918C50.4831 50.0778 50.1885 50.0209 49.8271 50.0209H48.416V56.3588H47.4736V49.2494ZM51.6289 56.3588L49.9004 53.1361L50.8818 53.1312L52.6348 56.3002V56.3588H51.6289ZM57.4248 54.5619C57.4248 54.3959 57.3988 54.2494 57.3467 54.1224C57.2979 53.9922 57.21 53.875 57.083 53.7709C56.9593 53.6667 56.7868 53.5674 56.5654 53.473C56.3473 53.3786 56.0706 53.2826 55.7354 53.1849C55.3838 53.0808 55.0664 52.9652 54.7832 52.8383C54.5 52.708 54.2575 52.5599 54.0557 52.3939C53.8538 52.2279 53.6992 52.0375 53.5918 51.8226C53.4844 51.6078 53.4307 51.362 53.4307 51.0853C53.4307 50.8086 53.4876 50.5531 53.6016 50.3187C53.7155 50.0844 53.8783 49.8809 54.0898 49.7084C54.3047 49.5326 54.5602 49.3959 54.8564 49.2982C55.1527 49.2006 55.4831 49.1517 55.8477 49.1517C56.3815 49.1517 56.834 49.2543 57.2051 49.4594C57.5794 49.6612 57.8643 49.9265 58.0596 50.2552C58.2549 50.5808 58.3525 50.9291 58.3525 51.3002H57.415C57.415 51.0332 57.3581 50.7972 57.2441 50.5922C57.1302 50.3838 56.9577 50.2211 56.7266 50.1039C56.4954 49.9834 56.2025 49.9232 55.8477 49.9232C55.5124 49.9232 55.2357 49.9737 55.0176 50.0746C54.7995 50.1755 54.6367 50.3122 54.5293 50.4847C54.4251 50.6573 54.373 50.8542 54.373 51.0756C54.373 51.2253 54.404 51.362 54.4658 51.4857C54.5309 51.6062 54.6302 51.7185 54.7637 51.8226C54.9004 51.9268 55.0729 52.0228 55.2812 52.1107C55.4928 52.1986 55.7451 52.2832 56.0381 52.3646C56.4417 52.4786 56.79 52.6055 57.083 52.7455C57.376 52.8855 57.6169 53.0433 57.8057 53.2191C57.9977 53.3916 58.1393 53.5886 58.2305 53.8099C58.3249 54.028 58.3721 54.2754 58.3721 54.5521C58.3721 54.8418 58.3135 55.1039 58.1963 55.3383C58.0791 55.5726 57.9115 55.7728 57.6934 55.9388C57.4753 56.1049 57.2132 56.2334 56.9072 56.3246C56.6045 56.4125 56.266 56.4564 55.8916 56.4564C55.5628 56.4564 55.2389 56.4108 54.9199 56.3197C54.6042 56.2286 54.3161 56.0918 54.0557 55.9095C53.7985 55.7273 53.5918 55.5026 53.4355 55.2357C53.2826 54.9655 53.2061 54.653 53.2061 54.2982H54.1436C54.1436 54.5424 54.1908 54.7523 54.2852 54.9281C54.3796 55.1006 54.5081 55.2439 54.6709 55.3578C54.8369 55.4717 55.0241 55.5564 55.2324 55.6117C55.444 55.6638 55.6637 55.6898 55.8916 55.6898C56.2204 55.6898 56.4987 55.6442 56.7266 55.5531C56.9544 55.462 57.127 55.3317 57.2441 55.1625C57.3646 54.9932 57.4248 54.793 57.4248 54.5619Z" fill="#223354"/>
</svg>
