<svg width="74" height="66" viewBox="0 0 74 66" fill="none" xmlns="http://www.w3.org/2000/svg">
<path d="M16.6759 23.4836L16.6761 23.4833L24.6607 9.65499C24.6609 9.65479 24.661 9.65458 24.6611 9.65438C25.5633 8.10279 27.2213 7.14117 29.0146 7.14117H44.9854C46.7794 7.14117 48.4372 8.09505 49.3475 9.6547C49.3477 9.65502 49.3479 9.65534 49.348 9.65566L57.3238 23.4831L57.3241 23.4836C58.2253 25.0417 58.2253 26.9583 57.3241 28.5164L57.3239 28.5167L49.3393 42.345C49.3391 42.3453 49.3389 42.3456 49.3387 42.346C48.4364 43.8973 46.7785 44.8588 44.9854 44.8588H29.0146C27.2199 44.8588 25.5628 43.9044 24.6613 42.3459L16.6761 28.5167L16.6759 28.5164C15.7747 26.9583 15.7747 25.0417 16.6759 23.4836Z" fill="#764CB2" stroke="#EEF8F9"/>
<path d="M37.7344 29.75H40.8594C41.0751 29.75 41.25 29.5751 41.25 29.3594V24.6719C41.25 24.4562 41.0751 24.2812 40.8594 24.2812H37.7344C37.5186 24.2812 37.3438 24.4562 37.3438 24.6719V29.3594C37.3438 29.5751 37.5186 29.75 37.7344 29.75ZM38.125 25.0625H40.4688V28.9688H38.125V25.0625Z" fill="#C9E8EE"/>
<path d="M42.4219 29.75H45.5469C45.7626 29.75 45.9375 29.5751 45.9375 29.3594V24.6719C45.9375 24.4562 45.7626 24.2812 45.5469 24.2812H42.4219C42.2061 24.2812 42.0312 24.4562 42.0312 24.6719V29.3594C42.0312 29.5751 42.2061 29.75 42.4219 29.75ZM42.8125 25.0625H45.1562V28.9688H42.8125V25.0625Z" fill="#C9E8EE"/>
<path d="M47.1094 16H27.8906C27.6749 16 27.5 16.1749 27.5 16.3906V35.6094C27.5 35.8251 27.6749 36 27.8906 36H47.1094C47.3251 36 47.5 35.8251 47.5 35.6094V16.3906C47.5 16.1749 47.3251 16 47.1094 16ZM28.2812 16.7812H46.7188V21.4688H28.2812V16.7812ZM29.0625 35.2188H28.2812V34.4375H29.0625V35.2188ZM32.1875 35.2188H29.8438V28.5781C29.8438 27.203 30.8641 26.0617 32.1875 25.8716V35.2188ZM35.3125 35.2188H32.9688V25.8716C34.2921 26.0617 35.3125 27.203 35.3125 28.5781V35.2188ZM32.5781 25.0625C30.6396 25.0625 29.0625 26.6396 29.0625 28.5781V33.6562H28.2812V22.25H46.7188V32.0938H39.2969C39.0816 32.0938 38.9062 32.2691 38.9062 32.4844C38.9062 32.6996 39.0816 32.875 39.2969 32.875H46.7188V33.6562H36.0938V28.5781C36.0938 26.6396 34.5166 25.0625 32.5781 25.0625ZM46.7188 35.2188H36.0938V34.4375H46.7188V35.2188Z" fill="#C9E8EE"/>
<path d="M37.7344 32.875C37.9496 32.875 38.125 32.6996 38.125 32.4844C38.125 32.2691 37.9496 32.0938 37.7344 32.0938C37.5191 32.0938 37.3438 32.2691 37.3438 32.4844C37.3438 32.6996 37.5191 32.875 37.7344 32.875Z" fill="#C9E8EE"/>
<path d="M30.8575 20.013H29.9668V17.8724C29.9668 17.8126 29.9368 17.767 29.877 17.7357C29.817 17.7044 29.7455 17.6888 29.6621 17.6888C29.5788 17.6888 29.5071 17.7044 29.4473 17.7357C29.3873 17.767 29.3574 17.8126 29.3574 17.8724V20.3568C29.3574 20.4167 29.3834 20.4629 29.4355 20.4955C29.4876 20.5281 29.5502 20.5443 29.6231 20.5443H30.8575C30.9121 20.5443 30.9551 20.5183 30.9864 20.4662C31.0176 20.4141 31.0332 20.3516 31.0332 20.2787C31.0332 20.2058 31.0176 20.1433 30.9864 20.0912C30.9551 20.0391 30.9122 20.013 30.8575 20.013Z" fill="#C9E8EE"/>
<path d="M32.1895 17.7357C32.1295 17.7044 32.0579 17.6888 31.9746 17.6888C31.8912 17.6888 31.8196 17.7044 31.7598 17.7357C31.6998 17.767 31.6699 17.8126 31.6699 17.8724V20.3568C31.6699 20.4167 31.6998 20.4629 31.7598 20.4955C31.8196 20.5281 31.8912 20.5443 31.9746 20.5443C32.0579 20.5443 32.1295 20.5281 32.1895 20.4955C32.2493 20.4629 32.2793 20.4167 32.2793 20.3568V17.8724C32.2793 17.8125 32.2493 17.7669 32.1895 17.7357Z" fill="#C9E8EE"/>
<path d="M34.6074 18.9974C34.8288 18.9011 34.9395 18.6967 34.9395 18.3842C34.9395 17.9206 34.679 17.6888 34.1582 17.6888H33.3574C33.2845 17.6888 33.222 17.7051 33.1699 17.7377C33.1178 17.7702 33.0918 17.8165 33.0918 17.8763V20.3607C33.0918 20.4102 33.1158 20.4532 33.1641 20.4896C33.2122 20.5261 33.2767 20.5443 33.3574 20.5443H34.2246C34.4642 20.5443 34.6549 20.4773 34.7968 20.3431C34.9388 20.209 35.0097 19.9961 35.0097 19.7045V19.6224C35.0097 19.4402 34.9759 19.3027 34.9082 19.2103C34.8405 19.1179 34.7403 19.0469 34.6074 18.9974ZM33.6973 18.2201H34.1074C34.1777 18.2201 34.2324 18.2474 34.2715 18.3021C34.3105 18.3568 34.3301 18.4207 34.3301 18.4935C34.3301 18.5665 34.3105 18.6296 34.2715 18.683C34.2324 18.7364 34.1777 18.7631 34.1074 18.7631H33.6973V18.2201ZM34.4004 19.6537C34.4004 19.8933 34.2962 20.0131 34.0879 20.0131H33.6973V19.2318H34.0879C34.2962 19.2318 34.4004 19.3516 34.4004 19.5911V19.6537Z" fill="#C9E8EE"/>
<path d="M37.2012 19.3177C37.5162 19.1953 37.6738 18.931 37.6738 18.5247C37.6738 17.9675 37.3535 17.6888 36.7129 17.6888H35.9043C35.8496 17.6888 35.8047 17.7071 35.7695 17.7435C35.7344 17.78 35.7168 17.8229 35.7168 17.8724V20.3568C35.7168 20.4167 35.7467 20.4629 35.8066 20.4955C35.8665 20.5281 35.9381 20.5443 36.0215 20.5443C36.1048 20.5443 36.1764 20.5281 36.2363 20.4955C36.2962 20.4629 36.3262 20.4167 36.3262 20.3568V19.4154H36.584L37.1191 20.4545C37.1582 20.5301 37.2233 20.5677 37.3145 20.5677C37.4056 20.5677 37.4922 20.5339 37.5742 20.4661C37.6562 20.3985 37.6973 20.3269 37.6973 20.2513C37.6973 20.2227 37.6907 20.1992 37.6777 20.181L37.2012 19.3177ZM36.9746 18.8626C36.9146 18.9187 36.8274 18.9466 36.7129 18.9466H36.3262V18.22H36.7129C36.8275 18.22 36.9146 18.248 36.9746 18.304C37.0345 18.36 37.0645 18.4531 37.0645 18.5833C37.0645 18.7136 37.0345 18.8067 36.9746 18.8626Z" fill="#C9E8EE"/>
<path d="M39.7246 17.8685C39.7038 17.8034 39.6562 17.7533 39.5821 17.7181C39.5079 17.683 39.4225 17.6653 39.3262 17.6653C39.2298 17.6653 39.1446 17.6829 39.0703 17.7181C38.9961 17.7532 38.9486 17.8034 38.9278 17.8685L38.2012 20.2513C38.1959 20.2722 38.1934 20.2865 38.1934 20.2943C38.1934 20.362 38.2357 20.4206 38.3203 20.4701C38.4049 20.5196 38.4928 20.5443 38.584 20.5443C38.6959 20.5443 38.7623 20.5066 38.7832 20.431L38.916 19.9427H39.7403L39.873 20.431C39.8939 20.5066 39.9603 20.5443 40.0723 20.5443C40.1634 20.5443 40.2513 20.5196 40.336 20.4701C40.4205 20.4206 40.4629 20.362 40.4629 20.2943C40.4629 20.2865 40.4603 20.2722 40.4551 20.2513L39.7246 17.8685ZM39.041 19.474L39.3262 18.4271L39.6114 19.474H39.041Z" fill="#C9E8EE"/>
<path d="M42.5645 19.3177C42.8795 19.1953 43.0371 18.931 43.0371 18.5247C43.0371 17.9675 42.7168 17.6888 42.0762 17.6888H41.2676C41.2129 17.6888 41.168 17.7071 41.1328 17.7435C41.0977 17.78 41.0801 17.8229 41.0801 17.8724V20.3568C41.0801 20.4167 41.11 20.4629 41.1699 20.4955C41.2298 20.5281 41.3014 20.5443 41.3848 20.5443C41.4681 20.5443 41.5397 20.5281 41.5996 20.4955C41.6595 20.4629 41.6895 20.4167 41.6895 20.3568V19.4154H41.9473L42.4824 20.4545C42.5215 20.5301 42.5866 20.5677 42.6777 20.5677C42.7689 20.5677 42.8555 20.5339 42.9375 20.4661C43.0195 20.3985 43.0605 20.3269 43.0605 20.2513C43.0605 20.2227 43.054 20.1992 43.041 20.181L42.5645 19.3177ZM42.3379 18.8626C42.278 18.9187 42.1907 18.9466 42.0762 18.9466H41.6895V18.22H42.0762C42.1908 18.22 42.278 18.248 42.3379 18.304C42.3978 18.36 42.4278 18.4531 42.4278 18.5833C42.4277 18.7136 42.3978 18.8067 42.3379 18.8626Z" fill="#C9E8EE"/>
<path d="M45.6563 17.763C45.5638 17.7136 45.472 17.6888 45.3809 17.6888C45.3027 17.6888 45.2441 17.7266 45.2051 17.8021L44.6621 18.806L44.1153 17.8021C44.0918 17.7605 44.0684 17.7312 44.045 17.7142C44.0215 17.6973 43.9864 17.6888 43.9395 17.6888C43.8483 17.6888 43.7565 17.7136 43.6641 17.763C43.5716 17.8126 43.5254 17.8711 43.5254 17.9388C43.5254 17.9571 43.528 17.9714 43.5332 17.9818L44.3418 19.3217C44.3522 19.3372 44.3574 19.3555 44.3574 19.3763V20.3568C44.3574 20.4167 44.3873 20.4629 44.4473 20.4955C44.5071 20.5281 44.5787 20.5443 44.6621 20.5443C44.7454 20.5443 44.817 20.5281 44.877 20.4955C44.9368 20.4629 44.9668 20.4167 44.9668 20.3568V19.3763C44.9668 19.3555 44.972 19.3372 44.9824 19.3217L45.7871 17.9818C45.7923 17.9714 45.7949 17.9571 45.7949 17.9388C45.795 17.8711 45.7487 17.8125 45.6563 17.763Z" fill="#C9E8EE"/>
<path d="M31.0156 31.7031C31.2314 31.7031 31.4062 31.5282 31.4062 31.3125C31.4062 31.0968 31.2314 30.9219 31.0156 30.9219C30.7999 30.9219 30.625 31.0968 30.625 31.3125C30.625 31.5282 30.7999 31.7031 31.0156 31.7031Z" fill="#C9E8EE"/>
<path d="M34.1406 31.7031C34.3564 31.7031 34.5312 31.5282 34.5312 31.3125C34.5312 31.0968 34.3564 30.9219 34.1406 30.9219C33.9249 30.9219 33.75 31.0968 33.75 31.3125C33.75 31.5282 33.9249 31.7031 34.1406 31.7031Z" fill="#C9E8EE"/>
<path d="M22.6543 55.5922V56.3588H19.0996V55.5922H22.6543ZM19.2852 49.2494V56.3588H18.3428V49.2494H19.2852ZM24.7441 49.2494V56.3588H23.8018V49.2494H24.7441ZM28.9922 53.0336H27.1904L27.1807 52.2767H28.8164C29.0866 52.2767 29.3226 52.2312 29.5244 52.14C29.7262 52.0489 29.8825 51.9187 29.9932 51.7494C30.1071 51.5769 30.1641 51.3718 30.1641 51.1342C30.1641 50.8737 30.1136 50.6622 30.0127 50.4994C29.915 50.3334 29.7637 50.2129 29.5586 50.1381C29.3568 50.0599 29.0996 50.0209 28.7871 50.0209H27.4004V56.3588H26.458V49.2494H28.7871C29.1517 49.2494 29.4772 49.2868 29.7637 49.3617C30.0501 49.4333 30.2926 49.5472 30.4912 49.7035C30.693 49.8565 30.846 50.0518 30.9502 50.2894C31.0544 50.5271 31.1064 50.8119 31.1064 51.1439C31.1064 51.4369 31.0316 51.7022 30.8818 51.9398C30.7321 52.1742 30.5238 52.3663 30.2568 52.516C29.9932 52.6657 29.6839 52.7618 29.3291 52.8041L28.9922 53.0336ZM28.9482 56.3588H26.8193L27.3516 55.5922H28.9482C29.2477 55.5922 29.5016 55.5401 29.71 55.4359C29.9215 55.3317 30.0827 55.1853 30.1934 54.9965C30.304 54.8044 30.3594 54.5782 30.3594 54.3177C30.3594 54.0541 30.3122 53.8262 30.2178 53.6342C30.1234 53.4421 29.9753 53.294 29.7734 53.1898C29.5716 53.0857 29.3112 53.0336 28.9922 53.0336H27.6494L27.6592 52.2767H29.4951L29.6953 52.5502C30.0371 52.5795 30.3268 52.6771 30.5645 52.8431C30.8021 53.0059 30.9827 53.2142 31.1064 53.4681C31.2334 53.722 31.2969 54.002 31.2969 54.308C31.2969 54.7507 31.1992 55.125 31.0039 55.431C30.8118 55.7338 30.54 55.9649 30.1885 56.1244C29.8369 56.2806 29.4235 56.3588 28.9482 56.3588ZM32.6885 49.2494H35.042C35.5758 49.2494 36.0267 49.3308 36.3945 49.4935C36.7656 49.6563 37.0472 49.8972 37.2393 50.2162C37.4346 50.5319 37.5322 50.9209 37.5322 51.3832C37.5322 51.7087 37.4655 52.0066 37.332 52.2767C37.2018 52.5437 37.013 52.7715 36.7656 52.9603C36.5215 53.1459 36.2285 53.2842 35.8867 53.3754L35.623 53.4779H33.4111L33.4014 52.7113H35.0713C35.4098 52.7113 35.6914 52.6527 35.916 52.5355C36.1406 52.4151 36.3099 52.2539 36.4238 52.0521C36.5378 51.8503 36.5947 51.6273 36.5947 51.3832C36.5947 51.1097 36.541 50.8705 36.4336 50.6654C36.3262 50.4603 36.1569 50.3024 35.9258 50.1918C35.6979 50.0778 35.4033 50.0209 35.042 50.0209H33.6309V56.3588H32.6885V49.2494ZM36.8438 56.3588L35.1152 53.1361L36.0967 53.1312L37.8496 56.3002V56.3588H36.8438ZM41.4824 49.8793L39.1289 56.3588H38.167L40.877 49.2494H41.4971L41.4824 49.8793ZM43.4551 56.3588L41.0967 49.8793L41.082 49.2494H41.7021L44.4219 56.3588H43.4551ZM43.333 53.7269V54.4984H39.3389V53.7269H43.333ZM45.374 49.2494H47.7275C48.2614 49.2494 48.7122 49.3308 49.0801 49.4935C49.4512 49.6563 49.7327 49.8972 49.9248 50.2162C50.1201 50.5319 50.2178 50.9209 50.2178 51.3832C50.2178 51.7087 50.151 52.0066 50.0176 52.2767C49.8874 52.5437 49.6986 52.7715 49.4512 52.9603C49.207 53.1459 48.9141 53.2842 48.5723 53.3754L48.3086 53.4779H46.0967L46.0869 52.7113H47.7568C48.0954 52.7113 48.377 52.6527 48.6016 52.5355C48.8262 52.4151 48.9954 52.2539 49.1094 52.0521C49.2233 51.8503 49.2803 51.6273 49.2803 51.3832C49.2803 51.1097 49.2266 50.8705 49.1191 50.6654C49.0117 50.4603 48.8424 50.3024 48.6113 50.1918C48.3835 50.0778 48.0889 50.0209 47.7275 50.0209H46.3164V56.3588H45.374V49.2494ZM49.5293 56.3588L47.8008 53.1361L48.7822 53.1312L50.5352 56.3002V56.3588H49.5293ZM51.6289 49.2494L53.4746 52.8187L55.3252 49.2494H56.3945L53.9434 53.7025V56.3588H53.001V53.7025L50.5498 49.2494H51.6289Z" fill="#223354"/>
</svg>
