<svg width="74" height="66" viewBox="0 0 74 66" fill="none" xmlns="http://www.w3.org/2000/svg">
<path d="M23.7955 8.6537L23.7962 8.65245C24.8757 6.79529 26.8617 5.64117 29.0146 5.64117H44.9854C47.1375 5.64117 49.1235 6.78611 50.2118 8.65179L50.2131 8.6539L58.1897 22.4829C59.27 24.3506 59.2701 26.649 58.1899 28.5168C58.1899 28.5168 58.1898 28.5168 58.1898 28.5169C58.1898 28.517 58.1897 28.517 58.1897 28.5171L50.2045 42.3463L50.2038 42.3475C49.1243 44.2047 47.1383 45.3588 44.9854 45.3588H29.0146C26.8629 45.3588 24.8758 44.214 23.7957 42.3466L23.7955 42.3463L15.8103 28.5171C15.8102 28.517 15.8102 28.5169 15.8101 28.5168C14.73 26.6491 14.73 24.3509 15.8101 22.4832L23.7955 8.6537ZM23.7955 8.6537L15.8103 22.4829L23.7955 8.6537Z" fill="#764CB2" stroke="#EEF8F9"/>
<path d="M45.8936 20.2577C44.8319 19.0278 42.9581 18.7802 40.2802 18.7802L36.7563 18.7751C35.3791 18.7751 34.2168 18.7866 33.2316 18.8567C32.3211 15.3611 31.6186 15.1233 27.2171 15.1233C27.0096 15.1233 26.8105 15.2057 26.6638 15.3525C26.517 15.4992 26.4346 15.6983 26.4346 15.9058C26.4346 16.1134 26.517 16.3124 26.6638 16.4592C26.8105 16.6059 27.0096 16.6884 27.2171 16.6884C30.5809 16.6884 31.0478 16.6946 31.6737 19.065C30.8603 19.17 30.1146 19.5722 29.5799 20.1941C28.7053 21.3577 28.9829 23.1122 29.8011 25.9431C31.0085 30.1188 32.1624 31.8111 35.7394 31.8111C36.368 31.8064 36.9957 31.7657 37.6196 31.689C44.7536 30.8555 45.9926 29.641 46.5475 25.8994C46.918 23.398 46.9491 21.4814 45.8936 20.2577ZM44.9995 25.6692C44.6169 28.247 44.459 29.3139 37.4381 30.1341C33.4469 30.5978 32.5889 29.9507 31.3052 25.5092C30.7621 23.6311 30.329 21.8024 30.8309 21.1349C31.1578 20.813 31.5863 20.6144 32.0433 20.573L32.9777 24.4373C33.0191 24.6079 33.1165 24.7595 33.2545 24.868C33.3924 24.9764 33.5628 25.0354 33.7382 25.0354C33.8004 25.0354 33.8624 25.0279 33.9227 25.013C34.0226 24.9889 34.1168 24.9454 34.1999 24.8848C34.283 24.8243 34.3534 24.748 34.4069 24.6603C34.4605 24.5725 34.4962 24.4751 34.5121 24.3735C34.528 24.272 34.5236 24.1683 34.4994 24.0684L33.611 20.3968C34.4904 20.3479 35.5479 20.3402 36.7558 20.3402L40.2792 20.3453C42.8521 20.3453 44.1353 20.6166 44.7085 21.2807C45.2714 21.9328 45.3587 23.2462 44.9995 25.6692Z" fill="#C9E8EE"/>
<path d="M41.5635 35.4692C42.2838 35.4692 42.8677 34.8852 42.8677 34.1649C42.8677 33.4446 42.2838 32.8607 41.5635 32.8607C40.8432 32.8607 40.2593 33.4446 40.2593 34.1649C40.2593 34.8852 40.8432 35.4692 41.5635 35.4692Z" fill="#C9E8EE"/>
<path d="M34.26 35.4692C34.9803 35.4692 35.5643 34.8852 35.5643 34.1649C35.5643 33.4446 34.9803 32.8607 34.26 32.8607C33.5397 32.8607 32.9558 33.4446 32.9558 34.1649C32.9558 34.8852 33.5397 35.4692 34.26 35.4692Z" fill="#C9E8EE"/>
<path d="M27.6274 54.8823C27.6274 54.6996 27.5988 54.5385 27.5415 54.3989C27.4878 54.2556 27.3911 54.1267 27.2515 54.0121C27.1154 53.8976 26.9256 53.7884 26.6821 53.6845C26.4422 53.5807 26.1379 53.475 25.769 53.3676C25.3823 53.253 25.0332 53.1259 24.7217 52.9863C24.4102 52.843 24.1434 52.6801 23.9214 52.4975C23.6994 52.3149 23.5293 52.1054 23.4111 51.8691C23.293 51.6328 23.2339 51.3624 23.2339 51.058C23.2339 50.7537 23.2965 50.4726 23.4219 50.2148C23.5472 49.957 23.7262 49.7332 23.959 49.5434C24.1953 49.35 24.4764 49.1996 24.8022 49.0922C25.1281 48.9848 25.4915 48.9311 25.8926 48.9311C26.4798 48.9311 26.9775 49.0439 27.3857 49.2695C27.7975 49.4915 28.1108 49.7833 28.3257 50.145C28.5405 50.503 28.6479 50.8862 28.6479 51.2944H27.6167C27.6167 51.0008 27.554 50.7411 27.4287 50.5156C27.3034 50.2864 27.1136 50.1074 26.8594 49.9785C26.6051 49.846 26.2829 49.7797 25.8926 49.7797C25.5238 49.7797 25.2194 49.8352 24.9795 49.9462C24.7396 50.0572 24.5605 50.2076 24.4424 50.3974C24.3278 50.5872 24.2705 50.8038 24.2705 51.0473C24.2705 51.212 24.3045 51.3624 24.3726 51.4985C24.4442 51.631 24.5534 51.7545 24.7002 51.8691C24.8506 51.9837 25.0404 52.0893 25.2695 52.186C25.5023 52.2827 25.7798 52.3758 26.1021 52.4653C26.5461 52.5906 26.9292 52.7302 27.2515 52.8842C27.5737 53.0382 27.8387 53.2119 28.0464 53.4052C28.2576 53.595 28.4134 53.8116 28.5137 54.0551C28.6175 54.295 28.6694 54.5672 28.6694 54.8715C28.6694 55.1902 28.605 55.4785 28.4761 55.7363C28.3472 55.9941 28.1628 56.2143 27.9229 56.3969C27.6829 56.5795 27.3947 56.721 27.0581 56.8212C26.7251 56.9179 26.3527 56.9662 25.9409 56.9662C25.5793 56.9662 25.223 56.9161 24.8721 56.8159C24.5247 56.7156 24.2078 56.5652 23.9214 56.3647C23.6385 56.1642 23.4111 55.9171 23.2393 55.6235C23.071 55.3263 22.9868 54.9825 22.9868 54.5922H24.0181C24.0181 54.8608 24.07 55.0917 24.1738 55.2851C24.2777 55.4749 24.4191 55.6324 24.5981 55.7578C24.7808 55.8831 24.9867 55.9762 25.2158 56.037C25.4486 56.0943 25.6903 56.123 25.9409 56.123C26.3026 56.123 26.6087 56.0729 26.8594 55.9726C27.11 55.8723 27.2998 55.7291 27.4287 55.5429C27.5612 55.3567 27.6274 55.1365 27.6274 54.8823ZM35.0986 52.4008V53.2441H30.8662V52.4008H35.0986ZM31.0273 49.0385V56.8588H29.9907V49.0385H31.0273ZM36.001 49.0385V56.8588H34.9697V49.0385H36.001ZM43.8643 52.7016V53.1957C43.8643 53.783 43.7909 54.3093 43.644 54.7748C43.4972 55.2403 43.286 55.636 43.0103 55.9619C42.7345 56.2877 42.4033 56.5366 42.0166 56.7084C41.6335 56.8803 41.2038 56.9662 40.7275 56.9662C40.2656 56.9662 39.8413 56.8803 39.4546 56.7084C39.0715 56.5366 38.7384 56.2877 38.4556 55.9619C38.1763 55.636 37.9596 55.2403 37.8057 54.7748C37.6517 54.3093 37.5747 53.783 37.5747 53.1957V52.7016C37.5747 52.1144 37.6499 51.5898 37.8003 51.1279C37.9543 50.6624 38.1709 50.2667 38.4502 49.9409C38.7295 49.6114 39.0607 49.3608 39.4438 49.1889C39.8306 49.017 40.2549 48.9311 40.7168 48.9311C41.193 48.9311 41.6227 49.017 42.0059 49.1889C42.3926 49.3608 42.7238 49.6114 42.9995 49.9409C43.2788 50.2667 43.4919 50.6624 43.6387 51.1279C43.7891 51.5898 43.8643 52.1144 43.8643 52.7016ZM42.8384 53.1957V52.6909C42.8384 52.2254 42.79 51.8136 42.6934 51.4555C42.6003 51.0974 42.4624 50.7967 42.2798 50.5532C42.0972 50.3097 41.8734 50.1253 41.6084 49.9999C41.347 49.8746 41.0498 49.812 40.7168 49.812C40.3945 49.812 40.1027 49.8746 39.8413 49.9999C39.5835 50.1253 39.3615 50.3097 39.1753 50.5532C38.9927 50.7967 38.8512 51.0974 38.751 51.4555C38.6507 51.8136 38.6006 52.2254 38.6006 52.6909V53.1957C38.6006 53.6648 38.6507 54.0802 38.751 54.4418C38.8512 54.7999 38.9945 55.1025 39.1807 55.3495C39.3704 55.593 39.5942 55.7774 39.8521 55.9028C40.1134 56.0281 40.4053 56.0908 40.7275 56.0908C41.0641 56.0908 41.3631 56.0281 41.6245 55.9028C41.8859 55.7774 42.1061 55.593 42.2852 55.3495C42.4678 55.1025 42.6056 54.7999 42.6987 54.4418C42.7918 54.0802 42.8384 53.6648 42.8384 53.1957ZM48.3008 53.7919H46.2114V52.9487H48.3008C48.7054 52.9487 49.033 52.8842 49.2837 52.7553C49.5343 52.6264 49.717 52.4474 49.8315 52.2182C49.9497 51.989 50.0088 51.7276 50.0088 51.434C50.0088 51.1655 49.9497 50.913 49.8315 50.6767C49.717 50.4404 49.5343 50.2506 49.2837 50.1074C49.033 49.9606 48.7054 49.8871 48.3008 49.8871H46.4531V56.8588H45.4165V49.0385H48.3008C48.8916 49.0385 49.3911 49.1406 49.7993 49.3447C50.2075 49.5488 50.5173 49.8316 50.7285 50.1933C50.9398 50.5514 51.0454 50.9614 51.0454 51.4233C51.0454 51.9246 50.9398 52.3525 50.7285 52.707C50.5173 53.0615 50.2075 53.3318 49.7993 53.518C49.3911 53.7006 48.8916 53.7919 48.3008 53.7919Z" fill="#223354"/>
</svg>
