<svg width="74" height="66" viewBox="0 0 74 66" fill="none" xmlns="http://www.w3.org/2000/svg">
<path d="M16.6759 23.4836L16.6761 23.4833L24.6607 9.65499C24.6609 9.6548 24.661 9.65461 24.6611 9.65441C25.5633 8.10281 27.2213 7.14117 29.0146 7.14117H44.9854C46.7794 7.14117 48.4372 8.09505 49.3475 9.6547C49.3477 9.65502 49.3479 9.65534 49.348 9.65566L57.3238 23.4831L57.3241 23.4836C58.2253 25.0417 58.2253 26.9583 57.3241 28.5164L57.3239 28.5167L49.3393 42.345C49.3391 42.3453 49.3389 42.3456 49.3387 42.346C48.4364 43.8973 46.7785 44.8588 44.9854 44.8588H29.0146C27.2199 44.8588 25.5628 43.9044 24.6613 42.3459L16.6761 28.5167L16.6759 28.5164C15.7747 26.9583 15.7747 25.0417 16.6759 23.4836Z" fill="#764CB2" stroke="#EEF8F9"/>
<path d="M31.3145 32.6922C31.3081 32.6865 31.3016 32.681 31.2947 32.6758C31.0908 32.5066 30.8869 32.3251 30.6994 32.1376C30.5802 32.0197 30.3883 32.0197 30.2691 32.1376C30.1499 32.257 30.1499 32.4504 30.2691 32.5698C30.473 32.7737 30.6769 32.9633 30.9053 33.1468C31.0308 33.2598 31.2242 33.2496 31.3372 33.1241C31.4502 32.9985 31.4401 32.8052 31.3145 32.6922Z" fill="#C9E8EE"/>
<path d="M28.1136 23.6249C27.9541 23.5692 27.7797 23.6534 27.724 23.8128C27.7157 23.8365 27.7104 23.8611 27.7081 23.886C27.647 24.1653 27.6001 24.4488 27.5654 24.7322C27.5436 24.8979 27.6589 25.0505 27.8243 25.0747H27.8631C28.0179 25.0748 28.1483 24.9592 28.1669 24.8056C28.1995 24.5405 28.2444 24.2734 28.3014 24.0145C28.3572 23.855 28.273 23.6806 28.1136 23.6249Z" fill="#C9E8EE"/>
<path d="M29.794 31.0712C29.637 30.8551 29.4882 30.6308 29.3516 30.4024C29.2652 30.2573 29.0775 30.2095 28.9324 30.2959C28.9321 30.296 28.9318 30.2962 28.9315 30.2964C28.7864 30.3828 28.7387 30.5704 28.825 30.7156C28.8252 30.7159 28.8253 30.7162 28.8255 30.7164C28.9723 30.9611 29.1314 31.2017 29.3006 31.4321C29.4049 31.5649 29.5972 31.588 29.73 31.4836C29.8564 31.3843 29.8844 31.2041 29.794 31.0712Z" fill="#C9E8EE"/>
<path d="M28.7275 29.1423C28.6297 28.8956 28.54 28.6408 28.4645 28.3839C28.4175 28.2217 28.2478 28.1283 28.0856 28.1753C28.0827 28.1761 28.0799 28.177 28.0771 28.1779C27.9166 28.227 27.8256 28.3962 27.8732 28.5572C27.9548 28.8304 28.0486 29.1036 28.1546 29.3727C28.2182 29.531 28.3981 29.6076 28.5563 29.544C28.7145 29.4804 28.7912 29.3006 28.7275 29.1423Z" fill="#C9E8EE"/>
<path d="M28.9101 21.5279C28.7593 21.4519 28.5753 21.5127 28.4993 21.6635C28.3708 21.9184 28.2526 22.1814 28.1486 22.4485C28.0873 22.605 28.1638 22.7817 28.3199 22.8441C28.4769 22.9063 28.6547 22.8294 28.7168 22.6723C28.717 22.6718 28.7173 22.6713 28.7175 22.6708C28.8153 22.422 28.9213 22.1753 29.0457 21.9388C29.1217 21.7879 29.061 21.604 28.9101 21.5279Z" fill="#C9E8EE"/>
<path d="M28.1772 27.0146C28.1772 27.0143 28.1772 27.014 28.1771 27.0138C28.1445 26.7487 28.1221 26.4796 28.1119 26.2145C28.1057 26.0456 27.9638 25.9137 27.7948 25.9199C27.6259 25.9261 27.494 26.068 27.5002 26.2369C27.5002 26.5224 27.5328 26.8099 27.5695 27.0933C27.5904 27.2415 27.7156 27.3528 27.8652 27.3563H27.9121C28.0797 27.3352 28.1984 27.1821 28.1772 27.0146Z" fill="#C9E8EE"/>
<path d="M36.2909 16.8119C36.2746 16.643 36.1245 16.5193 35.9555 16.5356C35.6721 16.5642 35.3867 16.6049 35.1053 16.66C34.9364 16.6758 34.8123 16.8255 34.828 16.9944C34.8438 17.1633 34.9935 17.2874 35.1624 17.2717L35.1604 17.2635H35.2195C35.4825 17.2125 35.7496 17.1738 36.0147 17.1473C36.1836 17.131 36.3073 16.9808 36.2909 16.8119Z" fill="#C9E8EE"/>
<path d="M30.2386 19.6777C30.1114 19.5651 29.9169 19.5769 29.8043 19.7042C29.6167 19.9183 29.4373 20.1446 29.2701 20.377C29.171 20.5138 29.2015 20.705 29.3384 20.8041C29.3903 20.8417 29.4527 20.8621 29.5168 20.8623V20.8664C29.6152 20.8667 29.7078 20.8197 29.7656 20.7399C29.9226 20.5238 30.0898 20.3118 30.2651 20.112C30.3777 19.9847 30.3658 19.7903 30.2386 19.6777Z" fill="#C9E8EE"/>
<path d="M38.3065 16.5866C38.0251 16.5438 37.7376 16.5132 37.4522 16.4969C37.2833 16.4868 37.1381 16.6155 37.128 16.7844C37.1179 16.9533 37.2466 17.0984 37.4155 17.1086C37.6846 17.129 37.9517 17.1575 38.2148 17.1983H38.2616C38.4306 17.2107 38.5775 17.0838 38.5899 16.9149C38.6023 16.746 38.4754 16.599 38.3065 16.5866Z" fill="#C9E8EE"/>
<path d="M31.9755 18.2204C31.8798 18.0904 31.6997 18.0571 31.5639 18.1444C31.3294 18.3054 31.099 18.4808 30.8788 18.6623C30.7487 18.7704 30.7309 18.9634 30.8391 19.0935C30.9472 19.2236 31.1402 19.2414 31.2703 19.1332C31.4742 18.962 31.6903 18.7989 31.9105 18.648C32.0466 18.5479 32.0756 18.3564 31.9755 18.2204Z" fill="#C9E8EE"/>
<path d="M33.0012 17.9731C33.0002 17.9731 32.9992 17.9729 32.9982 17.9729C32.9972 17.9729 32.9961 17.9731 32.9951 17.9731H33.0012Z" fill="#C9E8EE"/>
<path d="M34.0797 17.2567C34.035 17.0939 33.8667 16.998 33.7038 17.0428C33.6895 17.0467 33.6755 17.0517 33.6619 17.0577C33.3948 17.1556 33.1277 17.2616 32.8708 17.39C32.7176 17.4613 32.6512 17.6432 32.7225 17.7963C32.7724 17.9037 32.88 17.9724 32.9982 17.973C33.0424 17.9721 33.0859 17.9618 33.1256 17.9426C33.3662 17.8284 33.615 17.7244 33.8658 17.6327C34.0287 17.5879 34.1245 17.4196 34.0797 17.2567Z" fill="#C9E8EE"/>
<path d="M37.7774 34.9482C37.7667 34.7793 37.6211 34.6511 37.4522 34.6618C37.1851 34.6821 36.9159 34.6883 36.6488 34.6801C36.4799 34.6756 36.3393 34.8089 36.3348 34.9778C36.3303 35.1467 36.4636 35.2873 36.6325 35.2918H36.8915C37.0953 35.2918 37.2992 35.2918 37.4909 35.2734C37.6598 35.2628 37.7881 35.1172 37.7774 34.9482Z" fill="#C9E8EE"/>
<path d="M45.7824 27.8629C45.6186 27.8213 45.4519 27.9203 45.4103 28.0841C45.345 28.3431 45.2655 28.6 45.1758 28.8508C45.1226 29.0083 45.205 29.1794 45.3613 29.2361C45.5203 29.2932 45.6955 29.2105 45.7525 29.0515C45.7526 29.0512 45.7527 29.0509 45.7528 29.0506C45.8487 28.7814 45.9323 28.5062 46.0036 28.235C46.0453 28.0712 45.9462 27.9046 45.7824 27.8629Z" fill="#C9E8EE"/>
<path d="M46.1728 24.3611C46.1259 24.0797 46.0668 23.7963 45.9954 23.5211C45.9466 23.3594 45.7758 23.2679 45.6142 23.3168C45.4609 23.363 45.3693 23.5197 45.4041 23.676C45.4714 23.9329 45.5264 24.198 45.5713 24.461C45.5976 24.6051 45.7225 24.7103 45.869 24.7118H45.9199C46.0866 24.6847 46.1997 24.5278 46.1728 24.3611Z" fill="#C9E8EE"/>
<path d="M47.4726 20.8507C47.4583 20.8194 47.4386 20.7909 47.4145 20.7665L46.8742 20.2037C46.7968 20.1265 46.6831 20.0982 46.5785 20.1303L45.6039 20.426L44.4621 19.2149L47.025 17.7876C47.1744 17.7188 47.2397 17.542 47.1709 17.3927C47.1565 17.3615 47.1368 17.333 47.1127 17.3085L46.393 16.5888C46.3145 16.5134 46.2012 16.4868 46.0973 16.5194L42.8493 17.5022L41.7564 16.342C41.4779 16.02 41.0245 15.9124 40.631 16.0749H40.6126C40.3159 16.1971 40.0802 16.4327 39.9581 16.7294C39.9273 16.8069 39.9054 16.8876 39.8929 16.97L39.7685 16.9272C39.6075 16.8754 39.4349 16.964 39.3831 17.125C39.3313 17.286 39.4199 17.4586 39.5809 17.5104C39.7379 17.5613 39.8949 17.6184 40.0519 17.6775C40.0991 17.7515 40.1546 17.8199 40.217 17.8814L41.369 18.9743L41.0387 20.0651C37.8082 17.7607 33.3211 18.5115 31.0167 21.7421C28.7122 24.9726 29.463 29.4596 32.6936 31.7641C35.9242 34.0685 40.4112 33.3177 42.7157 30.0871C44.5533 27.5109 44.4892 24.0357 42.5577 21.529L43.0797 20.5871L44.2908 21.7289L43.9993 22.6933C43.9641 22.7992 43.9918 22.916 44.0706 22.995C44.0706 22.995 44.668 23.5863 44.6823 23.6067C44.8236 23.6886 45.0045 23.6405 45.0864 23.4992C45.0876 23.497 45.0889 23.4948 45.0901 23.4925L45.8873 22.0306L47.3268 21.2456C47.4762 21.1768 47.5414 21 47.4726 20.8507ZM32.2489 21.2537C33.4781 20.0251 35.1454 19.3356 36.8834 19.3371C37.0193 19.3371 37.1552 19.3412 37.2912 19.3494C38.4473 20.4157 38.1068 21.3883 37.332 22.265C36.8747 22.7499 36.3842 23.2023 35.8639 23.6189C35.1116 24.2591 34.4102 24.8565 34.1451 25.4539C33.8311 26.1635 34.0615 26.8057 35.3297 27.3664C35.9638 27.6478 36.3084 27.866 36.443 28.0311C36.445 28.0335 36.4469 28.0352 36.4489 28.0367C36.4447 28.038 36.4405 28.0393 36.4348 28.0413C36.1278 28.1583 35.8009 28.2143 35.4725 28.2065C33.9351 28.2717 32.8402 27.289 31.99 26.5284C31.3783 25.9841 30.8706 25.5314 30.3425 25.5273C30.4298 23.9166 31.1087 22.3948 32.2489 21.2537ZM43.461 25.8984H43.463C43.4621 28.7402 41.6353 31.2596 38.9346 32.1437C38.8587 31.6658 38.9471 31.1763 39.1853 30.7551C39.5084 30.2363 39.9229 29.7804 40.4087 29.4095C42.2906 27.8395 42.3967 26.9627 42.4782 26.2879C42.5292 25.8617 42.5679 25.5436 43.41 25.0808C43.4438 25.352 43.4608 25.6251 43.461 25.8984ZM43.0817 23.6923C43.1729 23.949 43.2478 24.2112 43.306 24.4773C42.0235 25.1297 41.9664 25.5946 41.889 26.2287C41.8196 26.7996 41.7299 27.5459 40.0295 28.965C39.4848 29.3817 39.0217 29.8952 38.6634 30.4799C38.351 31.0321 38.2427 31.6766 38.3575 32.3007C34.8206 33.1092 31.2978 30.8974 30.4893 27.3604C30.3968 26.9559 30.3429 26.5435 30.3282 26.1288C30.6524 26.1288 31.0724 26.5142 31.5883 26.9729C32.5221 27.8069 33.7169 28.8712 35.4969 28.808C35.9163 28.8152 36.3327 28.7361 36.7203 28.5755C36.8837 28.5033 37.0073 28.3633 37.0587 28.1922C37.1022 28.0014 37.0471 27.8016 36.9119 27.6601C36.7203 27.4256 36.3003 27.1483 35.5785 26.8261C34.716 26.4448 34.5284 26.0738 34.6977 25.6945C34.9016 25.2174 35.5581 24.6751 36.2554 24.0634C36.7988 23.6242 37.3105 23.1473 37.7866 22.6361C38.6389 21.6656 39.0773 20.6074 38.2107 19.4493C39.1738 19.6461 40.0799 20.0581 40.8613 20.6543L40.3924 22.2018C40.3578 22.3079 40.3853 22.4243 40.4638 22.5036C40.4638 22.5036 41.2243 23.258 41.2487 23.2723C41.39 23.3541 41.5709 23.306 41.6528 23.1648C41.6541 23.1626 41.6553 23.1603 41.6565 23.1581L42.2499 22.0856C42.6001 22.5802 42.88 23.1209 43.0817 23.6923ZM45.816 21.4148L45.5529 21.5453C45.4941 21.5745 45.4466 21.6226 45.4184 21.6819L45.2879 21.947L44.7802 22.8645L44.6313 22.7014L44.927 21.7247C44.9614 21.6103 44.9236 21.4864 44.8311 21.4107L43.2224 19.8958C43.106 19.7814 42.9188 19.7831 42.8043 19.8995C42.8016 19.9023 42.7989 19.9051 42.7963 19.908C42.7759 19.9305 41.3283 22.5383 41.3283 22.5383L41.0122 22.2222L41.9991 18.9701C42.0344 18.8551 41.9965 18.7301 41.9032 18.6541L40.6228 17.4491C40.4811 17.329 40.434 17.1307 40.5066 16.9597C40.5716 16.8116 40.6904 16.6936 40.8389 16.6294H40.8491C41.018 16.5642 41.2096 16.6134 41.3262 16.7518L42.5496 18.0445C42.6264 18.1269 42.7434 18.1586 42.8513 18.126L46.1136 17.1412L46.4297 17.4572L43.8402 18.8804C43.6969 18.9586 43.6441 19.1382 43.7223 19.2815C43.7235 19.2838 43.7248 19.286 43.726 19.2882C43.7383 19.3106 45.2981 20.9703 45.2981 20.9703C45.3753 21.0521 45.4923 21.0829 45.5998 21.0498L46.5806 20.7542L46.7335 20.9071L45.816 21.4148Z" fill="#C9E8EE"/>
<path d="M45.0283 30.0124C45.0239 30.0098 45.0193 30.0072 45.0147 30.0049C44.8686 29.9285 44.6882 29.9817 44.607 30.1252C44.4785 30.3597 44.3378 30.5901 44.1869 30.8103C44.0895 30.9488 44.1229 31.14 44.2614 31.2374C44.3998 31.3348 44.5911 31.3015 44.6885 31.163C44.8475 30.9265 44.9984 30.6798 45.1371 30.431C45.2227 30.2853 45.1739 30.0979 45.0283 30.0124Z" fill="#C9E8EE"/>
<path d="M45.9954 25.5477C45.8265 25.5454 45.6877 25.6804 45.6853 25.8493C45.6853 25.8534 45.6853 25.8576 45.6854 25.8617V25.8964C45.6854 26.1635 45.6732 26.4326 45.6487 26.6997C45.6334 26.8679 45.7574 27.0167 45.9256 27.032C45.9257 27.032 45.9259 27.032 45.926 27.032H45.9546C46.1159 27.0336 46.2506 26.9095 46.2625 26.7486C46.289 26.4652 46.3012 26.1777 46.3012 25.8923V25.8515C46.3001 25.6834 46.1635 25.5477 45.9954 25.5477Z" fill="#C9E8EE"/>
<path d="M35.2563 34.5271C34.9912 34.4823 34.7282 34.4252 34.4733 34.3477C34.314 34.2917 34.1394 34.3754 34.0833 34.5348C34.0273 34.6941 34.1111 34.8687 34.2704 34.9248C34.2821 34.9289 34.2941 34.9323 34.3061 34.935C34.5794 35.0125 34.8607 35.0797 35.1421 35.1389H35.1992C35.3681 35.1546 35.5178 35.0305 35.5336 34.8616C35.5493 34.6927 35.4252 34.5429 35.2563 34.5271Z" fill="#C9E8EE"/>
<path d="M39.9886 34.4342C39.9333 34.284 39.7716 34.2019 39.6177 34.2458V34.254C39.3649 34.3376 39.1039 34.4089 38.8449 34.4579C38.68 34.495 38.5763 34.6589 38.6135 34.8239C38.6507 34.9888 38.8145 35.0924 38.9795 35.0553C39.2568 34.9921 39.5361 34.9146 39.8073 34.8269C39.9658 34.7685 40.047 34.5927 39.9886 34.4342Z" fill="#C9E8EE"/>
<path d="M33.1583 33.8605C32.9157 33.7402 32.6772 33.6097 32.4468 33.4792C32.3009 33.3936 32.1133 33.4424 32.0278 33.5883C31.9422 33.7341 31.991 33.9217 32.1368 34.0073C32.3836 34.152 32.6384 34.2866 32.8974 34.415C33.0505 34.4871 33.2331 34.4214 33.3052 34.2682C33.3772 34.1151 33.3115 33.9325 33.1583 33.8605Z" fill="#C9E8EE"/>
<path d="M43.7288 31.8931C43.6063 31.7812 43.4168 31.7874 43.3019 31.9072H43.3039C43.1204 32.1111 42.9267 32.2905 42.729 32.4679C42.6028 32.5805 42.5919 32.7741 42.7045 32.9002C42.8171 33.0263 43.0106 33.0372 43.1367 32.9246C43.3406 32.735 43.5568 32.5332 43.7484 32.3252C43.8623 32.2004 43.8535 32.007 43.7288 31.8931Z" fill="#C9E8EE"/>
<path d="M42.0413 33.4186C41.9546 33.2736 41.7668 33.2264 41.6218 33.313C41.6169 33.3159 41.6121 33.319 41.6075 33.3222V33.314C41.3832 33.4568 41.1487 33.5913 40.9122 33.7218C40.7619 33.799 40.7025 33.9834 40.7796 34.1337C40.8568 34.284 41.0412 34.3433 41.1915 34.2662C41.4443 34.1357 41.6951 33.991 41.9357 33.8381C42.0807 33.7513 42.128 33.5636 42.0413 33.4186Z" fill="#C9E8EE"/>
<path d="M22.6201 49.2495V56.3588H21.6924V49.2495H22.6201ZM24.9053 49.2495V50.0209H19.4121V49.2495H24.9053ZM25.96 49.2495H28.3135C28.8473 49.2495 29.2982 49.3308 29.666 49.4936C30.0371 49.6564 30.3187 49.8972 30.5107 50.2162C30.7061 50.532 30.8037 50.921 30.8037 51.3832C30.8037 51.7088 30.737 52.0066 30.6035 52.2768C30.4733 52.5437 30.2845 52.7716 30.0371 52.9604C29.793 53.1459 29.5 53.2843 29.1582 53.3754L28.8945 53.478H26.6826L26.6729 52.7114H28.3428C28.6813 52.7114 28.9629 52.6528 29.1875 52.5356C29.4121 52.4151 29.5814 52.254 29.6953 52.0522C29.8092 51.8504 29.8662 51.6274 29.8662 51.3832C29.8662 51.1098 29.8125 50.8705 29.7051 50.6655C29.5977 50.4604 29.4284 50.3025 29.1973 50.1918C28.9694 50.0779 28.6748 50.0209 28.3135 50.0209H26.9023V56.3588H25.96V49.2495ZM30.1152 56.3588L28.3867 53.1362L29.3682 53.1313L31.1211 56.3002V56.3588H30.1152ZM34.7539 49.8793L32.4004 56.3588H31.4385L34.1484 49.2495H34.7686L34.7539 49.8793ZM36.7266 56.3588L34.3682 49.8793L34.3535 49.2495H34.9736L37.6934 56.3588H36.7266ZM36.6045 53.727V54.4985H32.6104V53.727H36.6045ZM40.5107 55.2797L42.6055 49.2495H43.626L40.9941 56.3588H40.2666L40.5107 55.2797ZM38.5527 49.2495L40.6279 55.2797L40.8867 56.3588H40.1592L37.5322 49.2495H38.5527ZM49.0996 55.5922V56.3588H45.335V55.5922H49.0996ZM45.5254 49.2495V56.3588H44.583V49.2495H45.5254ZM48.6016 52.3061V53.0727H45.335V52.3061H48.6016ZM49.0508 49.2495V50.0209H45.335V49.2495H49.0508ZM54.5781 55.5922V56.3588H51.0234V55.5922H54.5781ZM51.209 49.2495V56.3588H50.2666V49.2495H51.209Z" fill="#223354"/>
</svg>
